<?xml version="1.0" encoding="UTF-8" standalone="no" ?>
<svg xmlns="http://www.w3.org/2000/svg" width="59.845ex" height="6.461ex" viewBox="0 -1677.9 26451.4 2855.7" xmlns:xlink="http://www.w3.org/1999/xlink" aria-hidden="true" style=""><defs><path id="MJX-6-TEX-B-1D42F" d="M401 444Q413 441 495 441Q568 441 574 444H580V382H510L409 156Q348 18 339 6Q331 -4 320 -4Q318 -4 313 -4T303 -3H288Q273 -3 264 12T221 102Q206 135 197 156L96 382H26V444H34Q49 441 145 441Q252 441 270 444H279V382H231L284 264Q335 149 338 149Q338 150 389 264T442 381Q442 382 418 382H394V444H401Z"></path><path id="MJX-6-TEX-I-1D459" d="M117 59Q117 26 142 26Q179 26 205 131Q211 151 215 152Q217 153 225 153H229Q238 153 241 153T246 151T248 144Q247 138 245 128T234 90T214 43T183 6T137 -11Q101 -11 70 11T38 85Q38 97 39 102L104 360Q167 615 167 623Q167 626 166 628T162 632T157 634T149 635T141 636T132 637T122 637Q112 637 109 637T101 638T95 641T94 647Q94 649 96 661Q101 680 107 682T179 688Q194 689 213 690T243 693T254 694Q266 694 266 686Q266 675 193 386T118 83Q118 81 118 75T117 65V59Z"></path><path id="MJX-6-TEX-N-2B" d="M56 237T56 250T70 270H369V420L370 570Q380 583 389 583Q402 583 409 568V270H707Q722 262 722 250T707 230H409V-68Q401 -82 391 -82H389H387Q375 -82 369 -68V230H70Q56 237 56 250Z"></path><path id="MJX-6-TEX-N-31" d="M213 578L200 573Q186 568 160 563T102 556H83V602H102Q149 604 189 617T245 641T273 663Q275 666 285 666Q294 666 302 660V361L303 61Q310 54 315 52T339 48T401 46H427V0H416Q395 3 257 3Q121 3 100 0H88V46H114Q136 46 152 46T177 47T193 50T201 52T207 57T213 61V578Z"></path><path id="MJX-6-TEX-N-3D" d="M56 347Q56 360 70 367H707Q722 359 722 347Q722 336 708 328L390 327H72Q56 332 56 347ZM56 153Q56 168 72 173H708Q722 163 722 153Q722 140 707 133H70Q56 140 56 153Z"></path><path id="MJX-6-TEX-B-1D402" d="M64 343Q64 502 174 599T468 697Q502 697 533 691T586 674T623 655T647 639T657 632L694 663Q703 670 711 677T723 687T730 692T735 695T740 696T746 697Q759 697 762 692T766 668V627V489V449Q766 428 762 424T742 419H732H720Q699 419 697 436Q690 498 657 545Q611 618 532 632Q522 634 496 634Q356 634 286 553Q232 488 232 343T286 133Q355 52 497 52Q597 52 650 112T704 237Q704 248 709 251T729 254H735Q750 254 755 253T763 248T766 234Q766 136 680 63T469 -11Q285 -11 175 86T64 343Z"></path><path id="MJX-6-TEX-B-1D430" d="M624 444Q636 441 722 441Q797 441 800 444H805V382H741L593 11Q592 10 590 8T586 4T584 2T581 0T579 -2T575 -3T571 -3T567 -4T561 -4T553 -4H542Q525 -4 518 6T490 70Q474 110 463 137L415 257L367 137Q357 111 341 72Q320 17 313 7T289 -4H277Q259 -4 253 -2T238 11L90 382H25V444H32Q47 441 140 441Q243 441 261 444H270V382H222L310 164L382 342L366 382H303V444H310Q322 441 407 441Q508 441 523 444H531V382H506Q481 382 481 380Q482 376 529 259T577 142L674 382H617V444H624Z"></path><path id="MJX-6-TEX-I-1D449" d="M52 648Q52 670 65 683H76Q118 680 181 680Q299 680 320 683H330Q336 677 336 674T334 656Q329 641 325 637H304Q282 635 274 635Q245 630 242 620Q242 618 271 369T301 118L374 235Q447 352 520 471T595 594Q599 601 599 609Q599 633 555 637Q537 637 537 648Q537 649 539 661Q542 675 545 679T558 683Q560 683 570 683T604 682T668 681Q737 681 755 683H762Q769 676 769 672Q769 655 760 640Q757 637 743 637Q730 636 719 635T698 630T682 623T670 615T660 608T652 599T645 592L452 282Q272 -9 266 -16Q263 -18 259 -21L241 -22H234Q216 -22 216 -15Q213 -9 177 305Q139 623 138 626Q133 637 76 637H59Q52 642 52 648Z"></path><path id="MJX-6-TEX-N-22A4" d="M55 642T55 648T59 659T66 666T71 668H708Q723 660 723 648T708 628H409V15Q402 2 391 0Q387 0 384 1T379 3T375 6T373 9T371 13T369 16V628H71Q70 628 67 630T59 637Z"></path><path id="MJX-6-TEX-I-1D438" d="M492 213Q472 213 472 226Q472 230 477 250T482 285Q482 316 461 323T364 330H312Q311 328 277 192T243 52Q243 48 254 48T334 46Q428 46 458 48T518 61Q567 77 599 117T670 248Q680 270 683 272Q690 274 698 274Q718 274 718 261Q613 7 608 2Q605 0 322 0H133Q31 0 31 11Q31 13 34 25Q38 41 42 43T65 46Q92 46 125 49Q139 52 144 61Q146 66 215 342T285 622Q285 629 281 629Q273 632 228 634H197Q191 640 191 642T193 659Q197 676 203 680H757Q764 676 764 669Q764 664 751 557T737 447Q735 440 717 440H705Q698 445 698 453L701 476Q704 500 704 528Q704 558 697 578T678 609T643 625T596 632T532 634H485Q397 633 392 631Q388 629 386 622Q385 619 355 499T324 377Q347 376 372 376H398Q464 376 489 391T534 472Q538 488 540 490T557 493Q562 493 565 493T570 492T572 491T574 487T577 483L544 351Q511 218 508 216Q505 213 492 213Z"></path><path id="MJX-6-TEX-B-1D41B" d="M32 686L123 690Q214 694 215 694H221V409Q289 450 378 450Q479 450 539 387T600 221Q600 122 535 58T358 -6H355Q272 -6 203 53L160 1L129 0H98V301Q98 362 98 435T99 525Q99 591 97 604T83 620Q69 624 42 624H29V686H32ZM227 105L232 99Q237 93 242 87T258 73T280 59T306 49T339 45Q380 45 411 66T451 131Q457 160 457 230Q457 264 456 284T448 329T430 367T396 389T343 398Q282 398 235 355L227 348V105Z"></path><path id="MJX-6-TEX-B-1D41E" d="M32 225Q32 332 102 392T272 452H283Q382 452 436 401Q494 343 494 243Q494 226 486 222T440 217Q431 217 394 217T327 218H175V209Q175 177 179 154T196 107T236 69T306 50Q312 49 323 49Q376 49 410 85Q421 99 427 111T434 127T442 133T463 135H468Q494 135 494 117Q494 110 489 97T468 66T431 32T373 5T292 -6Q181 -6 107 55T32 225ZM383 276Q377 346 348 374T280 402Q253 402 230 390T195 357Q179 331 176 279V266H383V276Z"></path><path id="MJX-6-TEX-N-2C" d="M78 35T78 60T94 103T137 121Q165 121 187 96T210 8Q210 -27 201 -60T180 -117T154 -158T130 -185T117 -194Q113 -194 104 -185T95 -172Q95 -168 106 -156T131 -126T157 -76T173 -3V9L172 8Q170 7 167 6T161 3T152 1T140 0Q113 0 96 17Z"></path></defs><g stroke="currentColor" fill="currentColor" stroke-width="0" transform="matrix(1 0 0 -1 0 0)"><g data-mml-node="math"><g data-mml-node="mtable"><g data-mml-node="mtr" transform="translate(0, 773.8)"><g data-mml-node="mtd"><g data-mml-node="msub"><g data-mml-node="TeXAtom" data-mjx-texclass="ORD"><g data-mml-node="mi"><use xlink:href="#MJX-6-TEX-B-1D42F"></use></g></g><g data-mml-node="TeXAtom" transform="translate(607, -150) scale(0.707)" data-mjx-texclass="ORD"><g data-mml-node="mi"><use xlink:href="#MJX-6-TEX-I-1D459"></use></g><g data-mml-node="mo" transform="translate(298, 0)"><use xlink:href="#MJX-6-TEX-N-2B"></use></g><g data-mml-node="mn" transform="translate(1076, 0)"><use xlink:href="#MJX-6-TEX-N-31"></use></g></g></g><g data-mml-node="mo" transform="translate(2049.2, 0)"><use xlink:href="#MJX-6-TEX-N-3D"></use></g><g data-mml-node="msub" transform="translate(3105, 0)"><g data-mml-node="TeXAtom" data-mjx-texclass="ORD"><g data-mml-node="mi"><use xlink:href="#MJX-6-TEX-B-1D402"></use></g></g><g data-mml-node="TeXAtom" transform="translate(831, -150) scale(0.707)" data-mjx-texclass="ORD"><g data-mml-node="mi"><use xlink:href="#MJX-6-TEX-I-1D459"></use></g></g></g><g data-mml-node="msubsup" transform="translate(4196.7, 0)"><g data-mml-node="TeXAtom" data-mjx-texclass="ORD"><g data-mml-node="mi"><use xlink:href="#MJX-6-TEX-B-1D430"></use></g></g><g data-mml-node="TeXAtom" transform="translate(831, 369.2) scale(0.707)" data-mjx-texclass="ORD"><g data-mml-node="mi"><use xlink:href="#MJX-6-TEX-I-1D449"></use></g><g data-mml-node="mi" transform="translate(769, 0)"><use xlink:href="#MJX-6-TEX-I-1D449"></use></g></g><g data-mml-node="TeXAtom" transform="translate(831, -317.1) scale(0.707)" data-mjx-texclass="ORD"><g data-mml-node="mi"><use xlink:href="#MJX-6-TEX-I-1D459"></use></g></g></g><g data-mml-node="mo" transform="translate(6387.4, 0)"><use xlink:href="#MJX-6-TEX-N-2B"></use></g><g data-mml-node="msubsup" transform="translate(7387.6, 0)"><g data-mml-node="TeXAtom" data-mjx-texclass="ORD"><g data-mml-node="mi"><use xlink:href="#MJX-6-TEX-B-1D402"></use></g></g><g data-mml-node="TeXAtom" transform="translate(831, 424.1) scale(0.707)" data-mjx-texclass="ORD"><g data-mml-node="mi"><use xlink:href="#MJX-6-TEX-N-22A4"></use></g></g><g data-mml-node="TeXAtom" transform="translate(831, -247) scale(0.707)" data-mjx-texclass="ORD"><g data-mml-node="mi"><use xlink:href="#MJX-6-TEX-I-1D459"></use></g></g></g><g data-mml-node="msubsup" transform="translate(8818.8, 0)"><g data-mml-node="TeXAtom" data-mjx-texclass="ORD"><g data-mml-node="mi"><use xlink:href="#MJX-6-TEX-B-1D430"></use></g></g><g data-mml-node="TeXAtom" transform="translate(831, 369.2) scale(0.707)" data-mjx-texclass="ORD"><g data-mml-node="mi"><use xlink:href="#MJX-6-TEX-I-1D438"></use></g><g data-mml-node="mi" transform="translate(764, 0)"><use xlink:href="#MJX-6-TEX-I-1D449"></use></g></g><g data-mml-node="TeXAtom" transform="translate(831, -317.1) scale(0.707)" data-mjx-texclass="ORD"><g data-mml-node="mi"><use xlink:href="#MJX-6-TEX-I-1D459"></use></g></g></g><g data-mml-node="mo" transform="translate(11006, 0)"><use xlink:href="#MJX-6-TEX-N-2B"></use></g><g data-mml-node="msubsup" transform="translate(12006.2, 0)"><g data-mml-node="TeXAtom" data-mjx-texclass="ORD"><g data-mml-node="mi"><use xlink:href="#MJX-6-TEX-B-1D41B"></use></g></g><g data-mml-node="TeXAtom" transform="translate(639, 421.1) scale(0.707)" data-mjx-texclass="ORD"><g data-mml-node="mi"><use xlink:href="#MJX-6-TEX-I-1D449"></use></g></g><g data-mml-node="TeXAtom" transform="translate(639, -265.2) scale(0.707)" data-mjx-texclass="ORD"><g data-mml-node="mi"><use xlink:href="#MJX-6-TEX-I-1D459"></use></g></g></g><g data-mml-node="mo" transform="translate(13516.8, 0)"><use xlink:href="#MJX-6-TEX-N-3D"></use></g><g data-mml-node="msub" transform="translate(14572.5, 0)"><g data-mml-node="TeXAtom" data-mjx-texclass="ORD"><g data-mml-node="mi"><use xlink:href="#MJX-6-TEX-B-1D42F"></use></g></g><g data-mml-node="TeXAtom" transform="translate(607, -150) scale(0.707)" data-mjx-texclass="ORD"><g data-mml-node="mi"><use xlink:href="#MJX-6-TEX-I-1D459"></use></g></g></g><g data-mml-node="msubsup" transform="translate(15440.3, 0)"><g data-mml-node="TeXAtom" data-mjx-texclass="ORD"><g data-mml-node="mi"><use xlink:href="#MJX-6-TEX-B-1D41E"></use></g></g><g data-mml-node="TeXAtom" transform="translate(527, 363) scale(0.707)" data-mjx-texclass="ORD"><g data-mml-node="mi"><use xlink:href="#MJX-6-TEX-N-22A4"></use></g></g><g data-mml-node="TeXAtom" transform="translate(527, -307.7) scale(0.707)" data-mjx-texclass="ORD"><g data-mml-node="mi"><use xlink:href="#MJX-6-TEX-I-1D459"></use></g></g></g><g data-mml-node="msubsup" transform="translate(16567.4, 0)"><g data-mml-node="TeXAtom" data-mjx-texclass="ORD"><g data-mml-node="mi"><use xlink:href="#MJX-6-TEX-B-1D430"></use></g></g><g data-mml-node="TeXAtom" transform="translate(831, 369.2) scale(0.707)" data-mjx-texclass="ORD"><g data-mml-node="mi"><use xlink:href="#MJX-6-TEX-I-1D449"></use></g><g data-mml-node="mi" transform="translate(769, 0)"><use xlink:href="#MJX-6-TEX-I-1D449"></use></g></g><g data-mml-node="TeXAtom" transform="translate(831, -317.1) scale(0.707)" data-mjx-texclass="ORD"><g data-mml-node="mi"><use xlink:href="#MJX-6-TEX-I-1D459"></use></g></g></g><g data-mml-node="mo" transform="translate(18758.1, 0)"><use xlink:href="#MJX-6-TEX-N-2B"></use></g><g data-mml-node="msub" transform="translate(19758.4, 0)"><g data-mml-node="TeXAtom" data-mjx-texclass="ORD"><g data-mml-node="mi"><use xlink:href="#MJX-6-TEX-B-1D41E"></use></g></g><g data-mml-node="TeXAtom" transform="translate(527, -150) scale(0.707)" data-mjx-texclass="ORD"><g data-mml-node="mi"><use xlink:href="#MJX-6-TEX-I-1D459"></use></g></g></g><g data-mml-node="msubsup" transform="translate(20546.1, 0)"><g data-mml-node="TeXAtom" data-mjx-texclass="ORD"><g data-mml-node="mi"><use xlink:href="#MJX-6-TEX-B-1D42F"></use></g></g><g data-mml-node="TeXAtom" transform="translate(607, 363) scale(0.707)" data-mjx-texclass="ORD"><g data-mml-node="mi"><use xlink:href="#MJX-6-TEX-N-22A4"></use></g></g><g data-mml-node="TeXAtom" transform="translate(607, -307.7) scale(0.707)" data-mjx-texclass="ORD"><g data-mml-node="mi"><use xlink:href="#MJX-6-TEX-I-1D459"></use></g></g></g><g data-mml-node="msubsup" transform="translate(21753.2, 0)"><g data-mml-node="TeXAtom" data-mjx-texclass="ORD"><g data-mml-node="mi"><use xlink:href="#MJX-6-TEX-B-1D430"></use></g></g><g data-mml-node="TeXAtom" transform="translate(831, 369.2) scale(0.707)" data-mjx-texclass="ORD"><g data-mml-node="mi"><use xlink:href="#MJX-6-TEX-I-1D438"></use></g><g data-mml-node="mi" transform="translate(764, 0)"><use xlink:href="#MJX-6-TEX-I-1D449"></use></g></g><g data-mml-node="TeXAtom" transform="translate(831, -317.1) scale(0.707)" data-mjx-texclass="ORD"><g data-mml-node="mi"><use xlink:href="#MJX-6-TEX-I-1D459"></use></g></g></g><g data-mml-node="mo" transform="translate(23940.4, 0)"><use xlink:href="#MJX-6-TEX-N-2B"></use></g><g data-mml-node="msubsup" transform="translate(24940.6, 0)"><g data-mml-node="TeXAtom" data-mjx-texclass="ORD"><g data-mml-node="mi"><use xlink:href="#MJX-6-TEX-B-1D41B"></use></g></g><g data-mml-node="TeXAtom" transform="translate(639, 421.1) scale(0.707)" data-mjx-texclass="ORD"><g data-mml-node="mi"><use xlink:href="#MJX-6-TEX-I-1D449"></use></g></g><g data-mml-node="TeXAtom" transform="translate(639, -265.2) scale(0.707)" data-mjx-texclass="ORD"><g data-mml-node="mi"><use xlink:href="#MJX-6-TEX-I-1D459"></use></g></g></g><g data-mml-node="mo" transform="translate(26173.4, 0)"><use xlink:href="#MJX-6-TEX-N-2C"></use></g></g></g><g data-mml-node="mtr" transform="translate(0, -853)"><g data-mml-node="mtd"><g data-mml-node="msub"><g data-mml-node="TeXAtom" data-mjx-texclass="ORD"><g data-mml-node="mi"><use xlink:href="#MJX-6-TEX-B-1D41E"></use></g></g><g data-mml-node="TeXAtom" transform="translate(527, -150) scale(0.707)" data-mjx-texclass="ORD"><g data-mml-node="mi"><use xlink:href="#MJX-6-TEX-I-1D459"></use></g><g data-mml-node="mo" transform="translate(298, 0)"><use xlink:href="#MJX-6-TEX-N-2B"></use></g><g data-mml-node="mn" transform="translate(1076, 0)"><use xlink:href="#MJX-6-TEX-N-31"></use></g></g></g><g data-mml-node="mo" transform="translate(1969.2, 0)"><use xlink:href="#MJX-6-TEX-N-3D"></use></g><g data-mml-node="msub" transform="translate(3025, 0)"><g data-mml-node="TeXAtom" data-mjx-texclass="ORD"><g data-mml-node="mi"><use xlink:href="#MJX-6-TEX-B-1D402"></use></g></g><g data-mml-node="TeXAtom" transform="translate(831, -150) scale(0.707)" data-mjx-texclass="ORD"><g data-mml-node="mi"><use xlink:href="#MJX-6-TEX-I-1D459"></use></g></g></g><g data-mml-node="msubsup" transform="translate(4116.7, 0)"><g data-mml-node="TeXAtom" data-mjx-texclass="ORD"><g data-mml-node="mi"><use xlink:href="#MJX-6-TEX-B-1D430"></use></g></g><g data-mml-node="TeXAtom" transform="translate(831, 369.2) scale(0.707)" data-mjx-texclass="ORD"><g data-mml-node="mi"><use xlink:href="#MJX-6-TEX-I-1D449"></use></g><g data-mml-node="mi" transform="translate(769, 0)"><use xlink:href="#MJX-6-TEX-I-1D438"></use></g></g><g data-mml-node="TeXAtom" transform="translate(831, -317.1) scale(0.707)" data-mjx-texclass="ORD"><g data-mml-node="mi"><use xlink:href="#MJX-6-TEX-I-1D459"></use></g></g></g><g data-mml-node="mo" transform="translate(6303.9, 0)"><use xlink:href="#MJX-6-TEX-N-2B"></use></g><g data-mml-node="msubsup" transform="translate(7304.1, 0)"><g data-mml-node="TeXAtom" data-mjx-texclass="ORD"><g data-mml-node="mi"><use xlink:href="#MJX-6-TEX-B-1D402"></use></g></g><g data-mml-node="TeXAtom" transform="translate(831, 424.1) scale(0.707)" data-mjx-texclass="ORD"><g data-mml-node="mi"><use xlink:href="#MJX-6-TEX-N-22A4"></use></g></g><g data-mml-node="TeXAtom" transform="translate(831, -247) scale(0.707)" data-mjx-texclass="ORD"><g data-mml-node="mi"><use xlink:href="#MJX-6-TEX-I-1D459"></use></g></g></g><g data-mml-node="msubsup" transform="translate(8735.2, 0)"><g data-mml-node="TeXAtom" data-mjx-texclass="ORD"><g data-mml-node="mi"><use xlink:href="#MJX-6-TEX-B-1D430"></use></g></g><g data-mml-node="TeXAtom" transform="translate(831, 363) scale(0.707)" data-mjx-texclass="ORD"><g data-mml-node="mi"><use xlink:href="#MJX-6-TEX-I-1D438"></use></g><g data-mml-node="mi" transform="translate(764, 0)"><use xlink:href="#MJX-6-TEX-I-1D438"></use></g></g><g data-mml-node="TeXAtom" transform="translate(831, -307.7) scale(0.707)" data-mjx-texclass="ORD"><g data-mml-node="mi"><use xlink:href="#MJX-6-TEX-I-1D459"></use></g></g></g><g data-mml-node="mo" transform="translate(10918.9, 0)"><use xlink:href="#MJX-6-TEX-N-2B"></use></g><g data-mml-node="msubsup" transform="translate(11919.1, 0)"><g data-mml-node="TeXAtom" data-mjx-texclass="ORD"><g data-mml-node="mi"><use xlink:href="#MJX-6-TEX-B-1D41B"></use></g></g><g data-mml-node="TeXAtom" transform="translate(639, 421.1) scale(0.707)" data-mjx-texclass="ORD"><g data-mml-node="mi"><use xlink:href="#MJX-6-TEX-I-1D438"></use></g></g><g data-mml-node="TeXAtom" transform="translate(639, -249.7) scale(0.707)" data-mjx-texclass="ORD"><g data-mml-node="mi"><use xlink:href="#MJX-6-TEX-I-1D459"></use></g></g></g><g data-mml-node="mo" transform="translate(13426.2, 0)"><use xlink:href="#MJX-6-TEX-N-3D"></use></g><g data-mml-node="msub" transform="translate(14481.9, 0)"><g data-mml-node="TeXAtom" data-mjx-texclass="ORD"><g data-mml-node="mi"><use xlink:href="#MJX-6-TEX-B-1D42F"></use></g></g><g data-mml-node="TeXAtom" transform="translate(607, -150) scale(0.707)" data-mjx-texclass="ORD"><g data-mml-node="mi"><use xlink:href="#MJX-6-TEX-I-1D459"></use></g></g></g><g data-mml-node="msubsup" transform="translate(15349.6, 0)"><g data-mml-node="TeXAtom" data-mjx-texclass="ORD"><g data-mml-node="mi"><use xlink:href="#MJX-6-TEX-B-1D41E"></use></g></g><g data-mml-node="TeXAtom" transform="translate(527, 363) scale(0.707)" data-mjx-texclass="ORD"><g data-mml-node="mi"><use xlink:href="#MJX-6-TEX-N-22A4"></use></g></g><g data-mml-node="TeXAtom" transform="translate(527, -307.7) scale(0.707)" data-mjx-texclass="ORD"><g data-mml-node="mi"><use xlink:href="#MJX-6-TEX-I-1D459"></use></g></g></g><g data-mml-node="msubsup" transform="translate(16476.8, 0)"><g data-mml-node="TeXAtom" data-mjx-texclass="ORD"><g data-mml-node="mi"><use xlink:href="#MJX-6-TEX-B-1D430"></use></g></g><g data-mml-node="TeXAtom" transform="translate(831, 369.2) scale(0.707)" data-mjx-texclass="ORD"><g data-mml-node="mi"><use xlink:href="#MJX-6-TEX-I-1D449"></use></g><g data-mml-node="mi" transform="translate(769, 0)"><use xlink:href="#MJX-6-TEX-I-1D438"></use></g></g><g data-mml-node="TeXAtom" transform="translate(831, -317.1) scale(0.707)" data-mjx-texclass="ORD"><g data-mml-node="mi"><use xlink:href="#MJX-6-TEX-I-1D459"></use></g></g></g><g data-mml-node="mo" transform="translate(18664, 0)"><use xlink:href="#MJX-6-TEX-N-2B"></use></g><g data-mml-node="msub" transform="translate(19664.2, 0)"><g data-mml-node="TeXAtom" data-mjx-texclass="ORD"><g data-mml-node="mi"><use xlink:href="#MJX-6-TEX-B-1D41E"></use></g></g><g data-mml-node="TeXAtom" transform="translate(527, -150) scale(0.707)" data-mjx-texclass="ORD"><g data-mml-node="mi"><use xlink:href="#MJX-6-TEX-I-1D459"></use></g></g></g><g data-mml-node="msubsup" transform="translate(20451.9, 0)"><g data-mml-node="TeXAtom" data-mjx-texclass="ORD"><g data-mml-node="mi"><use xlink:href="#MJX-6-TEX-B-1D42F"></use></g></g><g data-mml-node="TeXAtom" transform="translate(607, 363) scale(0.707)" data-mjx-texclass="ORD"><g data-mml-node="mi"><use xlink:href="#MJX-6-TEX-N-22A4"></use></g></g><g data-mml-node="TeXAtom" transform="translate(607, -307.7) scale(0.707)" data-mjx-texclass="ORD"><g data-mml-node="mi"><use xlink:href="#MJX-6-TEX-I-1D459"></use></g></g></g><g data-mml-node="msubsup" transform="translate(21659.1, 0)"><g data-mml-node="TeXAtom" data-mjx-texclass="ORD"><g data-mml-node="mi"><use xlink:href="#MJX-6-TEX-B-1D430"></use></g></g><g data-mml-node="TeXAtom" transform="translate(831, 363) scale(0.707)" data-mjx-texclass="ORD"><g data-mml-node="mi"><use xlink:href="#MJX-6-TEX-I-1D438"></use></g><g data-mml-node="mi" transform="translate(764, 0)"><use xlink:href="#MJX-6-TEX-I-1D438"></use></g></g><g data-mml-node="TeXAtom" transform="translate(831, -307.7) scale(0.707)" data-mjx-texclass="ORD"><g data-mml-node="mi"><use xlink:href="#MJX-6-TEX-I-1D459"></use></g></g></g><g data-mml-node="mo" transform="translate(23842.7, 0)"><use xlink:href="#MJX-6-TEX-N-2B"></use></g><g data-mml-node="msubsup" transform="translate(24843, 0)"><g data-mml-node="TeXAtom" data-mjx-texclass="ORD"><g data-mml-node="mi"><use xlink:href="#MJX-6-TEX-B-1D41B"></use></g></g><g data-mml-node="TeXAtom" transform="translate(639, 421.1) scale(0.707)" data-mjx-texclass="ORD"><g data-mml-node="mi"><use xlink:href="#MJX-6-TEX-I-1D438"></use></g></g><g data-mml-node="TeXAtom" transform="translate(639, -249.7) scale(0.707)" data-mjx-texclass="ORD"><g data-mml-node="mi"><use xlink:href="#MJX-6-TEX-I-1D459"></use></g></g></g><g data-mml-node="mo" transform="translate(26072.2, 0)"><use xlink:href="#MJX-6-TEX-N-2C"></use></g></g></g></g></g></g></svg>