<?xml version="1.0" encoding="UTF-8" standalone="no" ?>
<svg xmlns="http://www.w3.org/2000/svg" width="21.346ex" height="2.262ex" viewBox="0 -750 9435.1 1000" xmlns:xlink="http://www.w3.org/1999/xlink" aria-hidden="true" style=""><defs><path id="MJX-8-TEX-N-5B" d="M118 -250V750H255V710H158V-210H255V-250H118Z"></path><path id="MJX-8-TEX-B-1D42F" d="M401 444Q413 441 495 441Q568 441 574 444H580V382H510L409 156Q348 18 339 6Q331 -4 320 -4Q318 -4 313 -4T303 -3H288Q273 -3 264 12T221 102Q206 135 197 156L96 382H26V444H34Q49 441 145 441Q252 441 270 444H279V382H231L284 264Q335 149 338 149Q338 150 389 264T442 381Q442 382 418 382H394V444H401Z"></path><path id="MJX-8-TEX-I-1D459" d="M117 59Q117 26 142 26Q179 26 205 131Q211 151 215 152Q217 153 225 153H229Q238 153 241 153T246 151T248 144Q247 138 245 128T234 90T214 43T183 6T137 -11Q101 -11 70 11T38 85Q38 97 39 102L104 360Q167 615 167 623Q167 626 166 628T162 632T157 634T149 635T141 636T132 637T122 637Q112 637 109 637T101 638T95 641T94 647Q94 649 96 661Q101 680 107 682T179 688Q194 689 213 690T243 693T254 694Q266 694 266 686Q266 675 193 386T118 83Q118 81 118 75T117 65V59Z"></path><path id="MJX-8-TEX-N-2B" d="M56 237T56 250T70 270H369V420L370 570Q380 583 389 583Q402 583 409 568V270H707Q722 262 722 250T707 230H409V-68Q401 -82 391 -82H389H387Q375 -82 369 -68V230H70Q56 237 56 250Z"></path><path id="MJX-8-TEX-N-31" d="M213 578L200 573Q186 568 160 563T102 556H83V602H102Q149 604 189 617T245 641T273 663Q275 666 285 666Q294 666 302 660V361L303 61Q310 54 315 52T339 48T401 46H427V0H416Q395 3 257 3Q121 3 100 0H88V46H114Q136 46 152 46T177 47T193 50T201 52T207 57T213 61V578Z"></path><path id="MJX-8-TEX-N-2C" d="M78 35T78 60T94 103T137 121Q165 121 187 96T210 8Q210 -27 201 -60T180 -117T154 -158T130 -185T117 -194Q113 -194 104 -185T95 -172Q95 -168 106 -156T131 -126T157 -76T173 -3V9L172 8Q170 7 167 6T161 3T152 1T140 0Q113 0 96 17Z"></path><path id="MJX-8-TEX-B-1D41E" d="M32 225Q32 332 102 392T272 452H283Q382 452 436 401Q494 343 494 243Q494 226 486 222T440 217Q431 217 394 217T327 218H175V209Q175 177 179 154T196 107T236 69T306 50Q312 49 323 49Q376 49 410 85Q421 99 427 111T434 127T442 133T463 135H468Q494 135 494 117Q494 110 489 97T468 66T431 32T373 5T292 -6Q181 -6 107 55T32 225ZM383 276Q377 346 348 374T280 402Q253 402 230 390T195 357Q179 331 176 279V266H383V276Z"></path><path id="MJX-8-TEX-N-5D" d="M22 710V750H159V-250H22V-210H119V710H22Z"></path><path id="MJX-8-TEX-N-3D" d="M56 347Q56 360 70 367H707Q722 359 722 347Q722 336 708 328L390 327H72Q56 332 56 347ZM56 153Q56 168 72 173H708Q722 163 722 153Q722 140 707 133H70Q56 140 56 153Z"></path><path id="MJX-8-TEX-I-1D436" d="M50 252Q50 367 117 473T286 641T490 704Q580 704 633 653Q642 643 648 636T656 626L657 623Q660 623 684 649Q691 655 699 663T715 679T725 690L740 705H746Q760 705 760 698Q760 694 728 561Q692 422 692 421Q690 416 687 415T669 413H653Q647 419 647 422Q647 423 648 429T650 449T651 481Q651 552 619 605T510 659Q484 659 454 652T382 628T299 572T226 479Q194 422 175 346T156 222Q156 108 232 58Q280 24 350 24Q441 24 512 92T606 240Q610 253 612 255T628 257Q648 257 648 248Q648 243 647 239Q618 132 523 55T319 -22Q206 -22 128 53T50 252Z"></path><path id="MJX-8-TEX-N-28" d="M94 250Q94 319 104 381T127 488T164 576T202 643T244 695T277 729T302 750H315H319Q333 750 333 741Q333 738 316 720T275 667T226 581T184 443T167 250T184 58T225 -81T274 -167T316 -220T333 -241Q333 -250 318 -250H315H302L274 -226Q180 -141 137 -14T94 250Z"></path><path id="MJX-8-TEX-N-29" d="M60 749L64 750Q69 750 74 750H86L114 726Q208 641 251 514T294 250Q294 182 284 119T261 12T224 -76T186 -143T145 -194T113 -227T90 -246Q87 -249 86 -250H74Q66 -250 63 -250T58 -247T55 -238Q56 -237 66 -225Q221 -64 221 250T66 725Q56 737 55 738Q55 746 60 749Z"></path></defs><g stroke="currentColor" fill="currentColor" stroke-width="0" transform="matrix(1 0 0 -1 0 0)"><g data-mml-node="math"><g data-mml-node="mrow"><g data-mml-node="mo"><use xlink:href="#MJX-8-TEX-N-5B"></use></g><g data-mml-node="msub" transform="translate(278, 0)"><g data-mml-node="TeXAtom" data-mjx-texclass="ORD"><g data-mml-node="mi"><use xlink:href="#MJX-8-TEX-B-1D42F"></use></g></g><g data-mml-node="TeXAtom" transform="translate(607, -150) scale(0.707)" data-mjx-texclass="ORD"><g data-mml-node="mi"><use xlink:href="#MJX-8-TEX-I-1D459"></use></g><g data-mml-node="mo" transform="translate(298, 0)"><use xlink:href="#MJX-8-TEX-N-2B"></use></g><g data-mml-node="mn" transform="translate(1076, 0)"><use xlink:href="#MJX-8-TEX-N-31"></use></g></g></g><g data-mml-node="mo" transform="translate(2049.4, 0)"><use xlink:href="#MJX-8-TEX-N-2C"></use></g><g data-mml-node="msub" transform="translate(2494.1, 0)"><g data-mml-node="TeXAtom" data-mjx-texclass="ORD"><g data-mml-node="mi"><use xlink:href="#MJX-8-TEX-B-1D41E"></use></g></g><g data-mml-node="TeXAtom" transform="translate(527, -150) scale(0.707)" data-mjx-texclass="ORD"><g data-mml-node="mi"><use xlink:href="#MJX-8-TEX-I-1D459"></use></g><g data-mml-node="mo" transform="translate(298, 0)"><use xlink:href="#MJX-8-TEX-N-2B"></use></g><g data-mml-node="mn" transform="translate(1076, 0)"><use xlink:href="#MJX-8-TEX-N-31"></use></g></g></g><g data-mml-node="mo" transform="translate(4185.5, 0)"><use xlink:href="#MJX-8-TEX-N-5D"></use></g></g><g data-mml-node="mo" transform="translate(4741.2, 0)"><use xlink:href="#MJX-8-TEX-N-3D"></use></g><g data-mml-node="mi" transform="translate(5797, 0)"><use xlink:href="#MJX-8-TEX-I-1D436"></use></g><g data-mml-node="mrow" transform="translate(6557, 0)"><g data-mml-node="mo"><use xlink:href="#MJX-8-TEX-N-28"></use></g><g data-mml-node="msub" transform="translate(389, 0)"><g data-mml-node="TeXAtom" data-mjx-texclass="ORD"><g data-mml-node="mi"><use xlink:href="#MJX-8-TEX-B-1D42F"></use></g></g><g data-mml-node="TeXAtom" transform="translate(607, -150) scale(0.707)" data-mjx-texclass="ORD"><g data-mml-node="mi"><use xlink:href="#MJX-8-TEX-I-1D459"></use></g></g></g><g data-mml-node="mo" transform="translate(1256.7, 0)"><use xlink:href="#MJX-8-TEX-N-2C"></use></g><g data-mml-node="msub" transform="translate(1701.4, 0)"><g data-mml-node="TeXAtom" data-mjx-texclass="ORD"><g data-mml-node="mi"><use xlink:href="#MJX-8-TEX-B-1D41E"></use></g></g><g data-mml-node="TeXAtom" transform="translate(527, -150) scale(0.707)" data-mjx-texclass="ORD"><g data-mml-node="mi"><use xlink:href="#MJX-8-TEX-I-1D459"></use></g></g></g><g data-mml-node="mo" transform="translate(2489.1, 0)"><use xlink:href="#MJX-8-TEX-N-29"></use></g></g></g></g></svg>