<?xml version="1.0" encoding="UTF-8" standalone="no" ?>
<svg xmlns="http://www.w3.org/2000/svg" width="12.682ex" height="2.871ex" viewBox="0 -1185.8 5605.4 1268.8" xmlns:xlink="http://www.w3.org/1999/xlink" aria-hidden="true" style=""><defs><path id="MJX-10-TEX-N-58" d="M270 0Q252 3 141 3Q46 3 31 0H23V46H40Q129 50 161 88Q165 94 244 216T324 339Q324 341 235 480T143 622Q133 631 119 634T57 637H37V683H46Q64 680 172 680Q297 680 318 683H329V637H324Q307 637 286 632T263 621Q263 618 322 525T384 431Q385 431 437 511T489 593Q490 595 490 599Q490 611 477 622T436 637H428V683H437Q455 680 566 680Q661 680 676 683H684V637H667Q585 634 551 599Q548 596 478 491Q412 388 412 387Q412 385 514 225T620 62Q628 53 642 50T695 46H726V0H717Q699 3 591 3Q466 3 445 0H434V46H440Q454 46 476 51T499 64Q499 67 463 124T390 238L353 295L350 292Q348 290 343 283T331 265T312 236T286 195Q219 88 218 84Q218 70 234 59T272 46H280V0H270Z"></path><path id="MJX-10-TEX-SO-2DC" d="M374 597Q337 597 269 627T160 658Q101 658 34 606L24 597L12 611Q1 624 1 626Q1 627 27 648T55 671Q120 722 182 722Q219 722 286 692T395 661Q454 661 521 713L531 722L543 708Q554 695 554 693Q554 692 528 671T500 648Q434 597 374 597Z"></path><path id="MJX-10-TEX-I-1D459" d="M117 59Q117 26 142 26Q179 26 205 131Q211 151 215 152Q217 153 225 153H229Q238 153 241 153T246 151T248 144Q247 138 245 128T234 90T214 43T183 6T137 -11Q101 -11 70 11T38 85Q38 97 39 102L104 360Q167 615 167 623Q167 626 166 628T162 632T157 634T149 635T141 636T132 637T122 637Q112 637 109 637T101 638T95 641T94 647Q94 649 96 661Q101 680 107 682T179 688Q194 689 213 690T243 693T254 694Q266 694 266 686Q266 675 193 386T118 83Q118 81 118 75T117 65V59Z"></path><path id="MJX-10-TEX-N-3D" d="M56 347Q56 360 70 367H707Q722 359 722 347Q722 336 708 328L390 327H72Q56 332 56 347ZM56 153Q56 168 72 173H708Q722 163 722 153Q722 140 707 133H70Q56 140 56 153Z"></path><path id="MJX-10-TEX-N-57" d="M792 683Q810 680 914 680Q991 680 1003 683H1009V637H996Q931 633 915 598Q912 591 863 438T766 135T716 -17Q711 -22 694 -22Q676 -22 673 -15Q671 -13 593 231L514 477L435 234Q416 174 391 92T358 -6T341 -22H331Q314 -21 310 -15Q309 -14 208 302T104 622Q98 632 87 633Q73 637 35 637H18V683H27Q69 681 154 681Q164 681 181 681T216 681T249 682T276 683H287H298V637H285Q213 637 213 620Q213 616 289 381L364 144L427 339Q490 535 492 546Q487 560 482 578T475 602T468 618T461 628T449 633T433 636T408 637H380V683H388Q397 680 508 680Q629 680 650 683H660V637H647Q576 637 576 619L727 146Q869 580 869 600Q869 605 863 612T839 627T794 637H783V683H792Z"></path><path id="MJX-10-TEX-N-2299" d="M56 250Q56 394 156 488T384 583Q530 583 626 485T722 250Q722 110 625 14T390 -83Q249 -83 153 14T56 250ZM682 250Q682 322 649 387T546 497T381 542Q272 542 184 459T95 250Q95 132 178 45T389 -42Q515 -42 598 45T682 250ZM311 250Q311 285 332 304T375 328Q376 328 382 328T392 329Q424 326 445 305T466 250Q466 217 445 195T389 172Q354 172 333 195T311 250Z"></path></defs><g stroke="currentColor" fill="currentColor" stroke-width="0" transform="matrix(1 0 0 -1 0 0)"><g data-mml-node="math"><g data-mml-node="msup"><g data-mml-node="TeXAtom" data-mjx-texclass="ORD"><g data-mml-node="mover"><g data-mml-node="TeXAtom" data-mjx-texclass="ORD"><g data-mml-node="mi"><use xlink:href="#MJX-10-TEX-N-58"></use></g></g><g data-mml-node="mo" transform="translate(97, 146)"><use xlink:href="#MJX-10-TEX-SO-2DC"></use></g></g></g><g data-mml-node="TeXAtom" transform="translate(750, 695.1) scale(0.707)" data-mjx-texclass="ORD"><g data-mml-node="mi"><use xlink:href="#MJX-10-TEX-I-1D459"></use></g></g></g><g data-mml-node="mo" transform="translate(1288.5, 0)"><use xlink:href="#MJX-10-TEX-N-3D"></use></g><g data-mml-node="TeXAtom" data-mjx-texclass="ORD" transform="translate(2344.3, 0)"><g data-mml-node="mi"><use xlink:href="#MJX-10-TEX-N-57"></use></g></g><g data-mml-node="mo" transform="translate(3594.5, 0)"><use xlink:href="#MJX-10-TEX-N-2299"></use></g><g data-mml-node="msup" transform="translate(4594.7, 0)"><g data-mml-node="TeXAtom" data-mjx-texclass="ORD"><g data-mml-node="mi"><use xlink:href="#MJX-10-TEX-N-58"></use></g></g><g data-mml-node="TeXAtom" transform="translate(750, 413) scale(0.707)" data-mjx-texclass="ORD"><g data-mml-node="mi"><use xlink:href="#MJX-10-TEX-I-1D459"></use></g></g></g></g></g></svg>