<?xml version="1.0" encoding="UTF-8" standalone="no" ?>
<svg xmlns="http://www.w3.org/2000/svg" width="40.814ex" height="4.07ex" viewBox="0 -1149.5 18039.9 1799" xmlns:xlink="http://www.w3.org/1999/xlink" aria-hidden="true" style=""><defs><path id="MJX-12-TEX-I-1D6FC" d="M34 156Q34 270 120 356T309 442Q379 442 421 402T478 304Q484 275 485 237V208Q534 282 560 374Q564 388 566 390T582 393Q603 393 603 385Q603 376 594 346T558 261T497 161L486 147L487 123Q489 67 495 47T514 26Q528 28 540 37T557 60Q559 67 562 68T577 70Q597 70 597 62Q597 56 591 43Q579 19 556 5T512 -10H505Q438 -10 414 62L411 69L400 61Q390 53 370 41T325 18T267 -2T203 -11Q124 -11 79 39T34 156ZM208 26Q257 26 306 47T379 90L403 112Q401 255 396 290Q382 405 304 405Q235 405 183 332Q156 292 139 224T121 120Q121 71 146 49T208 26Z"></path><path id="MJX-12-TEX-I-1D456" d="M184 600Q184 624 203 642T247 661Q265 661 277 649T290 619Q290 596 270 577T226 557Q211 557 198 567T184 600ZM21 287Q21 295 30 318T54 369T98 420T158 442Q197 442 223 419T250 357Q250 340 236 301T196 196T154 83Q149 61 149 51Q149 26 166 26Q175 26 185 29T208 43T235 78T260 137Q263 149 265 151T282 153Q302 153 302 143Q302 135 293 112T268 61T223 11T161 -11Q129 -11 102 10T74 74Q74 91 79 106T122 220Q160 321 166 341T173 380Q173 404 156 404H154Q124 404 99 371T61 287Q60 286 59 284T58 281T56 279T53 278T49 278T41 278H27Q21 284 21 287Z"></path><path id="MJX-12-TEX-N-3D" d="M56 347Q56 360 70 367H707Q722 359 722 347Q722 336 708 328L390 327H72Q56 332 56 347ZM56 153Q56 168 72 173H708Q722 163 722 153Q722 140 707 133H70Q56 140 56 153Z"></path><path id="MJX-12-TEX-N-A0" d=""></path><path id="MJX-12-TEX-N-41" d="M255 0Q240 3 140 3Q48 3 39 0H32V46H47Q119 49 139 88Q140 91 192 245T295 553T348 708Q351 716 366 716H376Q396 715 400 709Q402 707 508 390L617 67Q624 54 636 51T687 46H717V0H708Q699 3 581 3Q458 3 437 0H427V46H440Q510 46 510 64Q510 66 486 138L462 209H229L209 150Q189 91 189 85Q189 72 209 59T259 46H264V0H255ZM447 255L345 557L244 256Q244 255 345 255H447Z"></path><path id="MJX-12-TEX-N-74" d="M27 422Q80 426 109 478T141 600V615H181V431H316V385H181V241Q182 116 182 100T189 68Q203 29 238 29Q282 29 292 100Q293 108 293 146V181H333V146V134Q333 57 291 17Q264 -10 221 -10Q187 -10 162 2T124 33T105 68T98 100Q97 107 97 248V385H18V422H27Z"></path><path id="MJX-12-TEX-N-65" d="M28 218Q28 273 48 318T98 391T163 433T229 448Q282 448 320 430T378 380T406 316T415 245Q415 238 408 231H126V216Q126 68 226 36Q246 30 270 30Q312 30 342 62Q359 79 369 104L379 128Q382 131 395 131H398Q415 131 415 121Q415 117 412 108Q393 53 349 21T250 -11Q155 -11 92 58T28 218ZM333 275Q322 403 238 411H236Q228 411 220 410T195 402T166 381T143 340T127 274V267H333V275Z"></path><path id="MJX-12-TEX-N-6E" d="M41 46H55Q94 46 102 60V68Q102 77 102 91T102 122T103 161T103 203Q103 234 103 269T102 328V351Q99 370 88 376T43 385H25V408Q25 431 27 431L37 432Q47 433 65 434T102 436Q119 437 138 438T167 441T178 442H181V402Q181 364 182 364T187 369T199 384T218 402T247 421T285 437Q305 442 336 442Q450 438 463 329Q464 322 464 190V104Q464 66 466 59T477 49Q498 46 526 46H542V0H534L510 1Q487 2 460 2T422 3Q319 3 310 0H302V46H318Q379 46 379 62Q380 64 380 200Q379 335 378 343Q372 371 358 385T334 402T308 404Q263 404 229 370Q202 343 195 315T187 232V168V108Q187 78 188 68T191 55T200 49Q221 46 249 46H265V0H257L234 1Q210 2 183 2T145 3Q42 3 33 0H25V46H41Z"></path><path id="MJX-12-TEX-N-69" d="M69 609Q69 637 87 653T131 669Q154 667 171 652T188 609Q188 579 171 564T129 549Q104 549 87 564T69 609ZM247 0Q232 3 143 3Q132 3 106 3T56 1L34 0H26V46H42Q70 46 91 49Q100 53 102 60T104 102V205V293Q104 345 102 359T88 378Q74 385 41 385H30V408Q30 431 32 431L42 432Q52 433 70 434T106 436Q123 437 142 438T171 441T182 442H185V62Q190 52 197 50T232 46H255V0H247Z"></path><path id="MJX-12-TEX-N-6F" d="M28 214Q28 309 93 378T250 448Q340 448 405 380T471 215Q471 120 407 55T250 -10Q153 -10 91 57T28 214ZM250 30Q372 30 372 193V225V250Q372 272 371 288T364 326T348 362T317 390T268 410Q263 411 252 411Q222 411 195 399Q152 377 139 338T126 246V226Q126 130 145 91Q177 30 250 30Z"></path><path id="MJX-12-TEX-I-1D450" d="M34 159Q34 268 120 355T306 442Q362 442 394 418T427 355Q427 326 408 306T360 285Q341 285 330 295T319 325T330 359T352 380T366 386H367Q367 388 361 392T340 400T306 404Q276 404 249 390Q228 381 206 359Q162 315 142 235T121 119Q121 73 147 50Q169 26 205 26H209Q321 26 394 111Q403 121 406 121Q410 121 419 112T429 98T420 83T391 55T346 25T282 0T202 -11Q127 -11 81 37T34 159Z"></path><path id="MJX-12-TEX-LO-28" d="M180 96T180 250T205 541T266 770T353 944T444 1069T527 1150H555Q561 1144 561 1141Q561 1137 545 1120T504 1072T447 995T386 878T330 721T288 513T272 251Q272 133 280 56Q293 -87 326 -209T399 -405T475 -531T536 -609T561 -640Q561 -643 555 -649H527Q483 -612 443 -568T353 -443T266 -270T205 -41Z"></path><path id="MJX-12-TEX-B-1D416" d="M915 686L1052 683Q1142 683 1157 686H1164V624H1073L957 320Q930 249 900 170T855 52T839 10Q834 0 826 -5Q821 -7 799 -7H792Q777 -7 772 -5T759 10Q759 11 748 39T716 122T676 228L594 442L512 228Q486 159 455 78Q433 19 428 9T416 -5Q411 -7 389 -7H379Q356 -7 349 10Q349 12 334 51T288 170T231 320L116 624H24V686H35Q44 683 183 683Q331 683 355 686H368V624H323Q278 624 278 623L437 207L499 369L561 531L526 624H434V686H445Q454 683 593 683Q741 683 765 686H778V624H733Q688 624 688 623L847 207Q848 207 927 415T1006 624H905V686H915Z"></path><path id="MJX-12-TEX-N-63" d="M370 305T349 305T313 320T297 358Q297 381 312 396Q317 401 317 402T307 404Q281 408 258 408Q209 408 178 376Q131 329 131 219Q131 137 162 90Q203 29 272 29Q313 29 338 55T374 117Q376 125 379 127T395 129H409Q415 123 415 120Q415 116 411 104T395 71T366 33T318 2T249 -11Q163 -11 99 53T34 214Q34 318 99 383T250 448T370 421T404 357Q404 334 387 320Z"></path><path id="MJX-12-TEX-I-210E" d="M137 683Q138 683 209 688T282 694Q294 694 294 685Q294 674 258 534Q220 386 220 383Q220 381 227 388Q288 442 357 442Q411 442 444 415T478 336Q478 285 440 178T402 50Q403 36 407 31T422 26Q450 26 474 56T513 138Q516 149 519 151T535 153Q555 153 555 145Q555 144 551 130Q535 71 500 33Q466 -10 419 -10H414Q367 -10 346 17T325 74Q325 90 361 192T398 345Q398 404 354 404H349Q266 404 205 306L198 293L164 158Q132 28 127 16Q114 -11 83 -11Q69 -11 59 -2T48 16Q48 30 121 320L195 616Q195 629 188 632T149 637H128Q122 643 122 645T124 664Q129 683 137 683Z"></path><path id="MJX-12-TEX-N-20D7" d="M377 694Q377 702 382 708T397 714Q404 714 409 709Q414 705 419 690Q429 653 460 633Q471 626 471 615Q471 606 468 603T454 594Q411 572 379 531Q377 529 374 525T369 519T364 517T357 516Q350 516 344 521T337 536Q337 555 384 595H213L42 596Q29 605 29 615Q29 622 42 635H401Q377 673 377 694Z"></path><path id="MJX-12-TEX-S4-2225" d="M133 736Q138 750 153 750Q164 750 170 739Q172 735 172 250T170 -239Q164 -250 152 -250Q144 -250 138 -244L137 -243Q133 -241 133 -179T132 250Q132 731 133 736ZM329 739Q334 750 346 750Q353 750 361 744L362 743Q366 741 366 679T367 250T367 -178T362 -243L361 -244Q355 -250 347 -250Q335 -250 329 -239Q327 -235 327 250T329 739Z"></path><path id="MJX-12-TEX-B-1D41C" d="M447 131H458Q478 131 478 117Q478 112 471 95T439 51T377 9Q330 -6 286 -6Q196 -6 135 35Q39 96 39 222Q39 324 101 384Q169 453 286 453Q359 453 411 431T464 353Q464 319 445 302T395 284Q360 284 343 305T325 353Q325 380 338 396H333Q317 398 295 398H292Q280 398 271 397T245 390T218 373T197 338T183 283Q182 275 182 231Q182 199 184 180T193 132T220 85T270 57Q289 50 317 50H326Q385 50 414 115Q419 127 423 129T447 131Z"></path><path id="MJX-12-TEX-N-2299" d="M56 250Q56 394 156 488T384 583Q530 583 626 485T722 250Q722 110 625 14T390 -83Q249 -83 153 14T56 250ZM682 250Q682 322 649 387T546 497T381 542Q272 542 184 459T95 250Q95 132 178 45T389 -42Q515 -42 598 45T682 250ZM311 250Q311 285 332 304T375 328Q376 328 382 328T392 329Q424 326 445 305T466 250Q466 217 445 195T389 172Q354 172 333 195T311 250Z"></path><path id="MJX-12-TEX-LO-29" d="M35 1138Q35 1150 51 1150H56H69Q113 1113 153 1069T243 944T330 771T391 541T416 250T391 -40T330 -270T243 -443T152 -568T69 -649H56Q43 -649 39 -647T35 -637Q65 -607 110 -548Q283 -316 316 56Q324 133 324 251Q324 368 316 445Q278 877 48 1123Q36 1137 35 1138Z"></path></defs><g stroke="currentColor" fill="currentColor" stroke-width="0" transform="matrix(1 0 0 -1 0 0)"><g data-mml-node="math"><g data-mml-node="msub"><g data-mml-node="mi"><use xlink:href="#MJX-12-TEX-I-1D6FC"></use></g><g data-mml-node="TeXAtom" transform="translate(640, -150) scale(0.707)" data-mjx-texclass="ORD"><g data-mml-node="mi"><use xlink:href="#MJX-12-TEX-I-1D456"></use></g></g></g><g data-mml-node="mo" transform="translate(1211.7, 0)"><use xlink:href="#MJX-12-TEX-N-3D"></use></g><g data-mml-node="msub" transform="translate(2267.5, 0)"><g data-mml-node="mtext"><use xlink:href="#MJX-12-TEX-N-A0"></use><use xlink:href="#MJX-12-TEX-N-41" transform="translate(250, 0)"></use><use xlink:href="#MJX-12-TEX-N-74" transform="translate(1000, 0)"></use><use xlink:href="#MJX-12-TEX-N-74" transform="translate(1389, 0)"></use><use xlink:href="#MJX-12-TEX-N-65" transform="translate(1778, 0)"></use><use xlink:href="#MJX-12-TEX-N-6E" transform="translate(2222, 0)"></use><use xlink:href="#MJX-12-TEX-N-74" transform="translate(2778, 0)"></use><use xlink:href="#MJX-12-TEX-N-69" transform="translate(3167, 0)"></use><use xlink:href="#MJX-12-TEX-N-6F" transform="translate(3445, 0)"></use><use xlink:href="#MJX-12-TEX-N-6E" transform="translate(3945, 0)"></use><use xlink:href="#MJX-12-TEX-N-A0" transform="translate(4501, 0)"></use></g><g data-mml-node="TeXAtom" transform="translate(4751, -150) scale(0.707)" data-mjx-texclass="ORD"><g data-mml-node="mi"><use xlink:href="#MJX-12-TEX-I-1D450"></use></g></g></g><g data-mml-node="mrow" transform="translate(7374.7, 0)"><g data-mml-node="mo"><use xlink:href="#MJX-12-TEX-LO-28"></use></g><g data-mml-node="msub" transform="translate(597, 0)"><g data-mml-node="TeXAtom" data-mjx-texclass="ORD"><g data-mml-node="mi"><use xlink:href="#MJX-12-TEX-B-1D416"></use></g></g><g data-mml-node="TeXAtom" transform="translate(1189, -150) scale(0.707)" data-mjx-texclass="ORD"><g data-mml-node="TeXAtom" data-mjx-texclass="ORD"><g data-mml-node="mi"><use xlink:href="#MJX-12-TEX-N-63"></use></g></g></g></g><g data-mml-node="msub" transform="translate(2150, 0)"><g data-mml-node="TeXAtom" data-mjx-texclass="ORD"><g data-mml-node="mover"><g data-mml-node="mi"><use xlink:href="#MJX-12-TEX-I-210E"></use></g><g data-mml-node="mo" transform="translate(10.2, 238)"><use xlink:href="#MJX-12-TEX-N-20D7"></use></g></g></g><g data-mml-node="TeXAtom" transform="translate(576, -150) scale(0.707)" data-mjx-texclass="ORD"><g data-mml-node="mi"><use xlink:href="#MJX-12-TEX-I-1D456"></use></g></g></g><g data-mml-node="mrow" transform="translate(3019.9, 0)"><g data-mml-node="mo"><svg width="500" height="1604" y="-552" x="28" viewBox="0 -200.5 500 1604"><use xlink:href="#MJX-12-TEX-S4-2225" transform="scale(1, 2.406)"></use></svg></g><g data-mml-node="msub" transform="translate(556, 0)"><g data-mml-node="TeXAtom" data-mjx-texclass="ORD"><g data-mml-node="mover"><g data-mml-node="mi"><use xlink:href="#MJX-12-TEX-I-210E"></use></g><g data-mml-node="mo" transform="translate(10.2, 238)"><use xlink:href="#MJX-12-TEX-N-20D7"></use></g></g></g><g data-mml-node="TeXAtom" transform="translate(576, -150) scale(0.707)" data-mjx-texclass="ORD"><g data-mml-node="msub"><g data-mml-node="mi"><use xlink:href="#MJX-12-TEX-I-1D456"></use></g><g data-mml-node="TeXAtom" transform="translate(345, -150) scale(0.707)" data-mjx-texclass="ORD"><g data-mml-node="mi"><use xlink:href="#MJX-12-TEX-I-1D450"></use></g></g></g></g></g><g data-mml-node="mo" transform="translate(1677.8, 0)"><svg width="500" height="1604" y="-552" x="28" viewBox="0 -200.5 500 1604"><use xlink:href="#MJX-12-TEX-S4-2225" transform="scale(1, 2.406)"></use></svg></g></g><g data-mml-node="msub" transform="translate(5253.7, 0)"><g data-mml-node="TeXAtom" data-mjx-texclass="ORD"><g data-mml-node="mi"><use xlink:href="#MJX-12-TEX-B-1D416"></use></g></g><g data-mml-node="TeXAtom" transform="translate(1189, -150) scale(0.707)" data-mjx-texclass="ORD"><g data-mml-node="TeXAtom" data-mjx-texclass="ORD"><g data-mml-node="mi"><use xlink:href="#MJX-12-TEX-B-1D41C"></use></g></g></g></g><g data-mml-node="msub" transform="translate(6854, 0)"><g data-mml-node="TeXAtom" data-mjx-texclass="ORD"><g data-mml-node="mover"><g data-mml-node="mi"><use xlink:href="#MJX-12-TEX-I-210E"></use></g><g data-mml-node="mo" transform="translate(10.2, 238)"><use xlink:href="#MJX-12-TEX-N-20D7"></use></g></g></g><g data-mml-node="TeXAtom" transform="translate(576, -150) scale(0.707)" data-mjx-texclass="ORD"><g data-mml-node="mi"><use xlink:href="#MJX-12-TEX-I-1D456"></use></g></g></g><g data-mml-node="mo" transform="translate(7946.2, 0)"><use xlink:href="#MJX-12-TEX-N-2299"></use></g><g data-mml-node="msub" transform="translate(8946.4, 0)"><g data-mml-node="TeXAtom" data-mjx-texclass="ORD"><g data-mml-node="mover"><g data-mml-node="mi"><use xlink:href="#MJX-12-TEX-I-210E"></use></g><g data-mml-node="mo" transform="translate(10.2, 238)"><use xlink:href="#MJX-12-TEX-N-20D7"></use></g></g></g><g data-mml-node="TeXAtom" transform="translate(576, -150) scale(0.707)" data-mjx-texclass="ORD"><g data-mml-node="msub"><g data-mml-node="mi"><use xlink:href="#MJX-12-TEX-I-1D456"></use></g><g data-mml-node="TeXAtom" transform="translate(345, -150) scale(0.707)" data-mjx-texclass="ORD"><g data-mml-node="mi"><use xlink:href="#MJX-12-TEX-I-1D450"></use></g></g></g></g></g><g data-mml-node="mo" transform="translate(10068.2, 0)"><use xlink:href="#MJX-12-TEX-LO-29"></use></g></g></g></g></svg>