<?xml version="1.0" encoding="UTF-8" standalone="no" ?>
<svg xmlns="http://www.w3.org/2000/svg" width="26.606ex" height="4.07ex" viewBox="0 -1149.5 11759.7 1799" xmlns:xlink="http://www.w3.org/1999/xlink" aria-hidden="true" style=""><defs><path id="MJX-2-TEX-I-1D440" d="M289 629Q289 635 232 637Q208 637 201 638T194 648Q194 649 196 659Q197 662 198 666T199 671T201 676T203 679T207 681T212 683T220 683T232 684Q238 684 262 684T307 683Q386 683 398 683T414 678Q415 674 451 396L487 117L510 154Q534 190 574 254T662 394Q837 673 839 675Q840 676 842 678T846 681L852 683H948Q965 683 988 683T1017 684Q1051 684 1051 673Q1051 668 1048 656T1045 643Q1041 637 1008 637Q968 636 957 634T939 623Q936 618 867 340T797 59Q797 55 798 54T805 50T822 48T855 46H886Q892 37 892 35Q892 19 885 5Q880 0 869 0Q864 0 828 1T736 2Q675 2 644 2T609 1Q592 1 592 11Q592 13 594 25Q598 41 602 43T625 46Q652 46 685 49Q699 52 704 61Q706 65 742 207T813 490T848 631L654 322Q458 10 453 5Q451 4 449 3Q444 0 433 0Q418 0 415 7Q413 11 374 317L335 624L267 354Q200 88 200 79Q206 46 272 46H282Q288 41 289 37T286 19Q282 3 278 1Q274 0 267 0Q265 0 255 0T221 1T157 2Q127 2 95 1T58 0Q43 0 39 2T35 11Q35 13 38 25T43 40Q45 46 65 46Q135 46 154 86Q158 92 223 354T289 629Z"></path><path id="MJX-2-TEX-I-1D456" d="M184 600Q184 624 203 642T247 661Q265 661 277 649T290 619Q290 596 270 577T226 557Q211 557 198 567T184 600ZM21 287Q21 295 30 318T54 369T98 420T158 442Q197 442 223 419T250 357Q250 340 236 301T196 196T154 83Q149 61 149 51Q149 26 166 26Q175 26 185 29T208 43T235 78T260 137Q263 149 265 151T282 153Q302 153 302 143Q302 135 293 112T268 61T223 11T161 -11Q129 -11 102 10T74 74Q74 91 79 106T122 220Q160 321 166 341T173 380Q173 404 156 404H154Q124 404 99 371T61 287Q60 286 59 284T58 281T56 279T53 278T49 278T41 278H27Q21 284 21 287Z"></path><path id="MJX-2-TEX-I-1D457" d="M297 596Q297 627 318 644T361 661Q378 661 389 651T403 623Q403 595 384 576T340 557Q322 557 310 567T297 596ZM288 376Q288 405 262 405Q240 405 220 393T185 362T161 325T144 293L137 279Q135 278 121 278H107Q101 284 101 286T105 299Q126 348 164 391T252 441Q253 441 260 441T272 442Q296 441 316 432Q341 418 354 401T367 348V332L318 133Q267 -67 264 -75Q246 -125 194 -164T75 -204Q25 -204 7 -183T-12 -137Q-12 -110 7 -91T53 -71Q70 -71 82 -81T95 -112Q95 -148 63 -167Q69 -168 77 -168Q111 -168 139 -140T182 -74L193 -32Q204 11 219 72T251 197T278 308T289 365Q289 372 288 376Z"></path><path id="MJX-2-TEX-N-3D" d="M56 347Q56 360 70 367H707Q722 359 722 347Q722 336 708 328L390 327H72Q56 332 56 347ZM56 153Q56 168 72 173H708Q722 163 722 153Q722 140 707 133H70Q56 140 56 153Z"></path><path id="MJX-2-TEX-N-63" d="M370 305T349 305T313 320T297 358Q297 381 312 396Q317 401 317 402T307 404Q281 408 258 408Q209 408 178 376Q131 329 131 219Q131 137 162 90Q203 29 272 29Q313 29 338 55T374 117Q376 125 379 127T395 129H409Q415 123 415 120Q415 116 411 104T395 71T366 33T318 2T249 -11Q163 -11 99 53T34 214Q34 318 99 383T250 448T370 421T404 357Q404 334 387 320Z"></path><path id="MJX-2-TEX-N-6F" d="M28 214Q28 309 93 378T250 448Q340 448 405 380T471 215Q471 120 407 55T250 -10Q153 -10 91 57T28 214ZM250 30Q372 30 372 193V225V250Q372 272 371 288T364 326T348 362T317 390T268 410Q263 411 252 411Q222 411 195 399Q152 377 139 338T126 246V226Q126 130 145 91Q177 30 250 30Z"></path><path id="MJX-2-TEX-N-73" d="M295 316Q295 356 268 385T190 414Q154 414 128 401Q98 382 98 349Q97 344 98 336T114 312T157 287Q175 282 201 278T245 269T277 256Q294 248 310 236T342 195T359 133Q359 71 321 31T198 -10H190Q138 -10 94 26L86 19L77 10Q71 4 65 -1L54 -11H46H42Q39 -11 33 -5V74V132Q33 153 35 157T45 162H54Q66 162 70 158T75 146T82 119T101 77Q136 26 198 26Q295 26 295 104Q295 133 277 151Q257 175 194 187T111 210Q75 227 54 256T33 318Q33 357 50 384T93 424T143 442T187 447H198Q238 447 268 432L283 424L292 431Q302 440 314 448H322H326Q329 448 335 442V310L329 304H301Q295 310 295 316Z"></path><path id="MJX-2-TEX-N-2061" d=""></path><path id="MJX-2-TEX-LO-28" d="M180 96T180 250T205 541T266 770T353 944T444 1069T527 1150H555Q561 1144 561 1141Q561 1137 545 1120T504 1072T447 995T386 878T330 721T288 513T272 251Q272 133 280 56Q293 -87 326 -209T399 -405T475 -531T536 -609T561 -640Q561 -643 555 -649H527Q483 -612 443 -568T353 -443T266 -270T205 -41Z"></path><path id="MJX-2-TEX-B-1D430" d="M624 444Q636 441 722 441Q797 441 800 444H805V382H741L593 11Q592 10 590 8T586 4T584 2T581 0T579 -2T575 -3T571 -3T567 -4T561 -4T553 -4H542Q525 -4 518 6T490 70Q474 110 463 137L415 257L367 137Q357 111 341 72Q320 17 313 7T289 -4H277Q259 -4 253 -2T238 11L90 382H25V444H32Q47 441 140 441Q243 441 261 444H270V382H222L310 164L382 342L366 382H303V444H310Q322 441 407 441Q508 441 523 444H531V382H506Q481 382 481 380Q482 376 529 259T577 142L674 382H617V444H624Z"></path><path id="MJX-2-TEX-N-20D7" d="M377 694Q377 702 382 708T397 714Q404 714 409 709Q414 705 419 690Q429 653 460 633Q471 626 471 615Q471 606 468 603T454 594Q411 572 379 531Q377 529 374 525T369 519T364 517T357 516Q350 516 344 521T337 536Q337 555 384 595H213L42 596Q29 605 29 615Q29 622 42 635H401Q377 673 377 694Z"></path><path id="MJX-2-TEX-N-2299" d="M56 250Q56 394 156 488T384 583Q530 583 626 485T722 250Q722 110 625 14T390 -83Q249 -83 153 14T56 250ZM682 250Q682 322 649 387T546 497T381 542Q272 542 184 459T95 250Q95 132 178 45T389 -42Q515 -42 598 45T682 250ZM311 250Q311 285 332 304T375 328Q376 328 382 328T392 329Q424 326 445 305T466 250Q466 217 445 195T389 172Q354 172 333 195T311 250Z"></path><path id="MJX-2-TEX-I-210E" d="M137 683Q138 683 209 688T282 694Q294 694 294 685Q294 674 258 534Q220 386 220 383Q220 381 227 388Q288 442 357 442Q411 442 444 415T478 336Q478 285 440 178T402 50Q403 36 407 31T422 26Q450 26 474 56T513 138Q516 149 519 151T535 153Q555 153 555 145Q555 144 551 130Q535 71 500 33Q466 -10 419 -10H414Q367 -10 346 17T325 74Q325 90 361 192T398 345Q398 404 354 404H349Q266 404 205 306L198 293L164 158Q132 28 127 16Q114 -11 83 -11Q69 -11 59 -2T48 16Q48 30 121 320L195 616Q195 629 188 632T149 637H128Q122 643 122 645T124 664Q129 683 137 683Z"></path><path id="MJX-2-TEX-N-2C" d="M78 35T78 60T94 103T137 121Q165 121 187 96T210 8Q210 -27 201 -60T180 -117T154 -158T130 -185T117 -194Q113 -194 104 -185T95 -172Q95 -168 106 -156T131 -126T157 -76T173 -3V9L172 8Q170 7 167 6T161 3T152 1T140 0Q113 0 96 17Z"></path><path id="MJX-2-TEX-LO-29" d="M35 1138Q35 1150 51 1150H56H69Q113 1113 153 1069T243 944T330 771T391 541T416 250T391 -40T330 -270T243 -443T152 -568T69 -649H56Q43 -649 39 -647T35 -637Q65 -607 110 -548Q283 -316 316 56Q324 133 324 251Q324 368 316 445Q278 877 48 1123Q36 1137 35 1138Z"></path></defs><g stroke="currentColor" fill="currentColor" stroke-width="0" transform="matrix(1 0 0 -1 0 0)"><g data-mml-node="math"><g data-mml-node="msub"><g data-mml-node="mi"><use xlink:href="#MJX-2-TEX-I-1D440"></use></g><g data-mml-node="TeXAtom" transform="translate(970, -150) scale(0.707)" data-mjx-texclass="ORD"><g data-mml-node="mi"><use xlink:href="#MJX-2-TEX-I-1D456"></use></g><g data-mml-node="mi" transform="translate(345, 0)"><use xlink:href="#MJX-2-TEX-I-1D457"></use></g></g></g><g data-mml-node="mo" transform="translate(1833.1, 0)"><use xlink:href="#MJX-2-TEX-N-3D"></use></g><g data-mml-node="mi" transform="translate(2888.8, 0)"><use xlink:href="#MJX-2-TEX-N-63"></use><use xlink:href="#MJX-2-TEX-N-6F" transform="translate(444, 0)"></use><use xlink:href="#MJX-2-TEX-N-73" transform="translate(944, 0)"></use></g><g data-mml-node="mo" transform="translate(4226.8, 0)"><use xlink:href="#MJX-2-TEX-N-2061"></use></g><g data-mml-node="mrow" transform="translate(4226.8, 0)"><g data-mml-node="mo"><use xlink:href="#MJX-2-TEX-LO-28"></use></g><g data-mml-node="mover" transform="translate(597, 0)"><g data-mml-node="TeXAtom" data-mjx-texclass="ORD"><g data-mml-node="mi"><use xlink:href="#MJX-2-TEX-B-1D430"></use></g></g><g data-mml-node="mo" transform="translate(165.5, -12)"><use xlink:href="#MJX-2-TEX-N-20D7"></use></g></g><g data-mml-node="mo" transform="translate(1650.2, 0)"><use xlink:href="#MJX-2-TEX-N-2299"></use></g><g data-mml-node="msub" transform="translate(2650.4, 0)"><g data-mml-node="TeXAtom" data-mjx-texclass="ORD"><g data-mml-node="mover"><g data-mml-node="mi"><use xlink:href="#MJX-2-TEX-I-210E"></use></g><g data-mml-node="mo" transform="translate(10.2, 238)"><use xlink:href="#MJX-2-TEX-N-20D7"></use></g></g></g><g data-mml-node="TeXAtom" transform="translate(576, -150) scale(0.707)" data-mjx-texclass="ORD"><g data-mml-node="mi"><use xlink:href="#MJX-2-TEX-I-1D456"></use></g></g></g><g data-mml-node="mo" transform="translate(3520.4, 0)"><use xlink:href="#MJX-2-TEX-N-2C"></use></g><g data-mml-node="mover" transform="translate(3965.1, 0)"><g data-mml-node="TeXAtom" data-mjx-texclass="ORD"><g data-mml-node="mi"><use xlink:href="#MJX-2-TEX-B-1D430"></use></g></g><g data-mml-node="mo" transform="translate(165.5, -12)"><use xlink:href="#MJX-2-TEX-N-20D7"></use></g></g><g data-mml-node="mo" transform="translate(5018.3, 0)"><use xlink:href="#MJX-2-TEX-N-2299"></use></g><g data-mml-node="msub" transform="translate(6018.5, 0)"><g data-mml-node="TeXAtom" data-mjx-texclass="ORD"><g data-mml-node="mover"><g data-mml-node="mi"><use xlink:href="#MJX-2-TEX-I-210E"></use></g><g data-mml-node="mo" transform="translate(10.2, 238)"><use xlink:href="#MJX-2-TEX-N-20D7"></use></g></g></g><g data-mml-node="TeXAtom" transform="translate(576, -150) scale(0.707)" data-mjx-texclass="ORD"><g data-mml-node="mi"><use xlink:href="#MJX-2-TEX-I-1D457"></use></g></g></g><g data-mml-node="mo" transform="translate(6935.8, 0)"><use xlink:href="#MJX-2-TEX-LO-29"></use></g></g></g></g></svg>