<?xml version="1.0" encoding="UTF-8" standalone="no" ?>
<svg xmlns="http://www.w3.org/2000/svg" width="13.186ex" height="2.76ex" viewBox="0 -965 5828.2 1219.8" xmlns:xlink="http://www.w3.org/1999/xlink" aria-hidden="true" style=""><defs><path id="MJX-22-TEX-BI-1D486" d="M260 -8Q196 -8 151 9T83 54T52 111T42 169Q42 188 44 210Q50 240 58 266Q127 434 335 451L338 452Q342 452 345 452Q347 452 353 452T363 451Q426 451 464 424T502 352Q502 289 442 250Q381 211 222 211H184Q184 210 181 196T175 162T171 126Q171 43 264 43Q391 43 457 105Q472 120 480 117Q486 114 497 102T509 83Q509 79 502 70T477 47T432 21T360 1T260 -8ZM237 262Q427 266 427 349Q427 368 409 384T354 401Q316 401 287 388T242 354T216 314T202 278L197 263Q197 262 237 262Z"></path><path id="MJX-22-TEX-N-2DC" d="M179 601Q164 601 151 595T131 584T111 565L97 577L83 588Q83 589 95 603T121 633T142 654Q165 668 187 668T253 650T320 632Q335 632 348 638T368 649T388 668L402 656L416 645Q375 586 344 572Q330 565 313 565Q292 565 248 583T179 601Z"></path><path id="MJX-22-TEX-I-1D45B" d="M21 287Q22 293 24 303T36 341T56 388T89 425T135 442Q171 442 195 424T225 390T231 369Q231 367 232 367L243 378Q304 442 382 442Q436 442 469 415T503 336T465 179T427 52Q427 26 444 26Q450 26 453 27Q482 32 505 65T540 145Q542 153 560 153Q580 153 580 145Q580 144 576 130Q568 101 554 73T508 17T439 -10Q392 -10 371 17T350 73Q350 92 386 193T423 345Q423 404 379 404H374Q288 404 229 303L222 291L189 157Q156 26 151 16Q138 -11 108 -11Q95 -11 87 -5T76 7T74 17Q74 30 112 180T152 343Q153 348 153 366Q153 405 129 405Q91 405 66 305Q60 285 60 284Q58 278 41 278H27Q21 284 21 287Z"></path><path id="MJX-22-TEX-I-1D456" d="M184 600Q184 624 203 642T247 661Q265 661 277 649T290 619Q290 596 270 577T226 557Q211 557 198 567T184 600ZM21 287Q21 295 30 318T54 369T98 420T158 442Q197 442 223 419T250 357Q250 340 236 301T196 196T154 83Q149 61 149 51Q149 26 166 26Q175 26 185 29T208 43T235 78T260 137Q263 149 265 151T282 153Q302 153 302 143Q302 135 293 112T268 61T223 11T161 -11Q129 -11 102 10T74 74Q74 91 79 106T122 220Q160 321 166 341T173 380Q173 404 156 404H154Q124 404 99 371T61 287Q60 286 59 284T58 281T56 279T53 278T49 278T41 278H27Q21 284 21 287Z"></path><path id="MJX-22-TEX-N-3D" d="M56 347Q56 360 70 367H707Q722 359 722 347Q722 336 708 328L390 327H72Q56 332 56 347ZM56 153Q56 168 72 173H708Q722 163 722 153Q722 140 707 133H70Q56 140 56 153Z"></path><path id="MJX-22-TEX-BI-1D46C" d="M257 618H231Q198 618 198 636Q202 672 214 678L219 680H811Q817 677 820 673T824 666L825 664Q825 659 814 549T799 433Q793 424 771 424Q752 424 746 427T740 441Q740 445 742 466T744 505Q744 561 722 585T646 616Q639 617 545 618H456Q456 617 427 502T398 385Q398 384 435 384Q461 385 471 385T499 391T526 405T545 433T562 478Q566 494 571 497T595 501H604Q622 501 626 486Q626 482 593 349T557 213Q552 205 530 205Q499 205 499 219Q499 222 503 242T508 281Q508 308 491 314T429 322Q425 322 423 322H382L317 64Q317 62 390 62Q460 62 493 64T569 80T640 124Q665 149 686 187T719 253T733 283Q739 289 760 289Q791 289 791 274Q791 267 763 201T706 71L678 8Q676 4 667 0H58Q47 5 43 15Q47 54 60 60Q64 62 113 62H162L163 66Q163 67 231 341T301 616Q301 618 257 618Z"></path><path id="MJX-22-TEX-SO-2DC" d="M374 597Q337 597 269 627T160 658Q101 658 34 606L24 597L12 611Q1 624 1 626Q1 627 27 648T55 671Q120 722 182 722Q219 722 286 692T395 661Q454 661 521 713L531 722L543 708Q554 695 554 693Q554 692 528 671T500 648Q434 597 374 597Z"></path><path id="MJX-22-TEX-BI-1D479" d="M258 624H235Q214 624 209 626T199 639Q203 678 216 684Q220 686 422 686H446H525Q634 686 698 674T806 620Q843 583 843 535Q843 505 833 478T805 432T768 396T728 370T690 352T662 342L651 338L654 336Q658 334 667 327T688 310Q719 278 719 237Q719 222 710 165T701 94Q701 35 748 35Q775 35 793 57T819 101Q822 112 826 114T843 117H849Q881 117 881 99Q881 78 852 39T781 -11Q765 -17 728 -17Q537 -13 537 94Q537 110 552 169T567 243Q567 292 529 309Q517 316 508 316T441 318H375L374 314Q374 312 343 189T311 64Q311 62 355 62H382Q414 62 414 44Q410 6 397 2L393 0L351 1Q325 2 221 2Q147 2 108 1T65 0Q48 0 43 15Q47 54 60 60Q64 62 113 62H162L302 623Q302 624 258 624ZM687 555Q687 617 589 623Q581 624 513 624H451L420 498Q413 468 405 436T392 388L388 371Q388 369 458 369Q464 369 485 369T515 369T541 372T570 377T596 386T624 400Q649 417 664 457T683 522T687 555Z"></path><path id="MJX-22-TEX-I-1D453" d="M118 -162Q120 -162 124 -164T135 -167T147 -168Q160 -168 171 -155T187 -126Q197 -99 221 27T267 267T289 382V385H242Q195 385 192 387Q188 390 188 397L195 425Q197 430 203 430T250 431Q298 431 298 432Q298 434 307 482T319 540Q356 705 465 705Q502 703 526 683T550 630Q550 594 529 578T487 561Q443 561 443 603Q443 622 454 636T478 657L487 662Q471 668 457 668Q445 668 434 658T419 630Q412 601 403 552T387 469T380 433Q380 431 435 431Q480 431 487 430T498 424Q499 420 496 407T491 391Q489 386 482 386T428 385H372L349 263Q301 15 282 -47Q255 -132 212 -173Q175 -205 139 -205Q107 -205 81 -186T55 -132Q55 -95 76 -78T118 -61Q162 -61 162 -103Q162 -122 151 -136T127 -157L118 -162Z"></path></defs><g stroke="currentColor" fill="currentColor" stroke-width="0" transform="matrix(1 0 0 -1 0 0)"><g data-mml-node="math"><g data-mml-node="msubsup"><g data-mml-node="TeXAtom" data-mjx-texclass="ORD"><g data-mml-node="mover"><g data-mml-node="mi"><use xlink:href="#MJX-22-TEX-BI-1D486"></use></g><g data-mml-node="mo" transform="translate(90.9, -53)"><use xlink:href="#MJX-22-TEX-N-2DC"></use></g></g></g><g data-mml-node="TeXAtom" transform="translate(590.9, 442.1) scale(0.707)" data-mjx-texclass="ORD"><g data-mml-node="mi"><use xlink:href="#MJX-22-TEX-I-1D45B"></use></g></g><g data-mml-node="TeXAtom" transform="translate(590.9, -247) scale(0.707)" data-mjx-texclass="ORD"><g data-mml-node="mi"><use xlink:href="#MJX-22-TEX-I-1D456"></use></g></g></g><g data-mml-node="mo" transform="translate(1342.9, 0)"><use xlink:href="#MJX-22-TEX-N-3D"></use></g><g data-mml-node="msub" transform="translate(2398.7, 0)"><g data-mml-node="TeXAtom" data-mjx-texclass="ORD"><g data-mml-node="mover"><g data-mml-node="mi"><use xlink:href="#MJX-22-TEX-BI-1D46C"></use></g><g data-mml-node="mo" transform="translate(241.5, 143)"><use xlink:href="#MJX-22-TEX-SO-2DC"></use></g></g></g><g data-mml-node="TeXAtom" transform="translate(825, -150) scale(0.707)" data-mjx-texclass="ORD"><g data-mml-node="mi"><use xlink:href="#MJX-22-TEX-I-1D45B"></use></g></g></g><g data-mml-node="msup" transform="translate(3698, 0)"><g data-mml-node="mi"><use xlink:href="#MJX-22-TEX-BI-1D479"></use></g><g data-mml-node="TeXAtom" transform="translate(872, 413) scale(0.707)" data-mjx-texclass="ORD"><g data-mml-node="mi"><use xlink:href="#MJX-22-TEX-I-1D45B"></use></g></g></g><g data-mml-node="msub" transform="translate(5044.2, 0)"><g data-mml-node="mi"><use xlink:href="#MJX-22-TEX-I-1D453"></use></g><g data-mml-node="TeXAtom" transform="translate(490, -150) scale(0.707)" data-mjx-texclass="ORD"><g data-mml-node="mi"><use xlink:href="#MJX-22-TEX-I-1D456"></use></g></g></g></g></g></svg>