<?xml version="1.0" encoding="UTF-8" standalone="no" ?>
<svg xmlns="http://www.w3.org/2000/svg" width="66.503ex" height="15.776ex" viewBox="0 -3736.6 29394.4 6973.1" xmlns:xlink="http://www.w3.org/1999/xlink" aria-hidden="true" style=""><defs><path id="MJX-28-TEX-N-6D" d="M41 46H55Q94 46 102 60V68Q102 77 102 91T102 122T103 161T103 203Q103 234 103 269T102 328V351Q99 370 88 376T43 385H25V408Q25 431 27 431L37 432Q47 433 65 434T102 436Q119 437 138 438T167 441T178 442H181V402Q181 364 182 364T187 369T199 384T218 402T247 421T285 437Q305 442 336 442Q351 442 364 440T387 434T406 426T421 417T432 406T441 395T448 384T452 374T455 366L457 361L460 365Q463 369 466 373T475 384T488 397T503 410T523 422T546 432T572 439T603 442Q729 442 740 329Q741 322 741 190V104Q741 66 743 59T754 49Q775 46 803 46H819V0H811L788 1Q764 2 737 2T699 3Q596 3 587 0H579V46H595Q656 46 656 62Q657 64 657 200Q656 335 655 343Q649 371 635 385T611 402T585 404Q540 404 506 370Q479 343 472 315T464 232V168V108Q464 78 465 68T468 55T477 49Q498 46 526 46H542V0H534L510 1Q487 2 460 2T422 3Q319 3 310 0H302V46H318Q379 46 379 62Q380 64 380 200Q379 335 378 343Q372 371 358 385T334 402T308 404Q263 404 229 370Q202 343 195 315T187 232V168V108Q187 78 188 68T191 55T200 49Q221 46 249 46H265V0H257L234 1Q210 2 183 2T145 3Q42 3 33 0H25V46H41Z"></path><path id="MJX-28-TEX-N-69" d="M69 609Q69 637 87 653T131 669Q154 667 171 652T188 609Q188 579 171 564T129 549Q104 549 87 564T69 609ZM247 0Q232 3 143 3Q132 3 106 3T56 1L34 0H26V46H42Q70 46 91 49Q100 53 102 60T104 102V205V293Q104 345 102 359T88 378Q74 385 41 385H30V408Q30 431 32 431L42 432Q52 433 70 434T106 436Q123 437 142 438T171 441T182 442H185V62Q190 52 197 50T232 46H255V0H247Z"></path><path id="MJX-28-TEX-N-6E" d="M41 46H55Q94 46 102 60V68Q102 77 102 91T102 122T103 161T103 203Q103 234 103 269T102 328V351Q99 370 88 376T43 385H25V408Q25 431 27 431L37 432Q47 433 65 434T102 436Q119 437 138 438T167 441T178 442H181V402Q181 364 182 364T187 369T199 384T218 402T247 421T285 437Q305 442 336 442Q450 438 463 329Q464 322 464 190V104Q464 66 466 59T477 49Q498 46 526 46H542V0H534L510 1Q487 2 460 2T422 3Q319 3 310 0H302V46H318Q379 46 379 62Q380 64 380 200Q379 335 378 343Q372 371 358 385T334 402T308 404Q263 404 229 370Q202 343 195 315T187 232V168V108Q187 78 188 68T191 55T200 49Q221 46 249 46H265V0H257L234 1Q210 2 183 2T145 3Q42 3 33 0H25V46H41Z"></path><path id="MJX-28-TEX-C-4C" d="M62 -22T47 -22T32 -11Q32 -1 56 24T83 55Q113 96 138 172T180 320T234 473T323 609Q364 649 419 677T531 705Q559 705 578 696T604 671T615 645T618 623V611Q618 582 615 571T598 548Q581 531 558 520T518 509Q503 509 503 520Q503 523 505 536T507 560Q507 590 494 610T452 630Q423 630 410 617Q367 578 333 492T271 301T233 170Q211 123 204 112L198 103L224 102Q281 102 369 79T509 52H523Q535 64 544 87T579 128Q616 152 641 152Q656 152 656 142Q656 101 588 40T433 -22Q381 -22 289 1T156 28L141 29L131 20Q111 0 87 -11Z"></path><path id="MJX-28-TEX-N-3D" d="M56 347Q56 360 70 367H707Q722 359 722 347Q722 336 708 328L390 327H72Q56 332 56 347ZM56 153Q56 168 72 173H708Q722 163 722 153Q722 140 707 133H70Q56 140 56 153Z"></path><path id="MJX-28-TEX-N-2212" d="M84 237T84 250T98 270H679Q694 262 694 250T679 230H98Q84 237 84 250Z"></path><path id="MJX-28-TEX-N-6C" d="M42 46H56Q95 46 103 60V68Q103 77 103 91T103 124T104 167T104 217T104 272T104 329Q104 366 104 407T104 482T104 542T103 586T103 603Q100 622 89 628T44 637H26V660Q26 683 28 683L38 684Q48 685 67 686T104 688Q121 689 141 690T171 693T182 694H185V379Q185 62 186 60Q190 52 198 49Q219 46 247 46H263V0H255L232 1Q209 2 183 2T145 3T107 3T57 1L34 0H26V46H42Z"></path><path id="MJX-28-TEX-N-6F" d="M28 214Q28 309 93 378T250 448Q340 448 405 380T471 215Q471 120 407 55T250 -10Q153 -10 91 57T28 214ZM250 30Q372 30 372 193V225V250Q372 272 371 288T364 326T348 362T317 390T268 410Q263 411 252 411Q222 411 195 399Q152 377 139 338T126 246V226Q126 130 145 91Q177 30 250 30Z"></path><path id="MJX-28-TEX-N-67" d="M329 409Q373 453 429 453Q459 453 472 434T485 396Q485 382 476 371T449 360Q416 360 412 390Q410 404 415 411Q415 412 416 414V415Q388 412 363 393Q355 388 355 386Q355 385 359 381T368 369T379 351T388 325T392 292Q392 230 343 187T222 143Q172 143 123 171Q112 153 112 133Q112 98 138 81Q147 75 155 75T227 73Q311 72 335 67Q396 58 431 26Q470 -13 470 -72Q470 -139 392 -175Q332 -206 250 -206Q167 -206 107 -175Q29 -140 29 -75Q29 -39 50 -15T92 18L103 24Q67 55 67 108Q67 155 96 193Q52 237 52 292Q52 355 102 398T223 442Q274 442 318 416L329 409ZM299 343Q294 371 273 387T221 404Q192 404 171 388T145 343Q142 326 142 292Q142 248 149 227T179 192Q196 182 222 182Q244 182 260 189T283 207T294 227T299 242Q302 258 302 292T299 343ZM403 -75Q403 -50 389 -34T348 -11T299 -2T245 0H218Q151 0 138 -6Q118 -15 107 -34T95 -74Q95 -84 101 -97T122 -127T170 -155T250 -167Q319 -167 361 -139T403 -75Z"></path><path id="MJX-28-TEX-N-2061" d=""></path><path id="MJX-28-TEX-N-28" d="M94 250Q94 319 104 381T127 488T164 576T202 643T244 695T277 729T302 750H315H319Q333 750 333 741Q333 738 316 720T275 667T226 581T184 443T167 250T184 58T225 -81T274 -167T316 -220T333 -241Q333 -250 318 -250H315H302L274 -226Q180 -141 137 -14T94 250Z"></path><path id="MJX-28-TEX-I-1D45D" d="M23 287Q24 290 25 295T30 317T40 348T55 381T75 411T101 433T134 442Q209 442 230 378L240 387Q302 442 358 442Q423 442 460 395T497 281Q497 173 421 82T249 -10Q227 -10 210 -4Q199 1 187 11T168 28L161 36Q160 35 139 -51T118 -138Q118 -144 126 -145T163 -148H188Q194 -155 194 -157T191 -175Q188 -187 185 -190T172 -194Q170 -194 161 -194T127 -193T65 -192Q-5 -192 -24 -194H-32Q-39 -187 -39 -183Q-37 -156 -26 -148H-6Q28 -147 33 -136Q36 -130 94 103T155 350Q156 355 156 364Q156 405 131 405Q109 405 94 377T71 316T59 280Q57 278 43 278H29Q23 284 23 287ZM178 102Q200 26 252 26Q282 26 310 49T356 107Q374 141 392 215T411 325V331Q411 405 350 405Q339 405 328 402T306 393T286 380T269 365T254 350T243 336T235 326L232 322Q232 321 229 308T218 264T204 212Q178 106 178 102Z"></path><path id="MJX-28-TEX-N-59" d="M518 0Q497 3 374 3Q253 3 232 0H221V46H254Q313 47 321 58Q324 62 324 167V273L221 446Q117 620 114 623Q106 631 91 634T31 637H11V683H20Q29 680 148 680Q273 680 294 683H305V637H287Q239 636 236 621Q236 619 321 475L407 332L483 460Q502 492 527 534Q563 594 563 604Q563 632 517 637H508V683H517H525Q533 683 545 683T571 682T600 681T626 681Q695 681 731 683H738V637H723Q640 633 613 588Q612 587 517 427L425 273V169V95Q425 66 428 59T444 49Q459 46 506 46H528V0H518Z"></path><path id="MJX-28-TEX-N-2223" d="M139 -249H137Q125 -249 119 -235V251L120 737Q130 750 139 750Q152 750 159 735V-235Q151 -249 141 -249H139Z"></path><path id="MJX-28-TEX-N-398" d="M56 340Q56 423 86 494T164 610T270 680T388 705Q521 705 621 601T722 341Q722 260 693 191T617 75T510 4T388 -22T267 3T160 74T85 189T56 340ZM610 339Q610 428 590 495T535 598T463 651T384 668Q332 668 289 638T221 566Q168 485 168 339Q168 274 176 235Q189 158 228 105T324 28Q356 16 388 16Q415 16 442 24T501 54T555 111T594 205T610 339ZM223 263V422H263V388H514V422H554V263H514V297H263V263H223Z"></path><path id="MJX-28-TEX-N-2C" d="M78 35T78 60T94 103T137 121Q165 121 187 96T210 8Q210 -27 201 -60T180 -117T154 -158T130 -185T117 -194Q113 -194 104 -185T95 -172Q95 -168 106 -156T131 -126T157 -76T173 -3V9L172 8Q170 7 167 6T161 3T152 1T140 0Q113 0 96 17Z"></path><path id="MJX-28-TEX-C-47" d="M216 68Q155 68 115 100T59 177T44 273Q44 299 50 333T73 421T133 533T239 632Q346 704 466 704Q508 704 515 703Q555 696 577 681T599 635Q599 605 570 560T523 496Q490 466 455 466Q440 466 440 475T469 526T499 589Q499 605 489 617Q460 636 403 636Q343 636 295 611T220 548T174 464T150 382T144 318Q144 241 180 189T287 137Q325 137 359 160Q428 205 466 322Q472 342 501 359T551 376Q557 376 560 373T564 368L565 365Q560 341 551 302T512 173T451 31Q359 -119 204 -119Q163 -118 127 -109T74 -91T53 -77Q52 -75 52 -71Q52 -54 79 -35T132 -14H140L151 -19Q210 -49 281 -49H289Q312 -49 329 -31Q351 -7 372 36T405 109T416 142L408 136Q401 131 392 125T369 111T338 96T303 82T261 72T216 68Z"></path><path id="MJX-28-TEX-N-29" d="M60 749L64 750Q69 750 74 750H86L114 726Q208 641 251 514T294 250Q294 182 284 119T261 12T224 -76T186 -143T145 -194T113 -227T90 -246Q87 -249 86 -250H74Q66 -250 63 -250T58 -247T55 -238Q56 -237 66 -225Q221 -64 221 250T66 725Q56 737 55 738Q55 746 60 749Z"></path><path id="MJX-28-TEX-N-22C5" d="M78 250Q78 274 95 292T138 310Q162 310 180 294T199 251Q199 226 182 208T139 190T96 207T78 250Z"></path><path id="MJX-28-TEX-LO-2211" d="M60 948Q63 950 665 950H1267L1325 815Q1384 677 1388 669H1348L1341 683Q1320 724 1285 761Q1235 809 1174 838T1033 881T882 898T699 902H574H543H251L259 891Q722 258 724 252Q725 250 724 246Q721 243 460 -56L196 -356Q196 -357 407 -357Q459 -357 548 -357T676 -358Q812 -358 896 -353T1063 -332T1204 -283T1307 -196Q1328 -170 1348 -124H1388Q1388 -125 1381 -145T1356 -210T1325 -294L1267 -449L666 -450Q64 -450 61 -448Q55 -446 55 -439Q55 -437 57 -433L590 177Q590 178 557 222T452 366T322 544L56 909L55 924Q55 945 60 948Z"></path><path id="MJX-28-TEX-I-1D462" d="M21 287Q21 295 30 318T55 370T99 420T158 442Q204 442 227 417T250 358Q250 340 216 246T182 105Q182 62 196 45T238 27T291 44T328 78L339 95Q341 99 377 247Q407 367 413 387T427 416Q444 431 463 431Q480 431 488 421T496 402L420 84Q419 79 419 68Q419 43 426 35T447 26Q469 29 482 57T512 145Q514 153 532 153Q551 153 551 144Q550 139 549 130T540 98T523 55T498 17T462 -8Q454 -10 438 -10Q372 -10 347 46Q345 45 336 36T318 21T296 6T267 -6T233 -11Q189 -11 155 7Q103 38 103 113Q103 170 138 262T173 379Q173 380 173 381Q173 390 173 393T169 400T158 404H154Q131 404 112 385T82 344T65 302T57 280Q55 278 41 278H27Q21 284 21 287Z"></path><path id="MJX-28-TEX-I-1D463" d="M173 380Q173 405 154 405Q130 405 104 376T61 287Q60 286 59 284T58 281T56 279T53 278T49 278T41 278H27Q21 284 21 287Q21 294 29 316T53 368T97 419T160 441Q202 441 225 417T249 361Q249 344 246 335Q246 329 231 291T200 202T182 113Q182 86 187 69Q200 26 250 26Q287 26 319 60T369 139T398 222T409 277Q409 300 401 317T383 343T365 361T357 383Q357 405 376 424T417 443Q436 443 451 425T467 367Q467 340 455 284T418 159T347 40T241 -11Q177 -11 139 22Q102 54 102 117Q102 148 110 181T151 298Q173 362 173 380Z"></path><path id="MJX-28-TEX-N-2208" d="M84 250Q84 372 166 450T360 539Q361 539 377 539T419 540T469 540H568Q583 532 583 520Q583 511 570 501L466 500Q355 499 329 494Q280 482 242 458T183 409T147 354T129 306T124 272V270H568Q583 262 583 250T568 230H124V228Q124 207 134 177T167 112T231 48T328 7Q355 1 466 0H570Q583 -10 583 -20Q583 -32 568 -40H471Q464 -40 446 -40T417 -41Q262 -41 172 45Q84 127 84 250Z"></path><path id="MJX-28-TEX-SO-28" d="M152 251Q152 646 388 850H416Q422 844 422 841Q422 837 403 816T357 753T302 649T255 482T236 250Q236 124 255 19T301 -147T356 -251T403 -315T422 -340Q422 -343 416 -349H388Q359 -325 332 -296T271 -213T212 -97T170 56T152 251Z"></path><path id="MJX-28-TEX-I-1D466" d="M21 287Q21 301 36 335T84 406T158 442Q199 442 224 419T250 355Q248 336 247 334Q247 331 231 288T198 191T182 105Q182 62 196 45T238 27Q261 27 281 38T312 61T339 94Q339 95 344 114T358 173T377 247Q415 397 419 404Q432 431 462 431Q475 431 483 424T494 412T496 403Q496 390 447 193T391 -23Q363 -106 294 -155T156 -205Q111 -205 77 -183T43 -117Q43 -95 50 -80T69 -58T89 -48T106 -45Q150 -45 150 -87Q150 -107 138 -122T115 -142T102 -147L99 -148Q101 -153 118 -160T152 -167H160Q177 -167 186 -165Q219 -156 247 -127T290 -65T313 -9T321 21L315 17Q309 13 296 6T270 -6Q250 -11 231 -11Q185 -11 150 11T104 82Q103 89 103 113Q103 170 138 262T173 379Q173 380 173 381Q173 390 173 393T169 400T158 404H154Q131 404 112 385T82 344T65 302T57 280Q55 278 41 278H27Q21 284 21 287Z"></path><path id="MJX-28-TEX-I-1D70E" d="M184 -11Q116 -11 74 34T31 147Q31 247 104 333T274 430Q275 431 414 431H552Q553 430 555 429T559 427T562 425T565 422T567 420T569 416T570 412T571 407T572 401Q572 357 507 357Q500 357 490 357T476 358H416L421 348Q439 310 439 263Q439 153 359 71T184 -11ZM361 278Q361 358 276 358Q152 358 115 184Q114 180 114 178Q106 141 106 117Q106 67 131 47T188 26Q242 26 287 73Q316 103 334 153T356 233T361 278Z"></path><path id="MJX-28-TEX-B-1D42E" d="M40 442L134 446Q228 450 229 450H235V273V165Q235 90 238 74T254 52Q268 46 304 46H319Q352 46 380 67T419 121L420 123Q424 135 425 199Q425 201 425 207Q425 233 425 249V316Q425 354 423 363T410 376Q396 380 369 380H356V442L554 450V267Q554 84 556 79Q561 62 610 62H623V31Q623 0 622 0Q603 0 527 -3T432 -6Q431 -6 431 25V56L420 45Q373 6 332 -1Q313 -6 281 -6Q208 -6 165 14T109 87L107 98L106 230Q106 358 104 366Q96 380 50 380H37V442H40Z"></path><path id="MJX-28-TEX-N-54" d="M36 443Q37 448 46 558T55 671V677H666V671Q667 666 676 556T685 443V437H645V443Q645 445 642 478T631 544T610 593Q593 614 555 625Q534 630 478 630H451H443Q417 630 414 618Q413 616 413 339V63Q420 53 439 50T528 46H558V0H545L361 3Q186 1 177 0H164V46H194Q264 46 283 49T309 63V339V550Q309 620 304 625T271 630H244H224Q154 630 119 601Q101 585 93 554T81 486T76 443V437H36V443Z"></path><path id="MJX-28-TEX-B-1D42F" d="M401 444Q413 441 495 441Q568 441 574 444H580V382H510L409 156Q348 18 339 6Q331 -4 320 -4Q318 -4 313 -4T303 -3H288Q273 -3 264 12T221 102Q206 135 197 156L96 382H26V444H34Q49 441 145 441Q252 441 270 444H279V382H231L284 264Q335 149 338 149Q338 150 389 264T442 381Q442 382 418 382H394V444H401Z"></path><path id="MJX-28-TEX-SO-29" d="M305 251Q305 -145 69 -349H56Q43 -349 39 -347T35 -338Q37 -333 60 -307T108 -239T160 -136T204 27T221 250T204 473T160 636T108 740T60 807T35 839Q35 850 50 850H56H69Q197 743 256 566Q305 425 305 251Z"></path><path id="MJX-28-TEX-N-2B" d="M56 237T56 250T70 270H369V420L370 570Q380 583 389 583Q402 583 409 568V270H707Q722 262 722 250T707 230H409V-68Q401 -82 391 -82H389H387Q375 -82 369 -68V230H70Q56 237 56 250Z"></path><path id="MJX-28-TEX-N-31" d="M213 578L200 573Q186 568 160 563T102 556H83V602H102Q149 604 189 617T245 641T273 663Q275 666 285 666Q294 666 302 660V361L303 61Q310 54 315 52T339 48T401 46H427V0H416Q395 3 257 3Q121 3 100 0H88V46H114Q136 46 152 46T177 47T193 50T201 52T207 57T213 61V578Z"></path><path id="MJX-28-TEX-I-1D706" d="M166 673Q166 685 183 694H202Q292 691 316 644Q322 629 373 486T474 207T524 67Q531 47 537 34T546 15T551 6T555 2T556 -2T550 -11H482Q457 3 450 18T399 152L354 277L340 262Q327 246 293 207T236 141Q211 112 174 69Q123 9 111 -1T83 -12Q47 -12 47 20Q47 37 61 52T199 187Q229 216 266 252T321 306L338 322Q338 323 288 462T234 612Q214 657 183 657Q166 657 166 673Z"></path><path id="MJX-28-TEX-N-32" d="M109 429Q82 429 66 447T50 491Q50 562 103 614T235 666Q326 666 387 610T449 465Q449 422 429 383T381 315T301 241Q265 210 201 149L142 93L218 92Q375 92 385 97Q392 99 409 186V189H449V186Q448 183 436 95T421 3V0H50V19V31Q50 38 56 46T86 81Q115 113 136 137Q145 147 170 174T204 211T233 244T261 278T284 308T305 340T320 369T333 401T340 431T343 464Q343 527 309 573T212 619Q179 619 154 602T119 569T109 550Q109 549 114 549Q132 549 151 535T170 489Q170 464 154 447T109 429Z"></path><path id="MJX-28-TEX-I-1D45F" d="M21 287Q22 290 23 295T28 317T38 348T53 381T73 411T99 433T132 442Q161 442 183 430T214 408T225 388Q227 382 228 382T236 389Q284 441 347 441H350Q398 441 422 400Q430 381 430 363Q430 333 417 315T391 292T366 288Q346 288 334 299T322 328Q322 376 378 392Q356 405 342 405Q286 405 239 331Q229 315 224 298T190 165Q156 25 151 16Q138 -11 108 -11Q95 -11 87 -5T76 7T74 17Q74 30 114 189T154 366Q154 405 128 405Q107 405 92 377T68 316T57 280Q55 278 41 278H27Q21 284 21 287Z"></path><path id="MJX-28-TEX-C-52" d="M37 475Q19 475 19 487Q19 503 35 530T83 589T180 647T327 682H374Q387 682 417 682T464 683Q519 683 559 679T642 663T708 625T731 557Q731 481 668 411T504 300Q506 296 512 286T528 257T553 202Q594 105 611 82Q635 47 665 47Q708 47 742 93Q758 113 786 128Q804 136 819 137Q837 137 837 125Q837 115 818 92T767 43T687 -2T589 -22Q549 -22 517 22T467 120T422 221T362 273Q346 273 346 287Q348 301 373 320T436 342Q437 342 446 343T462 345T481 348T504 353T527 362T553 375T577 393Q598 412 614 443T630 511Q630 545 613 566T541 600T393 614Q370 614 370 613L366 584Q349 446 311 307T243 96L213 25Q205 8 179 -7T132 -22Q125 -22 120 -18T117 -8Q117 -5 130 26T163 113T205 239T246 408T274 606V614Q273 614 259 613T231 609T198 602T163 588Q131 572 113 518Q102 502 80 490T37 475Z"></path><path id="MJX-28-TEX-S4-2225" d="M133 736Q138 750 153 750Q164 750 170 739Q172 735 172 250T170 -239Q164 -250 152 -250Q144 -250 138 -244L137 -243Q133 -241 133 -179T132 250Q132 731 133 736ZM329 739Q334 750 346 750Q353 750 361 744L362 743Q366 741 366 679T367 250T367 -178T362 -243L361 -244Q355 -250 347 -250Q335 -250 329 -239Q327 -235 327 250T329 739Z"></path><path id="MJX-28-TEX-B-1D408" d="M397 0Q370 3 218 3Q65 3 38 0H25V62H139V624H25V686H38Q65 683 218 683Q370 683 397 686H410V624H296V62H410V0H397Z"></path><path id="MJX-28-TEX-N-45" d="M128 619Q121 626 117 628T101 631T58 634H25V680H597V676Q599 670 611 560T625 444V440H585V444Q584 447 582 465Q578 500 570 526T553 571T528 601T498 619T457 629T411 633T353 634Q266 634 251 633T233 622Q233 622 233 621Q232 619 232 497V376H286Q359 378 377 385Q413 401 416 469Q416 471 416 473V493H456V213H416V233Q415 268 408 288T383 317T349 328T297 330Q290 330 286 330H232V196V114Q232 57 237 52Q243 47 289 47H340H391Q428 47 452 50T505 62T552 92T584 146Q594 172 599 200T607 247T612 270V273H652V270Q651 267 632 137T610 3V0H25V46H58Q100 47 109 49T128 61V619Z"></path><path id="MJX-28-TEX-B-1D411" d="M394 0Q370 3 222 3Q75 3 51 0H39V62H147V624H39V686H234Q256 686 299 686T362 687Q479 687 554 669T681 593Q716 550 716 497Q716 390 568 338Q569 337 572 336T577 332Q605 317 623 300T650 258T662 218T668 172Q678 98 689 76Q707 40 748 40Q770 40 780 54T795 88T801 111Q805 117 827 117H831Q846 117 852 113T858 92Q857 78 852 63T834 30T797 1T739 -11Q630 -11 580 12T511 87Q506 104 506 168Q506 170 506 178T507 194Q507 289 438 313Q424 318 356 318H298V62H406V0H394ZM366 369Q459 370 490 381Q548 402 548 476V498V517Q548 578 513 600Q479 624 392 624H358H298V369H366Z"></path><path id="MJX-28-TEX-B-1D404" d="M723 286Q721 284 700 145T677 3V0H39V62H147V618H39V680H660V676Q662 670 675 552T691 428V424H629V428Q629 429 627 448T618 494T601 541Q574 593 527 605T382 618H374H304V384H336Q338 384 347 384T361 384T376 386T392 390T407 397T421 407T432 423Q442 444 443 482V501H505V205H443V224Q442 258 435 278T411 307T380 318T336 322H304V62H375H394Q429 62 449 62T497 66T541 76T577 95T609 126T632 170T651 232Q661 287 661 289H723V286Z"></path><path id="MJX-28-TEX-S4-28" d="M758 -1237T758 -1240T752 -1249H736Q718 -1249 717 -1248Q711 -1245 672 -1199Q237 -706 237 251T672 1700Q697 1730 716 1749Q718 1750 735 1750H752Q758 1744 758 1741Q758 1737 740 1713T689 1644T619 1537T540 1380T463 1176Q348 802 348 251Q348 -242 441 -599T744 -1218Q758 -1237 758 -1240Z"></path><path id="MJX-28-TEX-N-2225" d="M133 736Q138 750 153 750Q164 750 170 739Q172 735 172 250T170 -239Q164 -250 152 -250Q144 -250 138 -244L137 -243Q133 -241 133 -179T132 250Q132 731 133 736ZM329 739Q334 750 346 750Q353 750 361 744L362 743Q366 741 366 679T367 250T367 -178T362 -243L361 -244Q355 -250 347 -250Q335 -250 329 -239Q327 -235 327 250T329 739Z"></path><path id="MJX-28-TEX-B-1D415" d="M592 686H604Q615 685 631 685T666 684T700 684T724 683Q829 683 835 686H843V624H744L611 315Q584 254 546 165Q492 40 482 19T461 -6L460 -7H409Q398 -4 391 9Q385 20 257 315L124 624H25V686H36Q57 683 190 683Q340 683 364 686H377V624H289L384 403L480 185L492 212Q504 240 529 298T575 405L670 624H582V686H592Z"></path><path id="MJX-28-TEX-S4-29" d="M33 1741Q33 1750 51 1750H60H65Q73 1750 81 1743T119 1700Q554 1207 554 251Q554 -707 119 -1199Q76 -1250 66 -1250Q65 -1250 62 -1250T56 -1249Q55 -1249 53 -1249T49 -1250Q33 -1250 33 -1239Q33 -1236 50 -1214T98 -1150T163 -1052T238 -910T311 -727Q443 -335 443 251Q443 402 436 532T405 831T339 1142T224 1438T50 1716Q33 1737 33 1741Z"></path></defs><g stroke="currentColor" fill="currentColor" stroke-width="0" transform="matrix(1 0 0 -1 0 0)"><g data-mml-node="math"><g data-mml-node="mtable"><g data-mml-node="mtr" transform="translate(0, 2986.6)"><g data-mml-node="mtd"><g data-mml-node="mo"><use xlink:href="#MJX-28-TEX-N-6D"></use><use xlink:href="#MJX-28-TEX-N-69" transform="translate(833, 0)"></use><use xlink:href="#MJX-28-TEX-N-6E" transform="translate(1111, 0)"></use></g><g data-mml-node="TeXAtom" data-mjx-texclass="ORD" transform="translate(1833.7, 0)"><g data-mml-node="mi"><use xlink:href="#MJX-28-TEX-C-4C"></use></g></g><g data-mml-node="mo" transform="translate(2801.4, 0)"><use xlink:href="#MJX-28-TEX-N-3D"></use></g></g><g data-mml-node="mtd" transform="translate(3579.4, 0)"><g data-mml-node="mi"></g><g data-mml-node="mo" transform="translate(222.2, 0)"><use xlink:href="#MJX-28-TEX-N-2212"></use></g><g data-mml-node="mi" transform="translate(1222.4, 0)"><use xlink:href="#MJX-28-TEX-N-6C"></use><use xlink:href="#MJX-28-TEX-N-6F" transform="translate(278, 0)"></use><use xlink:href="#MJX-28-TEX-N-67" transform="translate(778, 0)"></use></g><g data-mml-node="mo" transform="translate(2500.4, 0)"><use xlink:href="#MJX-28-TEX-N-2061"></use></g><g data-mml-node="mo" transform="translate(2500.4, 0)"><use xlink:href="#MJX-28-TEX-N-28"></use></g><g data-mml-node="mi" transform="translate(2889.4, 0)"><use xlink:href="#MJX-28-TEX-I-1D45D"></use></g><g data-mml-node="mo" transform="translate(3392.4, 0)"><use xlink:href="#MJX-28-TEX-N-28"></use></g><g data-mml-node="TeXAtom" data-mjx-texclass="ORD" transform="translate(3781.4, 0)"><g data-mml-node="mi"><use xlink:href="#MJX-28-TEX-N-59"></use></g></g><g data-mml-node="mo" transform="translate(4809.2, 0)"><use xlink:href="#MJX-28-TEX-N-2223"></use></g><g data-mml-node="mi" transform="translate(5365, 0)"><use xlink:href="#MJX-28-TEX-N-398"></use></g><g data-mml-node="mo" transform="translate(6143, 0)"><use xlink:href="#MJX-28-TEX-N-2C"></use></g><g data-mml-node="TeXAtom" data-mjx-texclass="ORD" transform="translate(6587.7, 0)"><g data-mml-node="mi"><use xlink:href="#MJX-28-TEX-C-47"></use></g></g><g data-mml-node="mo" transform="translate(7182.7, 0)"><use xlink:href="#MJX-28-TEX-N-29"></use></g><g data-mml-node="mo" transform="translate(7793.9, 0)"><use xlink:href="#MJX-28-TEX-N-22C5"></use></g><g data-mml-node="mi" transform="translate(8294.1, 0)"><use xlink:href="#MJX-28-TEX-I-1D45D"></use></g><g data-mml-node="mo" transform="translate(8797.1, 0)"><use xlink:href="#MJX-28-TEX-N-28"></use></g><g data-mml-node="TeXAtom" data-mjx-texclass="ORD" transform="translate(9186.1, 0)"><g data-mml-node="mi"><use xlink:href="#MJX-28-TEX-C-47"></use></g></g><g data-mml-node="mo" transform="translate(10058.9, 0)"><use xlink:href="#MJX-28-TEX-N-2223"></use></g><g data-mml-node="mi" transform="translate(10614.7, 0)"><use xlink:href="#MJX-28-TEX-N-398"></use></g><g data-mml-node="mo" transform="translate(11392.7, 0)"><use xlink:href="#MJX-28-TEX-N-29"></use></g><g data-mml-node="mo" transform="translate(12003.9, 0)"><use xlink:href="#MJX-28-TEX-N-22C5"></use></g><g data-mml-node="mi" transform="translate(12504.1, 0)"><use xlink:href="#MJX-28-TEX-I-1D45D"></use></g><g data-mml-node="mo" transform="translate(13007.1, 0)"><use xlink:href="#MJX-28-TEX-N-28"></use></g><g data-mml-node="mi" transform="translate(13396.1, 0)"><use xlink:href="#MJX-28-TEX-N-398"></use></g><g data-mml-node="mo" transform="translate(14174.1, 0)"><use xlink:href="#MJX-28-TEX-N-29"></use></g><g data-mml-node="mo" transform="translate(14563.1, 0)"><use xlink:href="#MJX-28-TEX-N-29"></use></g></g></g><g data-mml-node="mtr" transform="translate(0, 1486.6)"><g data-mml-node="mtd" transform="translate(2801.4, 0)"><g data-mml-node="mo"><use xlink:href="#MJX-28-TEX-N-3D"></use></g></g><g data-mml-node="mtd" transform="translate(3579.4, 0)"><g data-mml-node="mi"></g><g data-mml-node="munder" transform="translate(166.7, 0)"><g data-mml-node="mo" transform="translate(526, 0)"><use xlink:href="#MJX-28-TEX-LO-2211"></use></g><g data-mml-node="TeXAtom" transform="translate(0, -1147.3) scale(0.707)" data-mjx-texclass="ORD"><g data-mml-node="mo"><use xlink:href="#MJX-28-TEX-N-28"></use></g><g data-mml-node="mi" transform="translate(389, 0)"><use xlink:href="#MJX-28-TEX-I-1D462"></use></g><g data-mml-node="mo" transform="translate(961, 0)"><use xlink:href="#MJX-28-TEX-N-2C"></use></g><g data-mml-node="mi" transform="translate(1239, 0)"><use xlink:href="#MJX-28-TEX-I-1D463"></use></g><g data-mml-node="mo" transform="translate(1724, 0)"><use xlink:href="#MJX-28-TEX-N-29"></use></g><g data-mml-node="mo" transform="translate(2113, 0)"><use xlink:href="#MJX-28-TEX-N-2208"></use></g><g data-mml-node="TeXAtom" data-mjx-texclass="ORD" transform="translate(2780, 0)"><g data-mml-node="mi"><use xlink:href="#MJX-28-TEX-N-59"></use></g></g></g></g><g data-mml-node="mo" transform="translate(2829.4, 0)"><use xlink:href="#MJX-28-TEX-N-2212"></use></g><g data-mml-node="mrow" transform="translate(3607.4, 0)"><g data-mml-node="mo"><use xlink:href="#MJX-28-TEX-SO-28"></use></g><g data-mml-node="msub" transform="translate(458, 0)"><g data-mml-node="mi"><use xlink:href="#MJX-28-TEX-I-1D466"></use></g><g data-mml-node="TeXAtom" transform="translate(490, -150) scale(0.707)" data-mjx-texclass="ORD"><g data-mml-node="mi"><use xlink:href="#MJX-28-TEX-I-1D462"></use></g><g data-mml-node="mi" transform="translate(572, 0)"><use xlink:href="#MJX-28-TEX-I-1D463"></use></g></g></g><g data-mml-node="mi" transform="translate(1912.1, 0)"><use xlink:href="#MJX-28-TEX-N-6C"></use><use xlink:href="#MJX-28-TEX-N-6F" transform="translate(278, 0)"></use><use xlink:href="#MJX-28-TEX-N-67" transform="translate(778, 0)"></use></g><g data-mml-node="mo" transform="translate(3190.1, 0)"><use xlink:href="#MJX-28-TEX-N-2061"></use></g><g data-mml-node="mi" transform="translate(3356.7, 0)"><use xlink:href="#MJX-28-TEX-I-1D70E"></use></g><g data-mml-node="mrow" transform="translate(3927.7, 0)"><g data-mml-node="mo"><use xlink:href="#MJX-28-TEX-SO-28"></use></g><g data-mml-node="msup" transform="translate(458, 0)"><g data-mml-node="TeXAtom" data-mjx-texclass="ORD"><g data-mml-node="mi"><use xlink:href="#MJX-28-TEX-B-1D42E"></use></g></g><g data-mml-node="TeXAtom" transform="translate(639, 413) scale(0.707)" data-mjx-texclass="ORD"><g data-mml-node="TeXAtom" data-mjx-texclass="ORD"><g data-mml-node="mi"><use xlink:href="#MJX-28-TEX-N-54"></use></g></g></g></g><g data-mml-node="TeXAtom" data-mjx-texclass="ORD" transform="translate(1657.5, 0)"><g data-mml-node="mi"><use xlink:href="#MJX-28-TEX-B-1D42F"></use></g></g><g data-mml-node="mo" transform="translate(2264.5, 0)"><use xlink:href="#MJX-28-TEX-SO-29"></use></g></g><g data-mml-node="mo" transform="translate(6872.5, 0)"><use xlink:href="#MJX-28-TEX-N-2B"></use></g><g data-mml-node="mrow" transform="translate(7872.7, 0)"><g data-mml-node="mo"><use xlink:href="#MJX-28-TEX-N-28"></use></g><g data-mml-node="mn" transform="translate(389, 0)"><use xlink:href="#MJX-28-TEX-N-31"></use></g><g data-mml-node="mo" transform="translate(1111.2, 0)"><use xlink:href="#MJX-28-TEX-N-2212"></use></g><g data-mml-node="msub" transform="translate(2111.4, 0)"><g data-mml-node="mi"><use xlink:href="#MJX-28-TEX-I-1D466"></use></g><g data-mml-node="TeXAtom" transform="translate(490, -150) scale(0.707)" data-mjx-texclass="ORD"><g data-mml-node="mi"><use xlink:href="#MJX-28-TEX-I-1D462"></use></g><g data-mml-node="mi" transform="translate(572, 0)"><use xlink:href="#MJX-28-TEX-I-1D463"></use></g></g></g><g data-mml-node="mo" transform="translate(3398.9, 0)"><use xlink:href="#MJX-28-TEX-N-29"></use></g></g><g data-mml-node="mi" transform="translate(11827.2, 0)"><use xlink:href="#MJX-28-TEX-N-6C"></use><use xlink:href="#MJX-28-TEX-N-6F" transform="translate(278, 0)"></use><use xlink:href="#MJX-28-TEX-N-67" transform="translate(778, 0)"></use></g><g data-mml-node="mo" transform="translate(13105.2, 0)"><use xlink:href="#MJX-28-TEX-N-2061"></use></g><g data-mml-node="mrow" transform="translate(13105.2, 0)"><g data-mml-node="mo"><use xlink:href="#MJX-28-TEX-SO-28"></use></g><g data-mml-node="mn" transform="translate(458, 0)"><use xlink:href="#MJX-28-TEX-N-31"></use></g><g data-mml-node="mo" transform="translate(1180.2, 0)"><use xlink:href="#MJX-28-TEX-N-2212"></use></g><g data-mml-node="mi" transform="translate(2180.4, 0)"><use xlink:href="#MJX-28-TEX-I-1D70E"></use></g><g data-mml-node="mrow" transform="translate(2751.4, 0)"><g data-mml-node="mo"><use xlink:href="#MJX-28-TEX-SO-28"></use></g><g data-mml-node="msup" transform="translate(458, 0)"><g data-mml-node="TeXAtom" data-mjx-texclass="ORD"><g data-mml-node="mi"><use xlink:href="#MJX-28-TEX-B-1D42E"></use></g></g><g data-mml-node="TeXAtom" transform="translate(639, 413) scale(0.707)" data-mjx-texclass="ORD"><g data-mml-node="TeXAtom" data-mjx-texclass="ORD"><g data-mml-node="mi"><use xlink:href="#MJX-28-TEX-N-54"></use></g></g></g></g><g data-mml-node="TeXAtom" data-mjx-texclass="ORD" transform="translate(1657.5, 0)"><g data-mml-node="mi"><use xlink:href="#MJX-28-TEX-B-1D42F"></use></g></g><g data-mml-node="mo" transform="translate(2264.5, 0)"><use xlink:href="#MJX-28-TEX-SO-29"></use></g></g><g data-mml-node="mo" transform="translate(5474, 0)"><use xlink:href="#MJX-28-TEX-SO-29"></use></g></g><g data-mml-node="mo" transform="translate(19037.2, 0)"><use xlink:href="#MJX-28-TEX-SO-29"></use></g></g></g></g><g data-mml-node="mtr" transform="translate(0, -1987.1)"><g data-mml-node="mtd" transform="translate(3579.4, 0)"></g><g data-mml-node="mtd" transform="translate(3579.4, 0)"><g data-mml-node="mi"></g><g data-mml-node="mo" transform="translate(222.2, 0)"><use xlink:href="#MJX-28-TEX-N-2B"></use></g><g data-mml-node="mfrac" transform="translate(1222.4, 0)"><g data-mml-node="msub" transform="translate(220, 676)"><g data-mml-node="mi"><use xlink:href="#MJX-28-TEX-I-1D706"></use></g><g data-mml-node="TeXAtom" transform="translate(583, -150) scale(0.707)" data-mjx-texclass="ORD"><g data-mml-node="mn"><use xlink:href="#MJX-28-TEX-N-32"></use></g></g></g><g data-mml-node="mn" transform="translate(463.3, -686)"><use xlink:href="#MJX-28-TEX-N-32"></use></g><rect width="1186.6" height="60" x="120" y="220"></rect></g><g data-mml-node="munder" transform="translate(2815.7, 0)"><g data-mml-node="mo"><use xlink:href="#MJX-28-TEX-LO-2211"></use></g><g data-mml-node="TeXAtom" transform="translate(26.9, -1099.2) scale(0.707)" data-mjx-texclass="ORD"><g data-mml-node="mi"><use xlink:href="#MJX-28-TEX-I-1D45F"></use></g><g data-mml-node="mo" transform="translate(451, 0)"><use xlink:href="#MJX-28-TEX-N-2208"></use></g><g data-mml-node="TeXAtom" data-mjx-texclass="ORD" transform="translate(1118, 0)"><g data-mml-node="mi"><use xlink:href="#MJX-28-TEX-C-52"></use></g></g></g></g><g data-mml-node="msubsup" transform="translate(4426.3, 0)"><g data-mml-node="mrow"><g data-mml-node="mo"><svg width="500" height="1283.4" y="-391.7" x="28" viewBox="0 -160.4 500 1283.4"><use xlink:href="#MJX-28-TEX-S4-2225" transform="scale(1, 1.925)"></use></svg></g><g data-mml-node="msub" transform="translate(556, 0)"><g data-mml-node="TeXAtom" data-mjx-texclass="ORD"><g data-mml-node="mi"><use xlink:href="#MJX-28-TEX-B-1D408"></use></g></g><g data-mml-node="TeXAtom" transform="translate(436, -150) scale(0.707)" data-mjx-texclass="ORD"><g data-mml-node="mi"><use xlink:href="#MJX-28-TEX-I-1D45F"></use></g></g></g><g data-mml-node="mo" transform="translate(1583.1, 0)"><use xlink:href="#MJX-28-TEX-N-2212"></use></g><g data-mml-node="msup" transform="translate(2583.3, 0)"><g data-mml-node="TeXAtom" data-mjx-texclass="ORD"><g data-mml-node="mi"><use xlink:href="#MJX-28-TEX-N-45"></use></g></g><g data-mml-node="TeXAtom" transform="translate(681, 413) scale(0.707)" data-mjx-texclass="ORD"><g data-mml-node="TeXAtom" data-mjx-texclass="ORD"><g data-mml-node="mi"><use xlink:href="#MJX-28-TEX-N-54"></use></g></g></g></g><g data-mml-node="TeXAtom" data-mjx-texclass="ORD" transform="translate(3824.9, 0)"><g data-mml-node="mi"><use xlink:href="#MJX-28-TEX-B-1D411"></use></g><g data-mml-node="mi" transform="translate(862, 0)"><use xlink:href="#MJX-28-TEX-B-1D404"></use></g></g><g data-mml-node="mo" transform="translate(5442.9, 0)"><svg width="500" height="1283.4" y="-391.7" x="28" viewBox="0 -160.4 500 1283.4"><use xlink:href="#MJX-28-TEX-S4-2225" transform="scale(1, 1.925)"></use></svg></g></g><g data-mml-node="TeXAtom" transform="translate(5998.9, 618.8) scale(0.707)" data-mjx-texclass="ORD"><g data-mml-node="mn"><use xlink:href="#MJX-28-TEX-N-32"></use></g></g><g data-mml-node="TeXAtom" transform="translate(5998.9, -427.1) scale(0.707)" data-mjx-texclass="ORD"><g data-mml-node="mn"><use xlink:href="#MJX-28-TEX-N-32"></use></g></g></g><g data-mml-node="mo" transform="translate(11051, 0)"><use xlink:href="#MJX-28-TEX-N-2B"></use></g><g data-mml-node="mfrac" transform="translate(12051.2, 0)"><g data-mml-node="msub" transform="translate(220, 676)"><g data-mml-node="mi"><use xlink:href="#MJX-28-TEX-I-1D706"></use></g><g data-mml-node="TeXAtom" transform="translate(583, -150) scale(0.707)" data-mjx-texclass="ORD"><g data-mml-node="mn"><use xlink:href="#MJX-28-TEX-N-31"></use></g></g></g><g data-mml-node="mn" transform="translate(463.3, -686)"><use xlink:href="#MJX-28-TEX-N-32"></use></g><rect width="1186.6" height="60" x="120" y="220"></rect></g><g data-mml-node="mrow" transform="translate(13477.8, 0)"><g data-mml-node="mo"><use xlink:href="#MJX-28-TEX-S4-28"></use></g><g data-mml-node="mo" transform="translate(792, 0)"><use xlink:href="#MJX-28-TEX-N-2225"></use></g><g data-mml-node="TeXAtom" data-mjx-texclass="ORD" transform="translate(1292, 0)"><g data-mml-node="mi"><use xlink:href="#MJX-28-TEX-B-1D415"></use></g></g><g data-mml-node="msubsup" transform="translate(2161, 0)"><g data-mml-node="mo"><use xlink:href="#MJX-28-TEX-N-2225"></use></g><g data-mml-node="TeXAtom" transform="translate(500, 413) scale(0.707)" data-mjx-texclass="ORD"><g data-mml-node="mn"><use xlink:href="#MJX-28-TEX-N-32"></use></g></g><g data-mml-node="TeXAtom" transform="translate(500, -247) scale(0.707)" data-mjx-texclass="ORD"><g data-mml-node="mn"><use xlink:href="#MJX-28-TEX-N-32"></use></g></g></g><g data-mml-node="mo" transform="translate(3286.8, 0)"><use xlink:href="#MJX-28-TEX-N-2B"></use></g><g data-mml-node="mo" transform="translate(4287, 0)"><use xlink:href="#MJX-28-TEX-N-2225"></use></g><g data-mml-node="TeXAtom" data-mjx-texclass="ORD" transform="translate(4787, 0)"><g data-mml-node="mi"><use xlink:href="#MJX-28-TEX-B-1D404"></use></g></g><g data-mml-node="msubsup" transform="translate(5543, 0)"><g data-mml-node="mo"><use xlink:href="#MJX-28-TEX-N-2225"></use></g><g data-mml-node="TeXAtom" transform="translate(500, 413) scale(0.707)" data-mjx-texclass="ORD"><g data-mml-node="mn"><use xlink:href="#MJX-28-TEX-N-32"></use></g></g><g data-mml-node="TeXAtom" transform="translate(500, -247) scale(0.707)" data-mjx-texclass="ORD"><g data-mml-node="mn"><use xlink:href="#MJX-28-TEX-N-32"></use></g></g></g><g data-mml-node="mo" transform="translate(6668.8, 0)"><use xlink:href="#MJX-28-TEX-N-2B"></use></g><g data-mml-node="munder" transform="translate(7669, 0)"><g data-mml-node="mo"><use xlink:href="#MJX-28-TEX-LO-2211"></use></g><g data-mml-node="TeXAtom" transform="translate(26.9, -1099.2) scale(0.707)" data-mjx-texclass="ORD"><g data-mml-node="mi"><use xlink:href="#MJX-28-TEX-I-1D45F"></use></g><g data-mml-node="mo" transform="translate(451, 0)"><use xlink:href="#MJX-28-TEX-N-2208"></use></g><g data-mml-node="TeXAtom" data-mjx-texclass="ORD" transform="translate(1118, 0)"><g data-mml-node="mi"><use xlink:href="#MJX-28-TEX-C-52"></use></g></g></g></g><g data-mml-node="mo" transform="translate(9279.7, 0)"><use xlink:href="#MJX-28-TEX-N-2225"></use></g><g data-mml-node="TeXAtom" data-mjx-texclass="ORD" transform="translate(9779.7, 0)"><g data-mml-node="mi"><use xlink:href="#MJX-28-TEX-B-1D411"></use></g></g><g data-mml-node="msubsup" transform="translate(10641.7, 0)"><g data-mml-node="mo"><use xlink:href="#MJX-28-TEX-N-2225"></use></g><g data-mml-node="TeXAtom" transform="translate(500, 413) scale(0.707)" data-mjx-texclass="ORD"><g data-mml-node="mn"><use xlink:href="#MJX-28-TEX-N-32"></use></g></g><g data-mml-node="TeXAtom" transform="translate(500, -247) scale(0.707)" data-mjx-texclass="ORD"><g data-mml-node="mn"><use xlink:href="#MJX-28-TEX-N-32"></use></g></g></g><g data-mml-node="mo" transform="translate(11545.2, 0)"><use xlink:href="#MJX-28-TEX-S4-29"></use></g></g></g></g></g></g></g></svg>