<?xml version="1.0" encoding="UTF-8" standalone="no" ?>
<svg xmlns="http://www.w3.org/2000/svg" width="38.91ex" height="12.087ex" viewBox="0 -2921.2 17198.4 5342.5" xmlns:xlink="http://www.w3.org/1999/xlink" aria-hidden="true" style=""><defs><path id="MJX-40-TEX-C-4C" d="M62 -22T47 -22T32 -11Q32 -1 56 24T83 55Q113 96 138 172T180 320T234 473T323 609Q364 649 419 677T531 705Q559 705 578 696T604 671T615 645T618 623V611Q618 582 615 571T598 548Q581 531 558 520T518 509Q503 509 503 520Q503 523 505 536T507 560Q507 590 494 610T452 630Q423 630 410 617Q367 578 333 492T271 301T233 170Q211 123 204 112L198 103L224 102Q281 102 369 79T509 52H523Q535 64 544 87T579 128Q616 152 641 152Q656 152 656 142Q656 101 588 40T433 -22Q381 -22 289 1T156 28L141 29L131 20Q111 0 87 -11Z"></path><path id="MJX-40-TEX-N-49" d="M328 0Q307 3 180 3T32 0H21V46H43Q92 46 106 49T126 60Q128 63 128 342Q128 620 126 623Q122 628 118 630T96 635T43 637H21V683H32Q53 680 180 680T328 683H339V637H317Q268 637 254 634T234 623Q232 620 232 342Q232 63 234 60Q238 55 242 53T264 48T317 46H339V0H328Z"></path><path id="MJX-40-TEX-N-4E" d="M42 46Q74 48 94 56T118 69T128 86V634H124Q114 637 52 637H25V683H232L235 680Q237 679 322 554T493 303L578 178V598Q572 608 568 613T544 627T492 637H475V683H483Q498 680 600 680Q706 680 715 683H724V637H707Q634 633 622 598L621 302V6L614 0H600Q585 0 582 3T481 150T282 443T171 605V345L172 86Q183 50 257 46H274V0H265Q250 3 150 3Q48 3 33 0H25V46H42Z"></path><path id="MJX-40-TEX-N-44" d="M130 622Q123 629 119 631T103 634T60 637H27V683H228Q399 682 419 682T461 676Q504 667 546 641T626 573T685 470T708 336Q708 210 634 116T442 3Q429 1 228 0H27V46H60Q102 47 111 49T130 61V622ZM593 338Q593 439 571 501T493 602Q439 637 355 637H322H294Q238 637 234 628Q231 624 231 344Q231 62 232 59Q233 49 248 48T339 46H350Q456 46 515 95Q561 133 577 191T593 338Z"></path><path id="MJX-40-TEX-N-3D" d="M56 347Q56 360 70 367H707Q722 359 722 347Q722 336 708 328L390 327H72Q56 332 56 347ZM56 153Q56 168 72 173H708Q722 163 722 153Q722 140 707 133H70Q56 140 56 153Z"></path><path id="MJX-40-TEX-LO-2211" d="M60 948Q63 950 665 950H1267L1325 815Q1384 677 1388 669H1348L1341 683Q1320 724 1285 761Q1235 809 1174 838T1033 881T882 898T699 902H574H543H251L259 891Q722 258 724 252Q725 250 724 246Q721 243 460 -56L196 -356Q196 -357 407 -357Q459 -357 548 -357T676 -358Q812 -358 896 -353T1063 -332T1204 -283T1307 -196Q1328 -170 1348 -124H1388Q1388 -125 1381 -145T1356 -210T1325 -294L1267 -449L666 -450Q64 -450 61 -448Q55 -446 55 -439Q55 -437 57 -433L590 177Q590 178 557 222T452 366T322 544L56 909L55 924Q55 945 60 948Z"></path><path id="MJX-40-TEX-I-1D45D" d="M23 287Q24 290 25 295T30 317T40 348T55 381T75 411T101 433T134 442Q209 442 230 378L240 387Q302 442 358 442Q423 442 460 395T497 281Q497 173 421 82T249 -10Q227 -10 210 -4Q199 1 187 11T168 28L161 36Q160 35 139 -51T118 -138Q118 -144 126 -145T163 -148H188Q194 -155 194 -157T191 -175Q188 -187 185 -190T172 -194Q170 -194 161 -194T127 -193T65 -192Q-5 -192 -24 -194H-32Q-39 -187 -39 -183Q-37 -156 -26 -148H-6Q28 -147 33 -136Q36 -130 94 103T155 350Q156 355 156 364Q156 405 131 405Q109 405 94 377T71 316T59 280Q57 278 43 278H29Q23 284 23 287ZM178 102Q200 26 252 26Q282 26 310 49T356 107Q374 141 392 215T411 325V331Q411 405 350 405Q339 405 328 402T306 393T286 380T269 365T254 350T243 336T235 326L232 322Q232 321 229 308T218 264T204 212Q178 106 178 102Z"></path><path id="MJX-40-TEX-N-2C" d="M78 35T78 60T94 103T137 121Q165 121 187 96T210 8Q210 -27 201 -60T180 -117T154 -158T130 -185T117 -194Q113 -194 104 -185T95 -172Q95 -168 106 -156T131 -126T157 -76T173 -3V9L172 8Q170 7 167 6T161 3T152 1T140 0Q113 0 96 17Z"></path><path id="MJX-40-TEX-N-2032" d="M79 43Q73 43 52 49T30 61Q30 68 85 293T146 528Q161 560 198 560Q218 560 240 545T262 501Q262 496 260 486Q259 479 173 263T84 45T79 43Z"></path><path id="MJX-40-TEX-N-2208" d="M84 250Q84 372 166 450T360 539Q361 539 377 539T419 540T469 540H568Q583 532 583 520Q583 511 570 501L466 500Q355 499 329 494Q280 482 242 458T183 409T147 354T129 306T124 272V270H568Q583 262 583 250T568 230H124V228Q124 207 134 177T167 112T231 48T328 7Q355 1 466 0H570Q583 -10 583 -20Q583 -32 568 -40H471Q464 -40 446 -40T417 -41Q262 -41 172 45Q84 127 84 250Z"></path><path id="MJX-40-TEX-C-50" d="M37 475Q19 475 19 487Q19 536 103 604T327 682Q329 682 344 682T380 682T421 683H463Q625 683 695 615Q718 591 726 564Q733 547 733 525Q733 412 607 312T321 205H312Q293 205 293 217Q293 224 302 236T333 260T385 274Q558 287 614 407Q633 445 633 477Q633 515 612 543T556 585T481 607T399 614H370L368 603Q352 463 312 312T242 82T202 -13Q190 -33 164 -45T121 -57Q108 -57 108 -45Q108 -40 120 -10T151 73T192 190T233 349T266 539Q267 546 269 565T272 598T274 613H270Q209 613 163 588Q131 572 113 518Q102 502 80 490T37 475Z"></path><path id="MJX-40-TEX-N-2260" d="M166 -215T159 -215T147 -212T141 -204T139 -197Q139 -190 144 -183L306 133H70Q56 140 56 153Q56 168 72 173H327L406 327H72Q56 332 56 347Q56 360 70 367H426Q597 702 602 707Q605 716 618 716Q625 716 630 712T636 703T638 696Q638 692 471 367H707Q722 359 722 347Q722 336 708 328L451 327L371 173H708Q722 163 722 153Q722 140 707 133H351Q175 -210 170 -212Q166 -215 159 -215Z"></path><path id="MJX-40-TEX-N-64" d="M376 495Q376 511 376 535T377 568Q377 613 367 624T316 637H298V660Q298 683 300 683L310 684Q320 685 339 686T376 688Q393 689 413 690T443 693T454 694H457V390Q457 84 458 81Q461 61 472 55T517 46H535V0Q533 0 459 -5T380 -11H373V44L365 37Q307 -11 235 -11Q158 -11 96 50T34 215Q34 315 97 378T244 442Q319 442 376 393V495ZM373 342Q328 405 260 405Q211 405 173 369Q146 341 139 305T131 211Q131 155 138 120T173 59Q203 26 251 26Q322 26 373 103V342Z"></path><path id="MJX-40-TEX-N-43" d="M56 342Q56 428 89 500T174 615T283 681T391 705Q394 705 400 705T408 704Q499 704 569 636L582 624L612 663Q639 700 643 704Q644 704 647 704T653 705H657Q660 705 666 699V419L660 413H626Q620 419 619 430Q610 512 571 572T476 651Q457 658 426 658Q322 658 252 588Q173 509 173 342Q173 221 211 151Q232 111 263 84T328 45T384 29T428 24Q517 24 571 93T626 244Q626 251 632 257H660L666 251V236Q661 133 590 56T403 -21Q262 -21 159 83T56 342Z"></path><path id="MJX-40-TEX-N-6F" d="M28 214Q28 309 93 378T250 448Q340 448 405 380T471 215Q471 120 407 55T250 -10Q153 -10 91 57T28 214ZM250 30Q372 30 372 193V225V250Q372 272 371 288T364 326T348 362T317 390T268 410Q263 411 252 411Q222 411 195 399Q152 377 139 338T126 246V226Q126 130 145 91Q177 30 250 30Z"></path><path id="MJX-40-TEX-N-72" d="M36 46H50Q89 46 97 60V68Q97 77 97 91T98 122T98 161T98 203Q98 234 98 269T98 328L97 351Q94 370 83 376T38 385H20V408Q20 431 22 431L32 432Q42 433 60 434T96 436Q112 437 131 438T160 441T171 442H174V373Q213 441 271 441H277Q322 441 343 419T364 373Q364 352 351 337T313 322Q288 322 276 338T263 372Q263 381 265 388T270 400T273 405Q271 407 250 401Q234 393 226 386Q179 341 179 207V154Q179 141 179 127T179 101T180 81T180 66V61Q181 59 183 57T188 54T193 51T200 49T207 48T216 47T225 47T235 46T245 46H276V0H267Q249 3 140 3Q37 3 28 0H20V46H36Z"></path><path id="MJX-40-TEX-N-2061" d=""></path><path id="MJX-40-TEX-N-28" d="M94 250Q94 319 104 381T127 488T164 576T202 643T244 695T277 729T302 750H315H319Q333 750 333 741Q333 738 316 720T275 667T226 581T184 443T167 250T184 58T225 -81T274 -167T316 -220T333 -241Q333 -250 318 -250H315H302L274 -226Q180 -141 137 -14T94 250Z"></path><path id="MJX-40-TEX-B-1D41E" d="M32 225Q32 332 102 392T272 452H283Q382 452 436 401Q494 343 494 243Q494 226 486 222T440 217Q431 217 394 217T327 218H175V209Q175 177 179 154T196 107T236 69T306 50Q312 49 323 49Q376 49 410 85Q421 99 427 111T434 127T442 133T463 135H468Q494 135 494 117Q494 110 489 97T468 66T431 32T373 5T292 -6Q181 -6 107 55T32 225ZM383 276Q377 346 348 374T280 402Q253 402 230 390T195 357Q179 331 176 279V266H383V276Z"></path><path id="MJX-40-TEX-N-29" d="M60 749L64 750Q69 750 74 750H86L114 726Q208 641 251 514T294 250Q294 182 284 119T261 12T224 -76T186 -143T145 -194T113 -227T90 -246Q87 -249 86 -250H74Q66 -250 63 -250T58 -247T55 -238Q56 -237 66 -225Q221 -64 221 250T66 725Q56 737 55 738Q55 746 60 749Z"></path><path id="MJX-40-TEX-I-1D451" d="M366 683Q367 683 438 688T511 694Q523 694 523 686Q523 679 450 384T375 83T374 68Q374 26 402 26Q411 27 422 35Q443 55 463 131Q469 151 473 152Q475 153 483 153H487H491Q506 153 506 145Q506 140 503 129Q490 79 473 48T445 8T417 -8Q409 -10 393 -10Q359 -10 336 5T306 36L300 51Q299 52 296 50Q294 48 292 46Q233 -10 172 -10Q117 -10 75 30T33 157Q33 205 53 255T101 341Q148 398 195 420T280 442Q336 442 364 400Q369 394 369 396Q370 400 396 505T424 616Q424 629 417 632T378 637H357Q351 643 351 645T353 664Q358 683 366 683ZM352 326Q329 405 277 405Q242 405 210 374T160 293Q131 214 119 129Q119 126 119 118T118 106Q118 61 136 44T179 26Q233 26 290 98L298 109L352 326Z"></path><path id="MJX-40-TEX-N-76" d="M338 431Q344 429 422 429Q479 429 503 431H508V385H497Q439 381 423 345Q421 341 356 172T288 -2Q283 -11 263 -11Q244 -11 239 -2Q99 359 98 364Q93 378 82 381T43 385H19V431H25L33 430Q41 430 53 430T79 430T104 429T122 428Q217 428 232 431H240V385H226Q187 384 184 370Q184 366 235 234L286 102L377 341V349Q377 363 367 372T349 383T335 385H331V431H338Z"></path><path id="MJX-40-TEX-SO-221A" d="M263 249Q264 249 315 130T417 -108T470 -228L725 302Q981 837 982 839Q989 850 1001 850Q1008 850 1013 844T1020 832V826L741 243Q645 43 540 -176Q479 -303 469 -324T453 -348Q449 -350 436 -350L424 -349L315 -96Q206 156 205 156L171 130Q138 104 137 104L111 130L263 249Z"></path><path id="MJX-40-TEX-N-56" d="M114 620Q113 621 110 624T107 627T103 630T98 632T91 634T80 635T67 636T48 637H19V683H28Q46 680 152 680Q273 680 294 683H305V637H284Q223 634 223 620Q223 618 313 372T404 126L490 358Q575 588 575 597Q575 616 554 626T508 637H503V683H512Q527 680 627 680Q718 680 724 683H730V637H723Q648 637 627 596Q627 595 515 291T401 -14Q396 -22 382 -22H374H367Q353 -22 348 -14Q346 -12 231 303Q114 617 114 620Z"></path><path id="MJX-40-TEX-N-61" d="M137 305T115 305T78 320T63 359Q63 394 97 421T218 448Q291 448 336 416T396 340Q401 326 401 309T402 194V124Q402 76 407 58T428 40Q443 40 448 56T453 109V145H493V106Q492 66 490 59Q481 29 455 12T400 -6T353 12T329 54V58L327 55Q325 52 322 49T314 40T302 29T287 17T269 6T247 -2T221 -8T190 -11Q130 -11 82 20T34 107Q34 128 41 147T68 188T116 225T194 253T304 268H318V290Q318 324 312 340Q290 411 215 411Q197 411 181 410T156 406T148 403Q170 388 170 359Q170 334 154 320ZM126 106Q126 75 150 51T209 26Q247 26 276 49T315 109Q317 116 318 175Q318 233 317 233Q309 233 296 232T251 223T193 203T147 166T126 106Z"></path><path id="MJX-40-TEX-N-22C5" d="M78 250Q78 274 95 292T138 310Q162 310 180 294T199 251Q199 226 182 208T139 190T96 207T78 250Z"></path></defs><g stroke="currentColor" fill="currentColor" stroke-width="0" transform="matrix(1 0 0 -1 0 0)"><g data-mml-node="math"><g data-mml-node="mtable"><g data-mml-node="mtr" transform="translate(0, 1971.2)"><g data-mml-node="mtd" transform="translate(2249.9, 0)"><g data-mml-node="msub"><g data-mml-node="TeXAtom" data-mjx-texclass="ORD"><g data-mml-node="mi"><use xlink:href="#MJX-40-TEX-C-4C"></use></g></g><g data-mml-node="TeXAtom" transform="translate(690, -150) scale(0.707)" data-mjx-texclass="ORD"><g data-mml-node="TeXAtom" data-mjx-texclass="ORD"><g data-mml-node="mi"><use xlink:href="#MJX-40-TEX-N-49"></use></g><g data-mml-node="mi" transform="translate(361, 0)"><use xlink:href="#MJX-40-TEX-N-4E"></use></g><g data-mml-node="mi" transform="translate(1111, 0)"><use xlink:href="#MJX-40-TEX-N-44"></use></g></g></g></g><g data-mml-node="mo" transform="translate(2343.6, 0)"><use xlink:href="#MJX-40-TEX-N-3D"></use></g><g data-mml-node="munder" transform="translate(3399.4, 0)"><g data-mml-node="mo" transform="translate(1128.8, 0)"><use xlink:href="#MJX-40-TEX-LO-2211"></use></g><g data-mml-node="TeXAtom" transform="translate(0, -1123.3) scale(0.707)" data-mjx-texclass="ORD"><g data-mml-node="mi"><use xlink:href="#MJX-40-TEX-I-1D45D"></use></g><g data-mml-node="mo" transform="translate(503, 0)"><use xlink:href="#MJX-40-TEX-N-2C"></use></g><g data-mml-node="msup" transform="translate(781, 0)"><g data-mml-node="mi"><use xlink:href="#MJX-40-TEX-I-1D45D"></use></g><g data-mml-node="TeXAtom" transform="translate(503, 289) scale(0.707)" data-mjx-texclass="ORD"><g data-mml-node="mi"><use xlink:href="#MJX-40-TEX-N-2032"></use></g></g></g><g data-mml-node="mo" transform="translate(1528.5, 0)"><use xlink:href="#MJX-40-TEX-N-2208"></use></g><g data-mml-node="TeXAtom" data-mjx-texclass="ORD" transform="translate(2195.5, 0)"><g data-mml-node="mi"><use xlink:href="#MJX-40-TEX-C-50"></use></g></g><g data-mml-node="mo" transform="translate(2928.5, 0)"><use xlink:href="#MJX-40-TEX-N-2C"></use></g><g data-mml-node="mi" transform="translate(3206.5, 0)"><use xlink:href="#MJX-40-TEX-I-1D45D"></use></g><g data-mml-node="mo" transform="translate(3709.5, 0)"><use xlink:href="#MJX-40-TEX-N-2260"></use></g><g data-mml-node="msup" transform="translate(4487.5, 0)"><g data-mml-node="mi"><use xlink:href="#MJX-40-TEX-I-1D45D"></use></g><g data-mml-node="TeXAtom" transform="translate(503, 289) scale(0.707)" data-mjx-texclass="ORD"><g data-mml-node="mi"><use xlink:href="#MJX-40-TEX-N-2032"></use></g></g></g></g></g><g data-mml-node="mi" transform="translate(7267.7, 0)"><use xlink:href="#MJX-40-TEX-N-64"></use><use xlink:href="#MJX-40-TEX-N-43" transform="translate(556, 0)"></use><use xlink:href="#MJX-40-TEX-N-6F" transform="translate(1278, 0)"></use><use xlink:href="#MJX-40-TEX-N-72" transform="translate(1778, 0)"></use></g><g data-mml-node="mo" transform="translate(9437.7, 0)"><use xlink:href="#MJX-40-TEX-N-2061"></use></g><g data-mml-node="mrow" transform="translate(9437.7, 0)"><g data-mml-node="mo"><use xlink:href="#MJX-40-TEX-N-28"></use></g><g data-mml-node="msub" transform="translate(389, 0)"><g data-mml-node="TeXAtom" data-mjx-texclass="ORD"><g data-mml-node="mi"><use xlink:href="#MJX-40-TEX-B-1D41E"></use></g></g><g data-mml-node="TeXAtom" transform="translate(527, -150) scale(0.707)" data-mjx-texclass="ORD"><g data-mml-node="mi"><use xlink:href="#MJX-40-TEX-I-1D45D"></use></g></g></g><g data-mml-node="mo" transform="translate(1321.7, 0)"><use xlink:href="#MJX-40-TEX-N-2C"></use></g><g data-mml-node="msub" transform="translate(1766.3, 0)"><g data-mml-node="TeXAtom" data-mjx-texclass="ORD"><g data-mml-node="mi"><use xlink:href="#MJX-40-TEX-B-1D41E"></use></g></g><g data-mml-node="TeXAtom" transform="translate(527, -150) scale(0.707)" data-mjx-texclass="ORD"><g data-mml-node="msup"><g data-mml-node="mi"><use xlink:href="#MJX-40-TEX-I-1D45D"></use></g><g data-mml-node="TeXAtom" transform="translate(503, 289) scale(0.707)" data-mjx-texclass="ORD"><g data-mml-node="mi"><use xlink:href="#MJX-40-TEX-N-2032"></use></g></g></g></g></g><g data-mml-node="mo" transform="translate(2871.9, 0)"><use xlink:href="#MJX-40-TEX-N-29"></use></g></g></g></g><g data-mml-node="mtr" transform="translate(0, -1201.2)"><g data-mml-node="mtd"><g data-mml-node="mi"><use xlink:href="#MJX-40-TEX-N-64"></use><use xlink:href="#MJX-40-TEX-N-43" transform="translate(556, 0)"></use><use xlink:href="#MJX-40-TEX-N-6F" transform="translate(1278, 0)"></use><use xlink:href="#MJX-40-TEX-N-72" transform="translate(1778, 0)"></use></g><g data-mml-node="mo" transform="translate(2170, 0)"><use xlink:href="#MJX-40-TEX-N-2061"></use></g><g data-mml-node="mrow" transform="translate(2170, 0)"><g data-mml-node="mo"><use xlink:href="#MJX-40-TEX-N-28"></use></g><g data-mml-node="msub" transform="translate(389, 0)"><g data-mml-node="TeXAtom" data-mjx-texclass="ORD"><g data-mml-node="mi"><use xlink:href="#MJX-40-TEX-B-1D41E"></use></g></g><g data-mml-node="TeXAtom" transform="translate(527, -150) scale(0.707)" data-mjx-texclass="ORD"><g data-mml-node="mi"><use xlink:href="#MJX-40-TEX-I-1D45D"></use></g></g></g><g data-mml-node="mo" transform="translate(1321.7, 0)"><use xlink:href="#MJX-40-TEX-N-2C"></use></g><g data-mml-node="msub" transform="translate(1766.3, 0)"><g data-mml-node="TeXAtom" data-mjx-texclass="ORD"><g data-mml-node="mi"><use xlink:href="#MJX-40-TEX-B-1D41E"></use></g></g><g data-mml-node="TeXAtom" transform="translate(527, -150) scale(0.707)" data-mjx-texclass="ORD"><g data-mml-node="msup"><g data-mml-node="mi"><use xlink:href="#MJX-40-TEX-I-1D45D"></use></g><g data-mml-node="TeXAtom" transform="translate(503, 289) scale(0.707)" data-mjx-texclass="ORD"><g data-mml-node="mi"><use xlink:href="#MJX-40-TEX-N-2032"></use></g></g></g></g></g><g data-mml-node="mo" transform="translate(2871.9, 0)"><use xlink:href="#MJX-40-TEX-N-29"></use></g></g><g data-mml-node="mo" transform="translate(5708.6, 0)"><use xlink:href="#MJX-40-TEX-N-3D"></use></g><g data-mml-node="mfrac" transform="translate(6764.4, 0)"><g data-mml-node="mrow" transform="translate(2368.2, 747.2)"><g data-mml-node="mi"><use xlink:href="#MJX-40-TEX-I-1D451"></use></g><g data-mml-node="mi" transform="translate(686.7, 0)"><use xlink:href="#MJX-40-TEX-N-43"></use><use xlink:href="#MJX-40-TEX-N-6F" transform="translate(722, 0)"></use><use xlink:href="#MJX-40-TEX-N-76" transform="translate(1222, 0)"></use></g><g data-mml-node="mo" transform="translate(2436.7, 0)"><use xlink:href="#MJX-40-TEX-N-2061"></use></g><g data-mml-node="mrow" transform="translate(2436.7, 0)"><g data-mml-node="mo"><use xlink:href="#MJX-40-TEX-N-28"></use></g><g data-mml-node="msub" transform="translate(389, 0)"><g data-mml-node="TeXAtom" data-mjx-texclass="ORD"><g data-mml-node="mi"><use xlink:href="#MJX-40-TEX-B-1D41E"></use></g></g><g data-mml-node="TeXAtom" transform="translate(527, -150) scale(0.707)" data-mjx-texclass="ORD"><g data-mml-node="mi"><use xlink:href="#MJX-40-TEX-I-1D45D"></use></g></g></g><g data-mml-node="mo" transform="translate(1321.7, 0)"><use xlink:href="#MJX-40-TEX-N-2C"></use></g><g data-mml-node="msub" transform="translate(1766.3, 0)"><g data-mml-node="TeXAtom" data-mjx-texclass="ORD"><g data-mml-node="mi"><use xlink:href="#MJX-40-TEX-B-1D41E"></use></g></g><g data-mml-node="TeXAtom" transform="translate(527, -150) scale(0.707)" data-mjx-texclass="ORD"><g data-mml-node="msup"><g data-mml-node="mi"><use xlink:href="#MJX-40-TEX-I-1D45D"></use></g><g data-mml-node="TeXAtom" transform="translate(503, 289) scale(0.707)" data-mjx-texclass="ORD"><g data-mml-node="mi"><use xlink:href="#MJX-40-TEX-N-2032"></use></g></g></g></g></g><g data-mml-node="mo" transform="translate(2871.9, 0)"><use xlink:href="#MJX-40-TEX-N-29"></use></g></g></g><g data-mml-node="msqrt" transform="translate(220, -918.9)"><g transform="translate(1020, 0)"><g data-mml-node="mi"><use xlink:href="#MJX-40-TEX-I-1D451"></use></g><g data-mml-node="mi" transform="translate(686.7, 0)"><use xlink:href="#MJX-40-TEX-N-56"></use><use xlink:href="#MJX-40-TEX-N-61" transform="translate(750, 0)"></use><use xlink:href="#MJX-40-TEX-N-72" transform="translate(1250, 0)"></use></g><g data-mml-node="mo" transform="translate(2328.7, 0)"><use xlink:href="#MJX-40-TEX-N-2061"></use></g><g data-mml-node="mrow" transform="translate(2328.7, 0)"><g data-mml-node="mo"><use xlink:href="#MJX-40-TEX-N-28"></use></g><g data-mml-node="msub" transform="translate(389, 0)"><g data-mml-node="TeXAtom" data-mjx-texclass="ORD"><g data-mml-node="mi"><use xlink:href="#MJX-40-TEX-B-1D41E"></use></g></g><g data-mml-node="TeXAtom" transform="translate(527, -150) scale(0.707)" data-mjx-texclass="ORD"><g data-mml-node="mi"><use xlink:href="#MJX-40-TEX-I-1D45D"></use></g></g></g><g data-mml-node="mo" transform="translate(1321.7, 0)"><use xlink:href="#MJX-40-TEX-N-29"></use></g></g><g data-mml-node="mo" transform="translate(4261.6, 0)"><use xlink:href="#MJX-40-TEX-N-22C5"></use></g><g data-mml-node="mi" transform="translate(4761.8, 0)"><use xlink:href="#MJX-40-TEX-I-1D451"></use></g><g data-mml-node="mi" transform="translate(5448.5, 0)"><use xlink:href="#MJX-40-TEX-N-56"></use><use xlink:href="#MJX-40-TEX-N-61" transform="translate(750, 0)"></use><use xlink:href="#MJX-40-TEX-N-72" transform="translate(1250, 0)"></use></g><g data-mml-node="mo" transform="translate(7090.5, 0)"><use xlink:href="#MJX-40-TEX-N-2061"></use></g><g data-mml-node="mrow" transform="translate(7090.5, 0)"><g data-mml-node="mo"><use xlink:href="#MJX-40-TEX-N-28"></use></g><g data-mml-node="msub" transform="translate(389, 0)"><g data-mml-node="TeXAtom" data-mjx-texclass="ORD"><g data-mml-node="mi"><use xlink:href="#MJX-40-TEX-B-1D41E"></use></g></g><g data-mml-node="TeXAtom" transform="translate(527, -150) scale(0.707)" data-mjx-texclass="ORD"><g data-mml-node="msup"><g data-mml-node="mi"><use xlink:href="#MJX-40-TEX-I-1D45D"></use></g><g data-mml-node="TeXAtom" transform="translate(503, 289) scale(0.707)" data-mjx-texclass="ORD"><g data-mml-node="mi"><use xlink:href="#MJX-40-TEX-N-2032"></use></g></g></g></g></g><g data-mml-node="mo" transform="translate(1494.5, 0)"><use xlink:href="#MJX-40-TEX-N-29"></use></g></g></g><g data-mml-node="mo" transform="translate(0, 48.9)"><use xlink:href="#MJX-40-TEX-SO-221A"></use></g><rect width="8974" height="60" x="1020" y="838.9"></rect></g><rect width="10194" height="60" x="120" y="220"></rect></g></g></g></g></g></g></svg>