<?xml version="1.0" encoding="UTF-8" standalone="no" ?>
<svg xmlns="http://www.w3.org/2000/svg" width="40.864ex" height="16.921ex" viewBox="0 -3989.5 18061.9 7479" xmlns:xlink="http://www.w3.org/1999/xlink" aria-hidden="true" style=""><defs><path id="MJX-112-TEX-N-46" d="M128 619Q121 626 117 628T101 631T58 634H25V680H582V676Q584 670 596 560T610 444V440H570V444Q563 493 561 501Q555 538 543 563T516 601T477 622T431 631T374 633H334H286Q252 633 244 631T233 621Q232 619 232 490V363H284Q287 363 303 363T327 364T349 367T372 373T389 385Q407 403 410 459V480H450V200H410V221Q407 276 389 296Q381 303 371 307T348 313T327 316T303 317T284 317H232V189L233 61Q240 54 245 52T270 48T333 46H360V0H348Q324 3 182 3Q51 3 36 0H25V46H58Q100 47 109 49T128 61V619Z"></path><path id="MJX-112-TEX-N-4E" d="M42 46Q74 48 94 56T118 69T128 86V634H124Q114 637 52 637H25V683H232L235 680Q237 679 322 554T493 303L578 178V598Q572 608 568 613T544 627T492 637H475V683H483Q498 680 600 680Q706 680 715 683H724V637H707Q634 633 622 598L621 302V6L614 0H600Q585 0 582 3T481 150T282 443T171 605V345L172 86Q183 50 257 46H274V0H265Q250 3 150 3Q48 3 33 0H25V46H42Z"></path><path id="MJX-112-TEX-N-2061" d=""></path><path id="MJX-112-TEX-N-28" d="M94 250Q94 319 104 381T127 488T164 576T202 643T244 695T277 729T302 750H315H319Q333 750 333 741Q333 738 316 720T275 667T226 581T184 443T167 250T184 58T225 -81T274 -167T316 -220T333 -241Q333 -250 318 -250H315H302L274 -226Q180 -141 137 -14T94 250Z"></path><path id="MJX-112-TEX-I-1D467" d="M347 338Q337 338 294 349T231 360Q211 360 197 356T174 346T162 335T155 324L153 320Q150 317 138 317Q117 317 117 325Q117 330 120 339Q133 378 163 406T229 440Q241 442 246 442Q271 442 291 425T329 392T367 375Q389 375 411 408T434 441Q435 442 449 442H462Q468 436 468 434Q468 430 463 420T449 399T432 377T418 358L411 349Q368 298 275 214T160 106L148 94L163 93Q185 93 227 82T290 71Q328 71 360 90T402 140Q406 149 409 151T424 153Q443 153 443 143Q443 138 442 134Q425 72 376 31T278 -11Q252 -11 232 6T193 40T155 57Q111 57 76 -3Q70 -11 59 -11H54H41Q35 -5 35 -2Q35 13 93 84Q132 129 225 214T340 322Q352 338 347 338Z"></path><path id="MJX-112-TEX-I-1D456" d="M184 600Q184 624 203 642T247 661Q265 661 277 649T290 619Q290 596 270 577T226 557Q211 557 198 567T184 600ZM21 287Q21 295 30 318T54 369T98 420T158 442Q197 442 223 419T250 357Q250 340 236 301T196 196T154 83Q149 61 149 51Q149 26 166 26Q175 26 185 29T208 43T235 78T260 137Q263 149 265 151T282 153Q302 153 302 143Q302 135 293 112T268 61T223 11T161 -11Q129 -11 102 10T74 74Q74 91 79 106T122 220Q160 321 166 341T173 380Q173 404 156 404H154Q124 404 99 371T61 287Q60 286 59 284T58 281T56 279T53 278T49 278T41 278H27Q21 284 21 287Z"></path><path id="MJX-112-TEX-N-29" d="M60 749L64 750Q69 750 74 750H86L114 726Q208 641 251 514T294 250Q294 182 284 119T261 12T224 -76T186 -143T145 -194T113 -227T90 -246Q87 -249 86 -250H74Q66 -250 63 -250T58 -247T55 -238Q56 -237 66 -225Q221 -64 221 250T66 725Q56 737 55 738Q55 746 60 749Z"></path><path id="MJX-112-TEX-N-3D" d="M56 347Q56 360 70 367H707Q722 359 722 347Q722 336 708 328L390 327H72Q56 332 56 347ZM56 153Q56 168 72 173H708Q722 163 722 153Q722 140 707 133H70Q56 140 56 153Z"></path><path id="MJX-112-TEX-N-6D" d="M41 46H55Q94 46 102 60V68Q102 77 102 91T102 122T103 161T103 203Q103 234 103 269T102 328V351Q99 370 88 376T43 385H25V408Q25 431 27 431L37 432Q47 433 65 434T102 436Q119 437 138 438T167 441T178 442H181V402Q181 364 182 364T187 369T199 384T218 402T247 421T285 437Q305 442 336 442Q351 442 364 440T387 434T406 426T421 417T432 406T441 395T448 384T452 374T455 366L457 361L460 365Q463 369 466 373T475 384T488 397T503 410T523 422T546 432T572 439T603 442Q729 442 740 329Q741 322 741 190V104Q741 66 743 59T754 49Q775 46 803 46H819V0H811L788 1Q764 2 737 2T699 3Q596 3 587 0H579V46H595Q656 46 656 62Q657 64 657 200Q656 335 655 343Q649 371 635 385T611 402T585 404Q540 404 506 370Q479 343 472 315T464 232V168V108Q464 78 465 68T468 55T477 49Q498 46 526 46H542V0H534L510 1Q487 2 460 2T422 3Q319 3 310 0H302V46H318Q379 46 379 62Q380 64 380 200Q379 335 378 343Q372 371 358 385T334 402T308 404Q263 404 229 370Q202 343 195 315T187 232V168V108Q187 78 188 68T191 55T200 49Q221 46 249 46H265V0H257L234 1Q210 2 183 2T145 3Q42 3 33 0H25V46H41Z"></path><path id="MJX-112-TEX-N-61" d="M137 305T115 305T78 320T63 359Q63 394 97 421T218 448Q291 448 336 416T396 340Q401 326 401 309T402 194V124Q402 76 407 58T428 40Q443 40 448 56T453 109V145H493V106Q492 66 490 59Q481 29 455 12T400 -6T353 12T329 54V58L327 55Q325 52 322 49T314 40T302 29T287 17T269 6T247 -2T221 -8T190 -11Q130 -11 82 20T34 107Q34 128 41 147T68 188T116 225T194 253T304 268H318V290Q318 324 312 340Q290 411 215 411Q197 411 181 410T156 406T148 403Q170 388 170 359Q170 334 154 320ZM126 106Q126 75 150 51T209 26Q247 26 276 49T315 109Q317 116 318 175Q318 233 317 233Q309 233 296 232T251 223T193 203T147 166T126 106Z"></path><path id="MJX-112-TEX-N-78" d="M201 0Q189 3 102 3Q26 3 17 0H11V46H25Q48 47 67 52T96 61T121 78T139 96T160 122T180 150L226 210L168 288Q159 301 149 315T133 336T122 351T113 363T107 370T100 376T94 379T88 381T80 383Q74 383 44 385H16V431H23Q59 429 126 429Q219 429 229 431H237V385Q201 381 201 369Q201 367 211 353T239 315T268 274L272 270L297 304Q329 345 329 358Q329 364 327 369T322 376T317 380T310 384L307 385H302V431H309Q324 428 408 428Q487 428 493 431H499V385H492Q443 385 411 368Q394 360 377 341T312 257L296 236L358 151Q424 61 429 57T446 50Q464 46 499 46H516V0H510H502Q494 1 482 1T457 2T432 2T414 3Q403 3 377 3T327 1L304 0H295V46H298Q309 46 320 51T331 63Q331 65 291 120L250 175Q249 174 219 133T185 88Q181 83 181 74Q181 63 188 55T206 46Q208 46 208 23V0H201Z"></path><path id="MJX-112-TEX-N-30" d="M96 585Q152 666 249 666Q297 666 345 640T423 548Q460 465 460 320Q460 165 417 83Q397 41 362 16T301 -15T250 -22Q224 -22 198 -16T137 16T82 83Q39 165 39 320Q39 494 96 585ZM321 597Q291 629 250 629Q208 629 178 597Q153 571 145 525T137 333Q137 175 145 125T181 46Q209 16 250 16Q290 16 318 46Q347 76 354 130T362 333Q362 478 354 524T321 597Z"></path><path id="MJX-112-TEX-N-2C" d="M78 35T78 60T94 103T137 121Q165 121 187 96T210 8Q210 -27 201 -60T180 -117T154 -158T130 -185T117 -194Q113 -194 104 -185T95 -172Q95 -168 106 -156T131 -126T157 -76T173 -3V9L172 8Q170 7 167 6T161 3T152 1T140 0Q113 0 96 17Z"></path><path id="MJX-112-TEX-I-1D44A" d="M436 683Q450 683 486 682T553 680Q604 680 638 681T677 682Q695 682 695 674Q695 670 692 659Q687 641 683 639T661 637Q636 636 621 632T600 624T597 615Q597 603 613 377T629 138L631 141Q633 144 637 151T649 170T666 200T690 241T720 295T759 362Q863 546 877 572T892 604Q892 619 873 628T831 637Q817 637 817 647Q817 650 819 660Q823 676 825 679T839 682Q842 682 856 682T895 682T949 681Q1015 681 1034 683Q1048 683 1048 672Q1048 666 1045 655T1038 640T1028 637Q1006 637 988 631T958 617T939 600T927 584L923 578L754 282Q586 -14 585 -15Q579 -22 561 -22Q546 -22 542 -17Q539 -14 523 229T506 480L494 462Q472 425 366 239Q222 -13 220 -15T215 -19Q210 -22 197 -22Q178 -22 176 -15Q176 -12 154 304T131 622Q129 631 121 633T82 637H58Q51 644 51 648Q52 671 64 683H76Q118 680 176 680Q301 680 313 683H323Q329 677 329 674T327 656Q322 641 318 637H297Q236 634 232 620Q262 160 266 136L501 550L499 587Q496 629 489 632Q483 636 447 637Q428 637 422 639T416 648Q416 650 418 660Q419 664 420 669T421 676T424 680T428 682T436 683Z"></path><path id="MJX-112-TEX-N-31" d="M213 578L200 573Q186 568 160 563T102 556H83V602H102Q149 604 189 617T245 641T273 663Q275 666 285 666Q294 666 302 660V361L303 61Q310 54 315 52T339 48T401 46H427V0H416Q395 3 257 3Q121 3 100 0H88V46H114Q136 46 152 46T177 47T193 50T201 52T207 57T213 61V578Z"></path><path id="MJX-112-TEX-N-2B" d="M56 237T56 250T70 270H369V420L370 570Q380 583 389 583Q402 583 409 568V270H707Q722 262 722 250T707 230H409V-68Q401 -82 391 -82H389H387Q375 -82 369 -68V230H70Q56 237 56 250Z"></path><path id="MJX-112-TEX-I-1D44F" d="M73 647Q73 657 77 670T89 683Q90 683 161 688T234 694Q246 694 246 685T212 542Q204 508 195 472T180 418L176 399Q176 396 182 402Q231 442 283 442Q345 442 383 396T422 280Q422 169 343 79T173 -11Q123 -11 82 27T40 150V159Q40 180 48 217T97 414Q147 611 147 623T109 637Q104 637 101 637H96Q86 637 83 637T76 640T73 647ZM336 325V331Q336 405 275 405Q258 405 240 397T207 376T181 352T163 330L157 322L136 236Q114 150 114 114Q114 66 138 42Q154 26 178 26Q211 26 245 58Q270 81 285 114T318 219Q336 291 336 325Z"></path><path id="MJX-112-TEX-N-32" d="M109 429Q82 429 66 447T50 491Q50 562 103 614T235 666Q326 666 387 610T449 465Q449 422 429 383T381 315T301 241Q265 210 201 149L142 93L218 92Q375 92 385 97Q392 99 409 186V189H449V186Q448 183 436 95T421 3V0H50V19V31Q50 38 56 46T86 81Q115 113 136 137Q145 147 170 174T204 211T233 244T261 278T284 308T305 340T320 369T333 401T340 431T343 464Q343 527 309 573T212 619Q179 619 154 602T119 569T109 550Q109 549 114 549Q132 549 151 535T170 489Q170 464 154 447T109 429Z"></path><path id="MJX-112-TEX-I-1D44D" d="M58 8Q58 23 64 35Q64 36 329 334T596 635L586 637Q575 637 512 637H500H476Q442 637 420 635T365 624T311 598T266 548T228 469Q227 466 226 463T224 458T223 453T222 450L221 448Q218 443 202 443Q185 443 182 453L214 561Q228 606 241 651Q249 679 253 681Q256 683 487 683H718Q723 678 723 675Q723 673 717 649Q189 54 188 52L185 49H274Q369 50 377 51Q452 60 500 100T579 247Q587 272 590 277T603 282H607Q628 282 628 271Q547 5 541 2Q538 0 300 0H124Q58 0 58 8Z"></path><path id="MJX-112-TEX-N-44" d="M130 622Q123 629 119 631T103 634T60 637H27V683H228Q399 682 419 682T461 676Q504 667 546 641T626 573T685 470T708 336Q708 210 634 116T442 3Q429 1 228 0H27V46H60Q102 47 111 49T130 61V622ZM593 338Q593 439 571 501T493 602Q439 637 355 637H322H294Q238 637 234 628Q231 624 231 344Q231 62 232 59Q233 49 248 48T339 46H350Q456 46 515 95Q561 133 577 191T593 338Z"></path><path id="MJX-112-TEX-N-72" d="M36 46H50Q89 46 97 60V68Q97 77 97 91T98 122T98 161T98 203Q98 234 98 269T98 328L97 351Q94 370 83 376T38 385H20V408Q20 431 22 431L32 432Q42 433 60 434T96 436Q112 437 131 438T160 441T171 442H174V373Q213 441 271 441H277Q322 441 343 419T364 373Q364 352 351 337T313 322Q288 322 276 338T263 372Q263 381 265 388T270 400T273 405Q271 407 250 401Q234 393 226 386Q179 341 179 207V154Q179 141 179 127T179 101T180 81T180 66V61Q181 59 183 57T188 54T193 51T200 49T207 48T216 47T225 47T235 46T245 46H276V0H267Q249 3 140 3Q37 3 28 0H20V46H36Z"></path><path id="MJX-112-TEX-N-6F" d="M28 214Q28 309 93 378T250 448Q340 448 405 380T471 215Q471 120 407 55T250 -10Q153 -10 91 57T28 214ZM250 30Q372 30 372 193V225V250Q372 272 371 288T364 326T348 362T317 390T268 410Q263 411 252 411Q222 411 195 399Q152 377 139 338T126 246V226Q126 130 145 91Q177 30 250 30Z"></path><path id="MJX-112-TEX-N-70" d="M36 -148H50Q89 -148 97 -134V-126Q97 -119 97 -107T97 -77T98 -38T98 6T98 55T98 106Q98 140 98 177T98 243T98 296T97 335T97 351Q94 370 83 376T38 385H20V408Q20 431 22 431L32 432Q42 433 61 434T98 436Q115 437 135 438T165 441T176 442H179V416L180 390L188 397Q247 441 326 441Q407 441 464 377T522 216Q522 115 457 52T310 -11Q242 -11 190 33L182 40V-45V-101Q182 -128 184 -134T195 -145Q216 -148 244 -148H260V-194H252L228 -193Q205 -192 178 -192T140 -191Q37 -191 28 -194H20V-148H36ZM424 218Q424 292 390 347T305 402Q234 402 182 337V98Q222 26 294 26Q345 26 384 80T424 218Z"></path><path id="MJX-112-TEX-N-75" d="M383 58Q327 -10 256 -10H249Q124 -10 105 89Q104 96 103 226Q102 335 102 348T96 369Q86 385 36 385H25V408Q25 431 27 431L38 432Q48 433 67 434T105 436Q122 437 142 438T172 441T184 442H187V261Q188 77 190 64Q193 49 204 40Q224 26 264 26Q290 26 311 35T343 58T363 90T375 120T379 144Q379 145 379 161T380 201T380 248V315Q380 361 370 372T320 385H302V431Q304 431 378 436T457 442H464V264Q464 84 465 81Q468 61 479 55T524 46H542V0Q540 0 467 -5T390 -11H383V58Z"></path><path id="MJX-112-TEX-N-74" d="M27 422Q80 426 109 478T141 600V615H181V431H316V385H181V241Q182 116 182 100T189 68Q203 29 238 29Q282 29 292 100Q293 108 293 146V181H333V146V134Q333 57 291 17Q264 -10 221 -10Q187 -10 162 2T124 33T105 68T98 100Q97 107 97 248V385H18V422H27Z"></path><path id="MJX-112-TEX-N-4C" d="M128 622Q121 629 117 631T101 634T58 637H25V683H36Q48 680 182 680Q324 680 348 683H360V637H333Q273 637 258 635T233 622L232 342V129Q232 57 237 52Q243 47 313 47Q384 47 410 53Q470 70 498 110T536 221Q536 226 537 238T540 261T542 272T562 273H582V268Q580 265 568 137T554 5V0H25V46H58Q100 47 109 49T128 61V622Z"></path><path id="MJX-112-TEX-N-79" d="M69 -66Q91 -66 104 -80T118 -116Q118 -134 109 -145T91 -160Q84 -163 97 -166Q104 -168 111 -168Q131 -168 148 -159T175 -138T197 -106T213 -75T225 -43L242 0L170 183Q150 233 125 297Q101 358 96 368T80 381Q79 382 78 382Q66 385 34 385H19V431H26L46 430Q65 430 88 429T122 428Q129 428 142 428T171 429T200 430T224 430L233 431H241V385H232Q183 385 185 366L286 112Q286 113 332 227L376 341V350Q376 365 366 373T348 383T334 385H331V431H337H344Q351 431 361 431T382 430T405 429T422 429Q477 429 503 431H508V385H497Q441 380 422 345Q420 343 378 235T289 9T227 -131Q180 -204 113 -204Q69 -204 44 -177T19 -116Q19 -89 35 -78T69 -66Z"></path><path id="MJX-112-TEX-N-65" d="M28 218Q28 273 48 318T98 391T163 433T229 448Q282 448 320 430T378 380T406 316T415 245Q415 238 408 231H126V216Q126 68 226 36Q246 30 270 30Q312 30 342 62Q359 79 369 104L379 128Q382 131 395 131H398Q415 131 415 121Q415 117 412 108Q393 53 349 21T250 -11Q155 -11 92 58T28 218ZM333 275Q322 403 238 411H236Q228 411 220 410T195 402T166 381T143 340T127 274V267H333V275Z"></path><path id="MJX-112-TEX-B-1D431" d="M227 0Q212 3 121 3Q40 3 28 0H21V62H117L245 213L109 382H26V444H34Q49 441 143 441Q247 441 265 444H274V382H246L281 339Q315 297 316 297Q320 297 354 341L389 382H352V444H360Q375 441 466 441Q547 441 559 444H566V382H471L355 246L504 63L545 62H586V0H578Q563 3 469 3Q365 3 347 0H338V62H366Q366 63 326 112T285 163L198 63L217 62H235V0H227Z"></path><path id="MJX-112-TEX-I-1D6FC" d="M34 156Q34 270 120 356T309 442Q379 442 421 402T478 304Q484 275 485 237V208Q534 282 560 374Q564 388 566 390T582 393Q603 393 603 385Q603 376 594 346T558 261T497 161L486 147L487 123Q489 67 495 47T514 26Q528 28 540 37T557 60Q559 67 562 68T577 70Q597 70 597 62Q597 56 591 43Q579 19 556 5T512 -10H505Q438 -10 414 62L411 69L400 61Q390 53 370 41T325 18T267 -2T203 -11Q124 -11 79 39T34 156ZM208 26Q257 26 306 47T379 90L403 112Q401 255 396 290Q382 405 304 405Q235 405 183 332Q156 292 139 224T121 120Q121 71 146 49T208 26Z"></path><path id="MJX-112-TEX-N-2299" d="M56 250Q56 394 156 488T384 583Q530 583 626 485T722 250Q722 110 625 14T390 -83Q249 -83 153 14T56 250ZM682 250Q682 322 649 387T546 497T381 542Q272 542 184 459T95 250Q95 132 178 45T389 -42Q515 -42 598 45T682 250ZM311 250Q311 285 332 304T375 328Q376 328 382 328T392 329Q424 326 445 305T466 250Q466 217 445 195T389 172Q354 172 333 195T311 250Z"></path><path id="MJX-112-TEX-N-2212" d="M84 237T84 250T98 270H679Q694 262 694 250T679 230H98Q84 237 84 250Z"></path><path id="MJX-112-TEX-I-1D707" d="M58 -216Q44 -216 34 -208T23 -186Q23 -176 96 116T173 414Q186 442 219 442Q231 441 239 435T249 423T251 413Q251 401 220 279T187 142Q185 131 185 107V99Q185 26 252 26Q261 26 270 27T287 31T302 38T315 45T327 55T338 65T348 77T356 88T365 100L372 110L408 253Q444 395 448 404Q461 431 491 431Q504 431 512 424T523 412T525 402L449 84Q448 79 448 68Q448 43 455 35T476 26Q485 27 496 35Q517 55 537 131Q543 151 547 152Q549 153 557 153H561Q580 153 580 144Q580 138 575 117T555 63T523 13Q510 0 491 -8Q483 -10 467 -10Q446 -10 429 -4T402 11T385 29T376 44T374 51L368 45Q362 39 350 30T324 12T288 -4T246 -11Q199 -11 153 12L129 -85Q108 -167 104 -180T92 -202Q76 -216 58 -216Z"></path><path id="MJX-112-TEX-N-221A" d="M95 178Q89 178 81 186T72 200T103 230T169 280T207 309Q209 311 212 311H213Q219 311 227 294T281 177Q300 134 312 108L397 -77Q398 -77 501 136T707 565T814 786Q820 800 834 800Q841 800 846 794T853 782V776L620 293L385 -193Q381 -200 366 -200Q357 -200 354 -197Q352 -195 256 15L160 225L144 214Q129 202 113 190T95 178Z"></path><path id="MJX-112-TEX-I-1D70E" d="M184 -11Q116 -11 74 34T31 147Q31 247 104 333T274 430Q275 431 414 431H552Q553 430 555 429T559 427T562 425T565 422T567 420T569 416T570 412T571 407T572 401Q572 357 507 357Q500 357 490 357T476 358H416L421 348Q439 310 439 263Q439 153 359 71T184 -11ZM361 278Q361 358 276 358Q152 358 115 184Q114 180 114 178Q106 141 106 117Q106 67 131 47T188 26Q242 26 287 73Q316 103 334 153T356 233T361 278Z"></path><path id="MJX-112-TEX-I-1D716" d="M227 -11Q149 -11 95 41T40 174Q40 262 87 322Q121 367 173 396T287 430Q289 431 329 431H367Q382 426 382 411Q382 385 341 385H325H312Q191 385 154 277L150 265H327Q340 256 340 246Q340 228 320 219H138V217Q128 187 128 143Q128 77 160 52T231 26Q258 26 284 36T326 57T343 68Q350 68 354 58T358 39Q358 36 357 35Q354 31 337 21T289 0T227 -11Z"></path><path id="MJX-112-TEX-I-1D6FD" d="M29 -194Q23 -188 23 -186Q23 -183 102 134T186 465Q208 533 243 584T309 658Q365 705 429 705H431Q493 705 533 667T573 570Q573 465 469 396L482 383Q533 332 533 252Q533 139 448 65T257 -10Q227 -10 203 -2T165 17T143 40T131 59T126 65L62 -188Q60 -194 42 -194H29ZM353 431Q392 431 427 419L432 422Q436 426 439 429T449 439T461 453T472 471T484 495T493 524T501 560Q503 569 503 593Q503 611 502 616Q487 667 426 667Q384 667 347 643T286 582T247 514T224 455Q219 439 186 308T152 168Q151 163 151 147Q151 99 173 68Q204 26 260 26Q302 26 349 51T425 137Q441 171 449 214T457 279Q457 337 422 372Q380 358 347 358H337Q258 358 258 389Q258 396 261 403Q275 431 353 431Z"></path></defs><g stroke="currentColor" fill="currentColor" stroke-width="0" transform="matrix(1 0 0 -1 0 0)"><g data-mml-node="math"><g data-mml-node="mtable"><g data-mml-node="mtr" transform="translate(0, 3239.5)"><g data-mml-node="mtd" transform="translate(993.8, 0)"><g data-mml-node="mi"><use xlink:href="#MJX-112-TEX-N-46"></use><use xlink:href="#MJX-112-TEX-N-46" transform="translate(653, 0)"></use><use xlink:href="#MJX-112-TEX-N-4E" transform="translate(1306, 0)"></use></g><g data-mml-node="mo" transform="translate(2056, 0)"><use xlink:href="#MJX-112-TEX-N-2061"></use></g><g data-mml-node="mrow" transform="translate(2056, 0)"><g data-mml-node="mo"><use xlink:href="#MJX-112-TEX-N-28"></use></g><g data-mml-node="msub" transform="translate(389, 0)"><g data-mml-node="mi"><use xlink:href="#MJX-112-TEX-I-1D467"></use></g><g data-mml-node="TeXAtom" transform="translate(465, -150) scale(0.707)" data-mjx-texclass="ORD"><g data-mml-node="mi"><use xlink:href="#MJX-112-TEX-I-1D456"></use></g></g></g><g data-mml-node="mo" transform="translate(1148, 0)"><use xlink:href="#MJX-112-TEX-N-29"></use></g></g><g data-mml-node="mo" transform="translate(3870.7, 0)"><use xlink:href="#MJX-112-TEX-N-3D"></use></g><g data-mml-node="mo" transform="translate(4926.5, 0)"><use xlink:href="#MJX-112-TEX-N-6D"></use><use xlink:href="#MJX-112-TEX-N-61" transform="translate(833, 0)"></use><use xlink:href="#MJX-112-TEX-N-78" transform="translate(1333, 0)"></use></g><g data-mml-node="mrow" transform="translate(6787.5, 0)"><g data-mml-node="mo"><use xlink:href="#MJX-112-TEX-N-28"></use></g><g data-mml-node="mn" transform="translate(389, 0)"><use xlink:href="#MJX-112-TEX-N-30"></use></g><g data-mml-node="mo" transform="translate(889, 0)"><use xlink:href="#MJX-112-TEX-N-2C"></use></g><g data-mml-node="msub" transform="translate(1333.7, 0)"><g data-mml-node="mi"><use xlink:href="#MJX-112-TEX-I-1D467"></use></g><g data-mml-node="TeXAtom" transform="translate(465, -150) scale(0.707)" data-mjx-texclass="ORD"><g data-mml-node="mi"><use xlink:href="#MJX-112-TEX-I-1D456"></use></g></g></g><g data-mml-node="msub" transform="translate(2092.6, 0)"><g data-mml-node="mi"><use xlink:href="#MJX-112-TEX-I-1D44A"></use></g><g data-mml-node="TeXAtom" transform="translate(944, -150) scale(0.707)" data-mjx-texclass="ORD"><g data-mml-node="mn"><use xlink:href="#MJX-112-TEX-N-31"></use></g></g></g><g data-mml-node="mo" transform="translate(3662.4, 0)"><use xlink:href="#MJX-112-TEX-N-2B"></use></g><g data-mml-node="msub" transform="translate(4662.6, 0)"><g data-mml-node="mi"><use xlink:href="#MJX-112-TEX-I-1D44F"></use></g><g data-mml-node="TeXAtom" transform="translate(429, -150) scale(0.707)" data-mjx-texclass="ORD"><g data-mml-node="mn"><use xlink:href="#MJX-112-TEX-N-31"></use></g></g></g><g data-mml-node="mo" transform="translate(5495.2, 0)"><use xlink:href="#MJX-112-TEX-N-29"></use></g></g><g data-mml-node="msub" transform="translate(12671.7, 0)"><g data-mml-node="mi"><use xlink:href="#MJX-112-TEX-I-1D44A"></use></g><g data-mml-node="TeXAtom" transform="translate(944, -150) scale(0.707)" data-mjx-texclass="ORD"><g data-mml-node="mn"><use xlink:href="#MJX-112-TEX-N-32"></use></g></g></g><g data-mml-node="mo" transform="translate(14241.5, 0)"><use xlink:href="#MJX-112-TEX-N-2B"></use></g><g data-mml-node="msub" transform="translate(15241.7, 0)"><g data-mml-node="mi"><use xlink:href="#MJX-112-TEX-I-1D44F"></use></g><g data-mml-node="TeXAtom" transform="translate(429, -150) scale(0.707)" data-mjx-texclass="ORD"><g data-mml-node="mn"><use xlink:href="#MJX-112-TEX-N-32"></use></g></g></g></g></g><g data-mml-node="mtr" transform="translate(0, 1939.5)"><g data-mml-node="mtd" transform="translate(9030.9, 0)"></g></g><g data-mml-node="mtr" transform="translate(0, 639.5)"><g data-mml-node="mtd"><g data-mml-node="msub"><g data-mml-node="mi"><use xlink:href="#MJX-112-TEX-I-1D44D"></use></g><g data-mml-node="TeXAtom" transform="translate(683, -150) scale(0.707)" data-mjx-texclass="ORD"><g data-mml-node="mi"><use xlink:href="#MJX-112-TEX-I-1D456"></use></g></g></g><g data-mml-node="mo" transform="translate(1254.7, 0)"><use xlink:href="#MJX-112-TEX-N-3D"></use></g><g data-mml-node="msub" transform="translate(2310.5, 0)"><g data-mml-node="mi"><use xlink:href="#MJX-112-TEX-I-1D467"></use></g><g data-mml-node="TeXAtom" transform="translate(465, -150) scale(0.707)" data-mjx-texclass="ORD"><g data-mml-node="mi"><use xlink:href="#MJX-112-TEX-I-1D456"></use></g></g></g><g data-mml-node="mo" transform="translate(3291.7, 0)"><use xlink:href="#MJX-112-TEX-N-2B"></use></g><g data-mml-node="mi" transform="translate(4291.9, 0)"><use xlink:href="#MJX-112-TEX-N-44"></use><use xlink:href="#MJX-112-TEX-N-72" transform="translate(764, 0)"></use><use xlink:href="#MJX-112-TEX-N-6F" transform="translate(1156, 0)"></use><use xlink:href="#MJX-112-TEX-N-70" transform="translate(1656, 0)"></use><use xlink:href="#MJX-112-TEX-N-6F" transform="translate(2212, 0)"></use><use xlink:href="#MJX-112-TEX-N-75" transform="translate(2712, 0)"></use><use xlink:href="#MJX-112-TEX-N-74" transform="translate(3268, 0)"></use></g><g data-mml-node="mo" transform="translate(7948.9, 0)"><use xlink:href="#MJX-112-TEX-N-2061"></use></g><g data-mml-node="mrow" transform="translate(7948.9, 0)"><g data-mml-node="mo"><use xlink:href="#MJX-112-TEX-N-28"></use></g><g data-mml-node="mi" transform="translate(389, 0)"><use xlink:href="#MJX-112-TEX-N-46"></use><use xlink:href="#MJX-112-TEX-N-46" transform="translate(653, 0)"></use><use xlink:href="#MJX-112-TEX-N-4E" transform="translate(1306, 0)"></use></g><g data-mml-node="mo" transform="translate(2445, 0)"><use xlink:href="#MJX-112-TEX-N-2061"></use></g><g data-mml-node="mrow" transform="translate(2445, 0)"><g data-mml-node="mo"><use xlink:href="#MJX-112-TEX-N-28"></use></g><g data-mml-node="mi" transform="translate(389, 0)"><use xlink:href="#MJX-112-TEX-N-4C"></use><use xlink:href="#MJX-112-TEX-N-61" transform="translate(625, 0)"></use><use xlink:href="#MJX-112-TEX-N-79" transform="translate(1125, 0)"></use><use xlink:href="#MJX-112-TEX-N-65" transform="translate(1653, 0)"></use><use xlink:href="#MJX-112-TEX-N-72" transform="translate(2097, 0)"></use><use xlink:href="#MJX-112-TEX-N-4E" transform="translate(2489, 0)"></use><use xlink:href="#MJX-112-TEX-N-6F" transform="translate(3239, 0)"></use><use xlink:href="#MJX-112-TEX-N-72" transform="translate(3739, 0)"></use><use xlink:href="#MJX-112-TEX-N-6D" transform="translate(4131, 0)"></use></g><g data-mml-node="mo" transform="translate(5353, 0)"><use xlink:href="#MJX-112-TEX-N-2061"></use></g><g data-mml-node="mrow" transform="translate(5353, 0)"><g data-mml-node="mo"><use xlink:href="#MJX-112-TEX-N-28"></use></g><g data-mml-node="msub" transform="translate(389, 0)"><g data-mml-node="mi"><use xlink:href="#MJX-112-TEX-I-1D467"></use></g><g data-mml-node="TeXAtom" transform="translate(465, -150) scale(0.707)" data-mjx-texclass="ORD"><g data-mml-node="mi"><use xlink:href="#MJX-112-TEX-I-1D456"></use></g></g></g><g data-mml-node="mo" transform="translate(1148, 0)"><use xlink:href="#MJX-112-TEX-N-29"></use></g></g><g data-mml-node="mo" transform="translate(6890, 0)"><use xlink:href="#MJX-112-TEX-N-29"></use></g></g><g data-mml-node="mo" transform="translate(9724, 0)"><use xlink:href="#MJX-112-TEX-N-29"></use></g></g></g></g><g data-mml-node="mtr" transform="translate(0, -660.5)"><g data-mml-node="mtd" transform="translate(9030.9, 0)"></g></g><g data-mml-node="mtr" transform="translate(0, -2469.5)"><g data-mml-node="mtd" transform="translate(1416.2, 0)"><g data-mml-node="mi"><use xlink:href="#MJX-112-TEX-N-4C"></use><use xlink:href="#MJX-112-TEX-N-61" transform="translate(625, 0)"></use><use xlink:href="#MJX-112-TEX-N-79" transform="translate(1125, 0)"></use><use xlink:href="#MJX-112-TEX-N-65" transform="translate(1653, 0)"></use><use xlink:href="#MJX-112-TEX-N-72" transform="translate(2097, 0)"></use><use xlink:href="#MJX-112-TEX-N-4E" transform="translate(2489, 0)"></use><use xlink:href="#MJX-112-TEX-N-6F" transform="translate(3239, 0)"></use><use xlink:href="#MJX-112-TEX-N-72" transform="translate(3739, 0)"></use><use xlink:href="#MJX-112-TEX-N-6D" transform="translate(4131, 0)"></use></g><g data-mml-node="mo" transform="translate(4964, 0)"><use xlink:href="#MJX-112-TEX-N-2061"></use></g><g data-mml-node="mo" transform="translate(4964, 0)"><use xlink:href="#MJX-112-TEX-N-28"></use></g><g data-mml-node="TeXAtom" data-mjx-texclass="ORD" transform="translate(5353, 0)"><g data-mml-node="mi"><use xlink:href="#MJX-112-TEX-B-1D431"></use></g></g><g data-mml-node="mo" transform="translate(5960, 0)"><use xlink:href="#MJX-112-TEX-N-29"></use></g><g data-mml-node="mo" transform="translate(6626.8, 0)"><use xlink:href="#MJX-112-TEX-N-3D"></use></g><g data-mml-node="mi" transform="translate(7682.6, 0)"><use xlink:href="#MJX-112-TEX-I-1D6FC"></use></g><g data-mml-node="mo" transform="translate(8544.8, 0)"><use xlink:href="#MJX-112-TEX-N-2299"></use></g><g data-mml-node="mfrac" transform="translate(9545, 0)"><g data-mml-node="mrow" transform="translate(731.8, 676)"><g data-mml-node="TeXAtom" data-mjx-texclass="ORD"><g data-mml-node="mi"><use xlink:href="#MJX-112-TEX-B-1D431"></use></g></g><g data-mml-node="mo" transform="translate(829.2, 0)"><use xlink:href="#MJX-112-TEX-N-2212"></use></g><g data-mml-node="mi" transform="translate(1829.4, 0)"><use xlink:href="#MJX-112-TEX-I-1D707"></use></g></g><g data-mml-node="msqrt" transform="translate(220, -926.5)"><g transform="translate(853, 0)"><g data-mml-node="msup"><g data-mml-node="mi"><use xlink:href="#MJX-112-TEX-I-1D70E"></use></g><g data-mml-node="TeXAtom" transform="translate(571, 289) scale(0.707)" data-mjx-texclass="ORD"><g data-mml-node="mn"><use xlink:href="#MJX-112-TEX-N-32"></use></g></g></g><g data-mml-node="mo" transform="translate(1196.8, 0)"><use xlink:href="#MJX-112-TEX-N-2B"></use></g><g data-mml-node="mi" transform="translate(2197, 0)"><use xlink:href="#MJX-112-TEX-I-1D716"></use></g></g><g data-mml-node="mo" transform="translate(0, 106.5)"><use xlink:href="#MJX-112-TEX-N-221A"></use></g><rect width="2603" height="60" x="853" y="846.5"></rect></g><rect width="3656" height="60" x="120" y="220"></rect></g><g data-mml-node="mo" transform="translate(13663.2, 0)"><use xlink:href="#MJX-112-TEX-N-2B"></use></g><g data-mml-node="mi" transform="translate(14663.4, 0)"><use xlink:href="#MJX-112-TEX-I-1D6FD"></use></g></g></g></g></g></g></svg>