<?xml version="1.0" encoding="UTF-8" standalone="no" ?>
<svg xmlns="http://www.w3.org/2000/svg" width="28.939ex" height="10.168ex" viewBox="0 -2497 12791.2 4494.1" xmlns:xlink="http://www.w3.org/1999/xlink" aria-hidden="true" style=""><defs><path id="MJX-2-TEX-B-1D42C" d="M38 315Q38 339 45 360T70 404T127 440T223 453Q273 453 320 436L338 445L357 453H366Q380 453 383 447T386 403V387V355Q386 331 383 326T365 321H355H349Q333 321 329 324T324 341Q317 406 224 406H216Q123 406 123 353Q123 334 143 321T188 304T244 294T285 286Q305 281 325 273T373 237T412 172Q414 162 414 142Q414 -6 230 -6Q154 -6 117 22L68 -6H58Q44 -6 41 0T38 42V73Q38 85 38 101T37 122Q37 144 42 148T68 153H75Q87 153 91 151T97 147T103 132Q131 46 220 46H230Q257 46 265 47Q330 58 330 108Q330 127 316 142Q300 156 284 162Q271 168 212 178T122 202Q38 243 38 315Z"></path><path id="MJX-2-TEX-N-2217" d="M229 286Q216 420 216 436Q216 454 240 464Q241 464 245 464T251 465Q263 464 273 456T283 436Q283 419 277 356T270 286L328 328Q384 369 389 372T399 375Q412 375 423 365T435 338Q435 325 425 315Q420 312 357 282T289 250L355 219L425 184Q434 175 434 161Q434 146 425 136T401 125Q393 125 383 131T328 171L270 213Q283 79 283 63Q283 53 276 44T250 35Q231 35 224 44T216 63Q216 80 222 143T229 213L171 171Q115 130 110 127Q106 124 100 124Q87 124 76 134T64 161Q64 166 64 169T67 175T72 181T81 188T94 195T113 204T138 215T170 230T210 250L74 315Q65 324 65 338Q65 353 74 363T98 374Q106 374 116 368T171 328L229 286Z"></path><path id="MJX-2-TEX-I-1D45B" d="M21 287Q22 293 24 303T36 341T56 388T89 425T135 442Q171 442 195 424T225 390T231 369Q231 367 232 367L243 378Q304 442 382 442Q436 442 469 415T503 336T465 179T427 52Q427 26 444 26Q450 26 453 27Q482 32 505 65T540 145Q542 153 560 153Q580 153 580 145Q580 144 576 130Q568 101 554 73T508 17T439 -10Q392 -10 371 17T350 73Q350 92 386 193T423 345Q423 404 379 404H374Q288 404 229 303L222 291L189 157Q156 26 151 16Q138 -11 108 -11Q95 -11 87 -5T76 7T74 17Q74 30 112 180T152 343Q153 348 153 366Q153 405 129 405Q91 405 66 305Q60 285 60 284Q58 278 41 278H27Q21 284 21 287Z"></path><path id="MJX-2-TEX-N-3D" d="M56 347Q56 360 70 367H707Q722 359 722 347Q722 336 708 328L390 327H72Q56 332 56 347ZM56 153Q56 168 72 173H708Q722 163 722 153Q722 140 707 133H70Q56 140 56 153Z"></path><path id="MJX-2-TEX-N-31" d="M213 578L200 573Q186 568 160 563T102 556H83V602H102Q149 604 189 617T245 641T273 663Q275 666 285 666Q294 666 302 660V361L303 61Q310 54 315 52T339 48T401 46H427V0H416Q395 3 257 3Q121 3 100 0H88V46H114Q136 46 152 46T177 47T193 50T201 52T207 57T213 61V578Z"></path><path id="MJX-2-TEX-I-1D436" d="M50 252Q50 367 117 473T286 641T490 704Q580 704 633 653Q642 643 648 636T656 626L657 623Q660 623 684 649Q691 655 699 663T715 679T725 690L740 705H746Q760 705 760 698Q760 694 728 561Q692 422 692 421Q690 416 687 415T669 413H653Q647 419 647 422Q647 423 648 429T650 449T651 481Q651 552 619 605T510 659Q484 659 454 652T382 628T299 572T226 479Q194 422 175 346T156 222Q156 108 232 58Q280 24 350 24Q441 24 512 92T606 240Q610 253 612 255T628 257Q648 257 648 248Q648 243 647 239Q618 132 523 55T319 -22Q206 -22 128 53T50 252Z"></path><path id="MJX-2-TEX-N-28" d="M94 250Q94 319 104 381T127 488T164 576T202 643T244 695T277 729T302 750H315H319Q333 750 333 741Q333 738 316 720T275 667T226 581T184 443T167 250T184 58T225 -81T274 -167T316 -220T333 -241Q333 -250 318 -250H315H302L274 -226Q180 -141 137 -14T94 250Z"></path><path id="MJX-2-TEX-I-1D446" d="M308 24Q367 24 416 76T466 197Q466 260 414 284Q308 311 278 321T236 341Q176 383 176 462Q176 523 208 573T273 648Q302 673 343 688T407 704H418H425Q521 704 564 640Q565 640 577 653T603 682T623 704Q624 704 627 704T632 705Q645 705 645 698T617 577T585 459T569 456Q549 456 549 465Q549 471 550 475Q550 478 551 494T553 520Q553 554 544 579T526 616T501 641Q465 662 419 662Q362 662 313 616T263 510Q263 480 278 458T319 427Q323 425 389 408T456 390Q490 379 522 342T554 242Q554 216 546 186Q541 164 528 137T492 78T426 18T332 -20Q320 -22 298 -22Q199 -22 144 33L134 44L106 13Q83 -14 78 -18T65 -22Q52 -22 52 -14Q52 -11 110 221Q112 227 130 227H143Q149 221 149 216Q149 214 148 207T144 186T142 153Q144 114 160 87T203 47T255 29T308 24Z"></path><path id="MJX-2-TEX-N-29" d="M60 749L64 750Q69 750 74 750H86L114 726Q208 641 251 514T294 250Q294 182 284 119T261 12T224 -76T186 -143T145 -194T113 -227T90 -246Q87 -249 86 -250H74Q66 -250 63 -250T58 -247T55 -238Q56 -237 66 -225Q221 -64 221 250T66 725Q56 737 55 738Q55 746 60 749Z"></path><path id="MJX-2-TEX-SO-2211" d="M61 748Q64 750 489 750H913L954 640Q965 609 976 579T993 533T999 516H979L959 517Q936 579 886 621T777 682Q724 700 655 705T436 710H319Q183 710 183 709Q186 706 348 484T511 259Q517 250 513 244L490 216Q466 188 420 134T330 27L149 -187Q149 -188 362 -188Q388 -188 436 -188T506 -189Q679 -189 778 -162T936 -43Q946 -27 959 6H999L913 -249L489 -250Q65 -250 62 -248Q56 -246 56 -239Q56 -234 118 -161Q186 -81 245 -11L428 206Q428 207 242 462L57 717L56 728Q56 744 61 748Z"></path><path id="MJX-2-TEX-N-2212" d="M84 237T84 250T98 270H679Q694 262 694 250T679 230H98Q84 237 84 250Z"></path><path id="MJX-2-TEX-I-210E" d="M137 683Q138 683 209 688T282 694Q294 694 294 685Q294 674 258 534Q220 386 220 383Q220 381 227 388Q288 442 357 442Q411 442 444 415T478 336Q478 285 440 178T402 50Q403 36 407 31T422 26Q450 26 474 56T513 138Q516 149 519 151T535 153Q555 153 555 145Q555 144 551 130Q535 71 500 33Q466 -10 419 -10H414Q367 -10 346 17T325 74Q325 90 361 192T398 345Q398 404 354 404H349Q266 404 205 306L198 293L164 158Q132 28 127 16Q114 -11 83 -11Q69 -11 59 -2T48 16Q48 30 121 320L195 616Q195 629 188 632T149 637H128Q122 643 122 645T124 664Q129 683 137 683Z"></path><path id="MJX-2-TEX-I-1D453" d="M118 -162Q120 -162 124 -164T135 -167T147 -168Q160 -168 171 -155T187 -126Q197 -99 221 27T267 267T289 382V385H242Q195 385 192 387Q188 390 188 397L195 425Q197 430 203 430T250 431Q298 431 298 432Q298 434 307 482T319 540Q356 705 465 705Q502 703 526 683T550 630Q550 594 529 578T487 561Q443 561 443 603Q443 622 454 636T478 657L487 662Q471 668 457 668Q445 668 434 658T419 630Q412 601 403 552T387 469T380 433Q380 431 435 431Q480 431 487 430T498 424Q499 420 496 407T491 391Q489 386 482 386T428 385H372L349 263Q301 15 282 -47Q255 -132 212 -173Q175 -205 139 -205Q107 -205 81 -186T55 -132Q55 -95 76 -78T118 -61Q162 -61 162 -103Q162 -122 151 -136T127 -157L118 -162Z"></path><path id="MJX-2-TEX-N-2C" d="M78 35T78 60T94 103T137 121Q165 121 187 96T210 8Q210 -27 201 -60T180 -117T154 -158T130 -185T117 -194Q113 -194 104 -185T95 -172Q95 -168 106 -156T131 -126T157 -76T173 -3V9L172 8Q170 7 167 6T161 3T152 1T140 0Q113 0 96 17Z"></path><path id="MJX-2-TEX-I-1D454" d="M311 43Q296 30 267 15T206 0Q143 0 105 45T66 160Q66 265 143 353T314 442Q361 442 401 394L404 398Q406 401 409 404T418 412T431 419T447 422Q461 422 470 413T480 394Q480 379 423 152T363 -80Q345 -134 286 -169T151 -205Q10 -205 10 -137Q10 -111 28 -91T74 -71Q89 -71 102 -80T116 -111Q116 -121 114 -130T107 -144T99 -154T92 -162L90 -164H91Q101 -167 151 -167Q189 -167 211 -155Q234 -144 254 -122T282 -75Q288 -56 298 -13Q311 35 311 43ZM384 328L380 339Q377 350 375 354T369 368T359 382T346 393T328 402T306 405Q262 405 221 352Q191 313 171 233T151 117Q151 38 213 38Q269 38 323 108L331 118L384 328Z"></path><path id="MJX-2-TEX-N-65" d="M28 218Q28 273 48 318T98 391T163 433T229 448Q282 448 320 430T378 380T406 316T415 245Q415 238 408 231H126V216Q126 68 226 36Q246 30 270 30Q312 30 342 62Q359 79 369 104L379 128Q382 131 395 131H398Q415 131 415 121Q415 117 412 108Q393 53 349 21T250 -11Q155 -11 92 58T28 218ZM333 275Q322 403 238 411H236Q228 411 220 410T195 402T166 381T143 340T127 274V267H333V275Z"></path><path id="MJX-2-TEX-N-78" d="M201 0Q189 3 102 3Q26 3 17 0H11V46H25Q48 47 67 52T96 61T121 78T139 96T160 122T180 150L226 210L168 288Q159 301 149 315T133 336T122 351T113 363T107 370T100 376T94 379T88 381T80 383Q74 383 44 385H16V431H23Q59 429 126 429Q219 429 229 431H237V385Q201 381 201 369Q201 367 211 353T239 315T268 274L272 270L297 304Q329 345 329 358Q329 364 327 369T322 376T317 380T310 384L307 385H302V431H309Q324 428 408 428Q487 428 493 431H499V385H492Q443 385 411 368Q394 360 377 341T312 257L296 236L358 151Q424 61 429 57T446 50Q464 46 499 46H516V0H510H502Q494 1 482 1T457 2T432 2T414 3Q403 3 377 3T327 1L304 0H295V46H298Q309 46 320 51T331 63Q331 65 291 120L250 175Q249 174 219 133T185 88Q181 83 181 74Q181 63 188 55T206 46Q208 46 208 23V0H201Z"></path><path id="MJX-2-TEX-N-70" d="M36 -148H50Q89 -148 97 -134V-126Q97 -119 97 -107T97 -77T98 -38T98 6T98 55T98 106Q98 140 98 177T98 243T98 296T97 335T97 351Q94 370 83 376T38 385H20V408Q20 431 22 431L32 432Q42 433 61 434T98 436Q115 437 135 438T165 441T176 442H179V416L180 390L188 397Q247 441 326 441Q407 441 464 377T522 216Q522 115 457 52T310 -11Q242 -11 190 33L182 40V-45V-101Q182 -128 184 -134T195 -145Q216 -148 244 -148H260V-194H252L228 -193Q205 -192 178 -192T140 -191Q37 -191 28 -194H20V-148H36ZM424 218Q424 292 390 347T305 402Q234 402 182 337V98Q222 26 294 26Q345 26 384 80T424 218Z"></path><path id="MJX-2-TEX-N-2061" d=""></path><path id="MJX-2-TEX-SO-28" d="M152 251Q152 646 388 850H416Q422 844 422 841Q422 837 403 816T357 753T302 649T255 482T236 250Q236 124 255 19T301 -147T356 -251T403 -315T422 -340Q422 -343 416 -349H388Q359 -325 332 -296T271 -213T212 -97T170 56T152 251Z"></path><path id="MJX-2-TEX-N-22A4" d="M55 642T55 648T59 659T66 666T71 668H708Q723 660 723 648T708 628H409V15Q402 2 391 0Q387 0 384 1T379 3T375 6T373 9T371 13T369 16V628H71Q70 628 67 630T59 637Z"></path><path id="MJX-2-TEX-SO-29" d="M305 251Q305 -145 69 -349H56Q43 -349 39 -347T35 -338Q37 -333 60 -307T108 -239T160 -136T204 27T221 250T204 473T160 636T108 740T60 807T35 839Q35 850 50 850H56H69Q197 743 256 566Q305 425 305 251Z"></path><path id="MJX-2-TEX-B-1D416" d="M915 686L1052 683Q1142 683 1157 686H1164V624H1073L957 320Q930 249 900 170T855 52T839 10Q834 0 826 -5Q821 -7 799 -7H792Q777 -7 772 -5T759 10Q759 11 748 39T716 122T676 228L594 442L512 228Q486 159 455 78Q433 19 428 9T416 -5Q411 -7 389 -7H379Q356 -7 349 10Q349 12 334 51T288 170T231 320L116 624H24V686H35Q44 683 183 683Q331 683 355 686H368V624H323Q278 624 278 623L437 207L499 369L561 531L526 624H434V686H445Q454 683 593 683Q741 683 765 686H778V624H733Q688 624 688 623L847 207Q848 207 927 415T1006 624H905V686H915Z"></path></defs><g stroke="currentColor" fill="currentColor" stroke-width="0" transform="matrix(1 0 0 -1 0 0)"><g data-mml-node="math"><g data-mml-node="mtable"><g data-mml-node="mtr" transform="translate(0, 1549.1)"><g data-mml-node="mtd"><g data-mml-node="msubsup"><g data-mml-node="TeXAtom" data-mjx-texclass="ORD"><g data-mml-node="mi"><use xlink:href="#MJX-2-TEX-B-1D42C"></use></g></g><g data-mml-node="TeXAtom" transform="translate(454, 363) scale(0.707)" data-mjx-texclass="ORD"><g data-mml-node="mo"><use xlink:href="#MJX-2-TEX-N-2217"></use></g></g><g data-mml-node="TeXAtom" transform="translate(454, -247) scale(0.707)" data-mjx-texclass="ORD"><g data-mml-node="mi"><use xlink:href="#MJX-2-TEX-I-1D45B"></use></g></g></g><g data-mml-node="mo" transform="translate(1206, 0)"><use xlink:href="#MJX-2-TEX-N-3D"></use></g><g data-mml-node="mfrac" transform="translate(2261.8, 0)"><g data-mml-node="mn" transform="translate(815, 394) scale(0.707)"><use xlink:href="#MJX-2-TEX-N-31"></use></g><g data-mml-node="mrow" transform="translate(220, -370.3) scale(0.707)"><g data-mml-node="mi"><use xlink:href="#MJX-2-TEX-I-1D436"></use></g><g data-mml-node="mo" transform="translate(760, 0)"><use xlink:href="#MJX-2-TEX-N-28"></use></g><g data-mml-node="mi" transform="translate(1149, 0)"><use xlink:href="#MJX-2-TEX-I-1D446"></use></g><g data-mml-node="mo" transform="translate(1794, 0)"><use xlink:href="#MJX-2-TEX-N-29"></use></g></g><rect width="1743.6" height="60" x="120" y="220"></rect></g><g data-mml-node="munderover" transform="translate(4412.1, 0)"><g data-mml-node="mo"><use xlink:href="#MJX-2-TEX-SO-2211"></use></g><g data-mml-node="TeXAtom" transform="translate(1056, 477.1) scale(0.707)" data-mjx-texclass="ORD"><g data-mml-node="mi"><use xlink:href="#MJX-2-TEX-I-1D45B"></use></g><g data-mml-node="mo" transform="translate(600, 0)"><use xlink:href="#MJX-2-TEX-N-2212"></use></g><g data-mml-node="mn" transform="translate(1378, 0)"><use xlink:href="#MJX-2-TEX-N-31"></use></g></g><g data-mml-node="TeXAtom" transform="translate(1056, -285.4) scale(0.707)" data-mjx-texclass="ORD"><g data-mml-node="mi"><use xlink:href="#MJX-2-TEX-I-210E"></use></g></g></g><g data-mml-node="mi" transform="translate(7012.7, 0)"><use xlink:href="#MJX-2-TEX-I-1D453"></use></g><g data-mml-node="mrow" transform="translate(7562.7, 0)"><g data-mml-node="mo"><use xlink:href="#MJX-2-TEX-N-28"></use></g><g data-mml-node="msub" transform="translate(389, 0)"><g data-mml-node="TeXAtom" data-mjx-texclass="ORD"><g data-mml-node="mi"><use xlink:href="#MJX-2-TEX-B-1D42C"></use></g></g><g data-mml-node="TeXAtom" transform="translate(454, -150) scale(0.707)" data-mjx-texclass="ORD"><g data-mml-node="mi"><use xlink:href="#MJX-2-TEX-I-1D45B"></use></g></g></g><g data-mml-node="mo" transform="translate(1317.3, 0)"><use xlink:href="#MJX-2-TEX-N-2C"></use></g><g data-mml-node="msub" transform="translate(1761.9, 0)"><g data-mml-node="TeXAtom" data-mjx-texclass="ORD"><g data-mml-node="mi"><use xlink:href="#MJX-2-TEX-B-1D42C"></use></g></g><g data-mml-node="TeXAtom" transform="translate(454, -150) scale(0.707)" data-mjx-texclass="ORD"><g data-mml-node="mi"><use xlink:href="#MJX-2-TEX-I-210E"></use></g></g></g><g data-mml-node="mo" transform="translate(2673.2, 0)"><use xlink:href="#MJX-2-TEX-N-29"></use></g></g><g data-mml-node="mi" transform="translate(10624.9, 0)"><use xlink:href="#MJX-2-TEX-I-1D454"></use></g><g data-mml-node="mrow" transform="translate(11101.9, 0)"><g data-mml-node="mo"><use xlink:href="#MJX-2-TEX-N-28"></use></g><g data-mml-node="msub" transform="translate(389, 0)"><g data-mml-node="TeXAtom" data-mjx-texclass="ORD"><g data-mml-node="mi"><use xlink:href="#MJX-2-TEX-B-1D42C"></use></g></g><g data-mml-node="TeXAtom" transform="translate(454, -150) scale(0.707)" data-mjx-texclass="ORD"><g data-mml-node="mi"><use xlink:href="#MJX-2-TEX-I-210E"></use></g></g></g><g data-mml-node="mo" transform="translate(1300.3, 0)"><use xlink:href="#MJX-2-TEX-N-29"></use></g></g></g></g><g data-mml-node="mtr" transform="translate(0, -247.5)"><g data-mml-node="mtd" transform="translate(1718, 0)"><g data-mml-node="mi"><use xlink:href="#MJX-2-TEX-I-1D453"></use></g><g data-mml-node="mrow" transform="translate(550, 0)"><g data-mml-node="mo"><use xlink:href="#MJX-2-TEX-N-28"></use></g><g data-mml-node="msub" transform="translate(389, 0)"><g data-mml-node="TeXAtom" data-mjx-texclass="ORD"><g data-mml-node="mi"><use xlink:href="#MJX-2-TEX-B-1D42C"></use></g></g><g data-mml-node="TeXAtom" transform="translate(454, -150) scale(0.707)" data-mjx-texclass="ORD"><g data-mml-node="mi"><use xlink:href="#MJX-2-TEX-I-1D45B"></use></g></g></g><g data-mml-node="mo" transform="translate(1317.3, 0)"><use xlink:href="#MJX-2-TEX-N-2C"></use></g><g data-mml-node="msub" transform="translate(1761.9, 0)"><g data-mml-node="TeXAtom" data-mjx-texclass="ORD"><g data-mml-node="mi"><use xlink:href="#MJX-2-TEX-B-1D42C"></use></g></g><g data-mml-node="TeXAtom" transform="translate(454, -150) scale(0.707)" data-mjx-texclass="ORD"><g data-mml-node="mi"><use xlink:href="#MJX-2-TEX-I-210E"></use></g></g></g><g data-mml-node="mo" transform="translate(2673.2, 0)"><use xlink:href="#MJX-2-TEX-N-29"></use></g></g><g data-mml-node="mo" transform="translate(3890, 0)"><use xlink:href="#MJX-2-TEX-N-3D"></use></g><g data-mml-node="mi" transform="translate(4945.8, 0)"><use xlink:href="#MJX-2-TEX-N-65"></use><use xlink:href="#MJX-2-TEX-N-78" transform="translate(444, 0)"></use><use xlink:href="#MJX-2-TEX-N-70" transform="translate(972, 0)"></use></g><g data-mml-node="mo" transform="translate(6473.8, 0)"><use xlink:href="#MJX-2-TEX-N-2061"></use></g><g data-mml-node="mrow" transform="translate(6473.8, 0)"><g data-mml-node="mo"><use xlink:href="#MJX-2-TEX-SO-28"></use></g><g data-mml-node="msubsup" transform="translate(458, 0)"><g data-mml-node="TeXAtom" data-mjx-texclass="ORD"><g data-mml-node="mi"><use xlink:href="#MJX-2-TEX-B-1D42C"></use></g></g><g data-mml-node="TeXAtom" transform="translate(454, 363) scale(0.707)" data-mjx-texclass="ORD"><g data-mml-node="mi"><use xlink:href="#MJX-2-TEX-N-22A4"></use></g></g><g data-mml-node="TeXAtom" transform="translate(454, -247) scale(0.707)" data-mjx-texclass="ORD"><g data-mml-node="mi"><use xlink:href="#MJX-2-TEX-I-1D45B"></use></g></g></g><g data-mml-node="msub" transform="translate(1512.1, 0)"><g data-mml-node="TeXAtom" data-mjx-texclass="ORD"><g data-mml-node="mi"><use xlink:href="#MJX-2-TEX-B-1D42C"></use></g></g><g data-mml-node="TeXAtom" transform="translate(454, -150) scale(0.707)" data-mjx-texclass="ORD"><g data-mml-node="mi"><use xlink:href="#MJX-2-TEX-I-210E"></use></g></g></g><g data-mml-node="mo" transform="translate(2423.4, 0)"><use xlink:href="#MJX-2-TEX-SO-29"></use></g></g></g></g><g data-mml-node="mtr" transform="translate(0, -1747)"><g data-mml-node="mtd" transform="translate(3366.9, 0)"><g data-mml-node="mi"><use xlink:href="#MJX-2-TEX-I-1D454"></use></g><g data-mml-node="mrow" transform="translate(477, 0)"><g data-mml-node="mo"><use xlink:href="#MJX-2-TEX-N-28"></use></g><g data-mml-node="msub" transform="translate(389, 0)"><g data-mml-node="TeXAtom" data-mjx-texclass="ORD"><g data-mml-node="mi"><use xlink:href="#MJX-2-TEX-B-1D42C"></use></g></g><g data-mml-node="TeXAtom" transform="translate(454, -150) scale(0.707)" data-mjx-texclass="ORD"><g data-mml-node="mi"><use xlink:href="#MJX-2-TEX-I-210E"></use></g></g></g><g data-mml-node="mo" transform="translate(1300.3, 0)"><use xlink:href="#MJX-2-TEX-N-29"></use></g></g><g data-mml-node="mo" transform="translate(2444.1, 0)"><use xlink:href="#MJX-2-TEX-N-3D"></use></g><g data-mml-node="msub" transform="translate(3499.8, 0)"><g data-mml-node="TeXAtom" data-mjx-texclass="ORD"><g data-mml-node="mi"><use xlink:href="#MJX-2-TEX-B-1D416"></use></g></g><g data-mml-node="TeXAtom" transform="translate(1189, -150) scale(0.707)" data-mjx-texclass="ORD"><g data-mml-node="mi"><use xlink:href="#MJX-2-TEX-I-210E"></use></g></g></g><g data-mml-node="msub" transform="translate(5146.1, 0)"><g data-mml-node="TeXAtom" data-mjx-texclass="ORD"><g data-mml-node="mi"><use xlink:href="#MJX-2-TEX-B-1D42C"></use></g></g><g data-mml-node="TeXAtom" transform="translate(454, -150) scale(0.707)" data-mjx-texclass="ORD"><g data-mml-node="mi"><use xlink:href="#MJX-2-TEX-I-210E"></use></g></g></g></g></g></g></g></g></svg>