<?xml version="1.0" encoding="UTF-8" standalone="no" ?>
<svg xmlns="http://www.w3.org/2000/svg" width="29.352ex" height="9.734ex" viewBox="0 -2401.2 12973.8 4302.3" xmlns:xlink="http://www.w3.org/1999/xlink" aria-hidden="true" style=""><defs><path id="MJX-54-TEX-B-1D429" d="M32 442L123 446Q214 450 215 450H221V409Q222 409 229 413T251 423T284 436T328 446T382 450Q480 450 540 388T600 223Q600 128 539 61T361 -6H354Q292 -6 236 28L227 34V-132H296V-194H287Q269 -191 163 -191Q56 -191 38 -194H29V-132H98V113V284Q98 330 97 348T93 370T83 376Q69 380 42 380H29V442H32ZM457 224Q457 303 427 349T350 395Q282 395 235 352L227 345V104L233 97Q274 45 337 45Q383 45 420 86T457 224Z"></path><path id="MJX-54-TEX-N-3D" d="M56 347Q56 360 70 367H707Q722 359 722 347Q722 336 708 328L390 327H72Q56 332 56 347ZM56 153Q56 168 72 173H708Q722 163 722 153Q722 140 707 133H70Q56 140 56 153Z"></path><path id="MJX-54-TEX-N-73" d="M295 316Q295 356 268 385T190 414Q154 414 128 401Q98 382 98 349Q97 344 98 336T114 312T157 287Q175 282 201 278T245 269T277 256Q294 248 310 236T342 195T359 133Q359 71 321 31T198 -10H190Q138 -10 94 26L86 19L77 10Q71 4 65 -1L54 -11H46H42Q39 -11 33 -5V74V132Q33 153 35 157T45 162H54Q66 162 70 158T75 146T82 119T101 77Q136 26 198 26Q295 26 295 104Q295 133 277 151Q257 175 194 187T111 210Q75 227 54 256T33 318Q33 357 50 384T93 424T143 442T187 447H198Q238 447 268 432L283 424L292 431Q302 440 314 448H322H326Q329 448 335 442V310L329 304H301Q295 310 295 316Z"></path><path id="MJX-54-TEX-N-6F" d="M28 214Q28 309 93 378T250 448Q340 448 405 380T471 215Q471 120 407 55T250 -10Q153 -10 91 57T28 214ZM250 30Q372 30 372 193V225V250Q372 272 371 288T364 326T348 362T317 390T268 410Q263 411 252 411Q222 411 195 399Q152 377 139 338T126 246V226Q126 130 145 91Q177 30 250 30Z"></path><path id="MJX-54-TEX-N-66" d="M273 0Q255 3 146 3Q43 3 34 0H26V46H42Q70 46 91 49Q99 52 103 60Q104 62 104 224V385H33V431H104V497L105 564L107 574Q126 639 171 668T266 704Q267 704 275 704T289 705Q330 702 351 679T372 627Q372 604 358 590T321 576T284 590T270 627Q270 647 288 667H284Q280 668 273 668Q245 668 223 647T189 592Q183 572 182 497V431H293V385H185V225Q185 63 186 61T189 57T194 54T199 51T206 49T213 48T222 47T231 47T241 46T251 46H282V0H273Z"></path><path id="MJX-54-TEX-N-74" d="M27 422Q80 426 109 478T141 600V615H181V431H316V385H181V241Q182 116 182 100T189 68Q203 29 238 29Q282 29 292 100Q293 108 293 146V181H333V146V134Q333 57 291 17Q264 -10 221 -10Q187 -10 162 2T124 33T105 68T98 100Q97 107 97 248V385H18V422H27Z"></path><path id="MJX-54-TEX-N-6D" d="M41 46H55Q94 46 102 60V68Q102 77 102 91T102 122T103 161T103 203Q103 234 103 269T102 328V351Q99 370 88 376T43 385H25V408Q25 431 27 431L37 432Q47 433 65 434T102 436Q119 437 138 438T167 441T178 442H181V402Q181 364 182 364T187 369T199 384T218 402T247 421T285 437Q305 442 336 442Q351 442 364 440T387 434T406 426T421 417T432 406T441 395T448 384T452 374T455 366L457 361L460 365Q463 369 466 373T475 384T488 397T503 410T523 422T546 432T572 439T603 442Q729 442 740 329Q741 322 741 190V104Q741 66 743 59T754 49Q775 46 803 46H819V0H811L788 1Q764 2 737 2T699 3Q596 3 587 0H579V46H595Q656 46 656 62Q657 64 657 200Q656 335 655 343Q649 371 635 385T611 402T585 404Q540 404 506 370Q479 343 472 315T464 232V168V108Q464 78 465 68T468 55T477 49Q498 46 526 46H542V0H534L510 1Q487 2 460 2T422 3Q319 3 310 0H302V46H318Q379 46 379 62Q380 64 380 200Q379 335 378 343Q372 371 358 385T334 402T308 404Q263 404 229 370Q202 343 195 315T187 232V168V108Q187 78 188 68T191 55T200 49Q221 46 249 46H265V0H257L234 1Q210 2 183 2T145 3Q42 3 33 0H25V46H41Z"></path><path id="MJX-54-TEX-N-61" d="M137 305T115 305T78 320T63 359Q63 394 97 421T218 448Q291 448 336 416T396 340Q401 326 401 309T402 194V124Q402 76 407 58T428 40Q443 40 448 56T453 109V145H493V106Q492 66 490 59Q481 29 455 12T400 -6T353 12T329 54V58L327 55Q325 52 322 49T314 40T302 29T287 17T269 6T247 -2T221 -8T190 -11Q130 -11 82 20T34 107Q34 128 41 147T68 188T116 225T194 253T304 268H318V290Q318 324 312 340Q290 411 215 411Q197 411 181 410T156 406T148 403Q170 388 170 359Q170 334 154 320ZM126 106Q126 75 150 51T209 26Q247 26 276 49T315 109Q317 116 318 175Q318 233 317 233Q309 233 296 232T251 223T193 203T147 166T126 106Z"></path><path id="MJX-54-TEX-N-78" d="M201 0Q189 3 102 3Q26 3 17 0H11V46H25Q48 47 67 52T96 61T121 78T139 96T160 122T180 150L226 210L168 288Q159 301 149 315T133 336T122 351T113 363T107 370T100 376T94 379T88 381T80 383Q74 383 44 385H16V431H23Q59 429 126 429Q219 429 229 431H237V385Q201 381 201 369Q201 367 211 353T239 315T268 274L272 270L297 304Q329 345 329 358Q329 364 327 369T322 376T317 380T310 384L307 385H302V431H309Q324 428 408 428Q487 428 493 431H499V385H492Q443 385 411 368Q394 360 377 341T312 257L296 236L358 151Q424 61 429 57T446 50Q464 46 499 46H516V0H510H502Q494 1 482 1T457 2T432 2T414 3Q403 3 377 3T327 1L304 0H295V46H298Q309 46 320 51T331 63Q331 65 291 120L250 175Q249 174 219 133T185 88Q181 83 181 74Q181 63 188 55T206 46Q208 46 208 23V0H201Z"></path><path id="MJX-54-TEX-N-2061" d=""></path><path id="MJX-54-TEX-SO-28" d="M152 251Q152 646 388 850H416Q422 844 422 841Q422 837 403 816T357 753T302 649T255 482T236 250Q236 124 255 19T301 -147T356 -251T403 -315T422 -340Q422 -343 416 -349H388Q359 -325 332 -296T271 -213T212 -97T170 56T152 251Z"></path><path id="MJX-54-TEX-B-1D416" d="M915 686L1052 683Q1142 683 1157 686H1164V624H1073L957 320Q930 249 900 170T855 52T839 10Q834 0 826 -5Q821 -7 799 -7H792Q777 -7 772 -5T759 10Q759 11 748 39T716 122T676 228L594 442L512 228Q486 159 455 78Q433 19 428 9T416 -5Q411 -7 389 -7H379Q356 -7 349 10Q349 12 334 51T288 170T231 320L116 624H24V686H35Q44 683 183 683Q331 683 355 686H368V624H323Q278 624 278 623L437 207L499 369L561 531L526 624H434V686H445Q454 683 593 683Q741 683 765 686H778V624H733Q688 624 688 623L847 207Q848 207 927 415T1006 624H905V686H915Z"></path><path id="MJX-54-TEX-I-1D45D" d="M23 287Q24 290 25 295T30 317T40 348T55 381T75 411T101 433T134 442Q209 442 230 378L240 387Q302 442 358 442Q423 442 460 395T497 281Q497 173 421 82T249 -10Q227 -10 210 -4Q199 1 187 11T168 28L161 36Q160 35 139 -51T118 -138Q118 -144 126 -145T163 -148H188Q194 -155 194 -157T191 -175Q188 -187 185 -190T172 -194Q170 -194 161 -194T127 -193T65 -192Q-5 -192 -24 -194H-32Q-39 -187 -39 -183Q-37 -156 -26 -148H-6Q28 -147 33 -136Q36 -130 94 103T155 350Q156 355 156 364Q156 405 131 405Q109 405 94 377T71 316T59 280Q57 278 43 278H29Q23 284 23 287ZM178 102Q200 26 252 26Q282 26 310 49T356 107Q374 141 392 215T411 325V331Q411 405 350 405Q339 405 328 402T306 393T286 380T269 365T254 350T243 336T235 326L232 322Q232 321 229 308T218 264T204 212Q178 106 178 102Z"></path><path id="MJX-54-TEX-B-1D42C" d="M38 315Q38 339 45 360T70 404T127 440T223 453Q273 453 320 436L338 445L357 453H366Q380 453 383 447T386 403V387V355Q386 331 383 326T365 321H355H349Q333 321 329 324T324 341Q317 406 224 406H216Q123 406 123 353Q123 334 143 321T188 304T244 294T285 286Q305 281 325 273T373 237T412 172Q414 162 414 142Q414 -6 230 -6Q154 -6 117 22L68 -6H58Q44 -6 41 0T38 42V73Q38 85 38 101T37 122Q37 144 42 148T68 153H75Q87 153 91 151T97 147T103 132Q131 46 220 46H230Q257 46 265 47Q330 58 330 108Q330 127 316 142Q300 156 284 162Q271 168 212 178T122 202Q38 243 38 315Z"></path><path id="MJX-54-TEX-N-2B" d="M56 237T56 250T70 270H369V420L370 570Q380 583 389 583Q402 583 409 568V270H707Q722 262 722 250T707 230H409V-68Q401 -82 391 -82H389H387Q375 -82 369 -68V230H70Q56 237 56 250Z"></path><path id="MJX-54-TEX-I-1D45B" d="M21 287Q22 293 24 303T36 341T56 388T89 425T135 442Q171 442 195 424T225 390T231 369Q231 367 232 367L243 378Q304 442 382 442Q436 442 469 415T503 336T465 179T427 52Q427 26 444 26Q450 26 453 27Q482 32 505 65T540 145Q542 153 560 153Q580 153 580 145Q580 144 576 130Q568 101 554 73T508 17T439 -10Q392 -10 371 17T350 73Q350 92 386 193T423 345Q423 404 379 404H374Q288 404 229 303L222 291L189 157Q156 26 151 16Q138 -11 108 -11Q95 -11 87 -5T76 7T74 17Q74 30 112 180T152 343Q153 348 153 366Q153 405 129 405Q91 405 66 305Q60 285 60 284Q58 278 41 278H27Q21 284 21 287Z"></path><path id="MJX-54-TEX-N-2295" d="M56 250Q56 394 156 488T384 583Q530 583 626 485T722 250Q722 110 625 14T390 -83Q249 -83 153 14T56 250ZM364 542Q308 539 251 509T148 418T96 278V270H369V542H364ZM681 278Q675 338 650 386T592 462T522 509T458 535T412 542H409V270H681V278ZM96 222Q104 150 139 95T219 12T302 -29T366 -42H369V230H96V222ZM681 222V230H409V-42H412Q429 -42 456 -36T521 -10T590 37T649 113T681 222Z"></path><path id="MJX-54-TEX-B-1D421" d="M40 686L131 690Q222 694 223 694H229V533L230 372L238 381Q248 394 264 407T317 435T398 450Q428 450 448 447T491 434T529 402T551 346Q553 335 554 198V62H623V0H614Q596 3 489 3Q374 3 365 0H356V62H425V194V275Q425 348 416 373T371 399Q326 399 288 370T238 290Q236 281 235 171V62H304V0H295Q277 3 171 3Q64 3 46 0H37V62H106V332Q106 387 106 453T107 534Q107 593 105 605T91 620Q77 624 50 624H37V686H40Z"></path><path id="MJX-54-TEX-I-1D461" d="M26 385Q19 392 19 395Q19 399 22 411T27 425Q29 430 36 430T87 431H140L159 511Q162 522 166 540T173 566T179 586T187 603T197 615T211 624T229 626Q247 625 254 615T261 596Q261 589 252 549T232 470L222 433Q222 431 272 431H323Q330 424 330 420Q330 398 317 385H210L174 240Q135 80 135 68Q135 26 162 26Q197 26 230 60T283 144Q285 150 288 151T303 153H307Q322 153 322 145Q322 142 319 133Q314 117 301 95T267 48T216 6T155 -11Q125 -11 98 4T59 56Q57 64 57 83V101L92 241Q127 382 128 383Q128 385 77 385H26Z"></path><path id="MJX-54-TEX-N-2212" d="M84 237T84 250T98 270H679Q694 262 694 250T679 230H98Q84 237 84 250Z"></path><path id="MJX-54-TEX-N-31" d="M213 578L200 573Q186 568 160 563T102 556H83V602H102Q149 604 189 617T245 641T273 663Q275 666 285 666Q294 666 302 660V361L303 61Q310 54 315 52T339 48T401 46H427V0H416Q395 3 257 3Q121 3 100 0H88V46H114Q136 46 152 46T177 47T193 50T201 52T207 57T213 61V578Z"></path><path id="MJX-54-TEX-SO-29" d="M305 251Q305 -145 69 -349H56Q43 -349 39 -347T35 -338Q37 -333 60 -307T108 -239T160 -136T204 27T221 250T204 473T160 636T108 740T60 807T35 839Q35 850 50 850H56H69Q197 743 256 566Q305 425 305 251Z"></path><path id="MJX-54-TEX-C-4C" d="M62 -22T47 -22T32 -11Q32 -1 56 24T83 55Q113 96 138 172T180 320T234 473T323 609Q364 649 419 677T531 705Q559 705 578 696T604 671T615 645T618 623V611Q618 582 615 571T598 548Q581 531 558 520T518 509Q503 509 503 520Q503 523 505 536T507 560Q507 590 494 610T452 630Q423 630 410 617Q367 578 333 492T271 301T233 170Q211 123 204 112L198 103L224 102Q281 102 369 79T509 52H523Q535 64 544 87T579 128Q616 152 641 152Q656 152 656 142Q656 101 588 40T433 -22Q381 -22 289 1T156 28L141 29L131 20Q111 0 87 -11Z"></path><path id="MJX-54-TEX-SO-2211" d="M61 748Q64 750 489 750H913L954 640Q965 609 976 579T993 533T999 516H979L959 517Q936 579 886 621T777 682Q724 700 655 705T436 710H319Q183 710 183 709Q186 706 348 484T511 259Q517 250 513 244L490 216Q466 188 420 134T330 27L149 -187Q149 -188 362 -188Q388 -188 436 -188T506 -189Q679 -189 778 -162T936 -43Q946 -27 959 6H999L913 -249L489 -250Q65 -250 62 -248Q56 -246 56 -239Q56 -234 118 -161Q186 -81 245 -11L428 206Q428 207 242 462L57 717L56 728Q56 744 61 748Z"></path><path id="MJX-54-TEX-I-1D441" d="M234 637Q231 637 226 637Q201 637 196 638T191 649Q191 676 202 682Q204 683 299 683Q376 683 387 683T401 677Q612 181 616 168L670 381Q723 592 723 606Q723 633 659 637Q635 637 635 648Q635 650 637 660Q641 676 643 679T653 683Q656 683 684 682T767 680Q817 680 843 681T873 682Q888 682 888 672Q888 650 880 642Q878 637 858 637Q787 633 769 597L620 7Q618 0 599 0Q585 0 582 2Q579 5 453 305L326 604L261 344Q196 88 196 79Q201 46 268 46H278Q284 41 284 38T282 19Q278 6 272 0H259Q228 2 151 2Q123 2 100 2T63 2T46 1Q31 1 31 10Q31 14 34 26T39 40Q41 46 62 46Q130 49 150 85Q154 91 221 362L289 634Q287 635 234 637Z"></path><path id="MJX-54-TEX-I-1D458" d="M121 647Q121 657 125 670T137 683Q138 683 209 688T282 694Q294 694 294 686Q294 679 244 477Q194 279 194 272Q213 282 223 291Q247 309 292 354T362 415Q402 442 438 442Q468 442 485 423T503 369Q503 344 496 327T477 302T456 291T438 288Q418 288 406 299T394 328Q394 353 410 369T442 390L458 393Q446 405 434 405H430Q398 402 367 380T294 316T228 255Q230 254 243 252T267 246T293 238T320 224T342 206T359 180T365 147Q365 130 360 106T354 66Q354 26 381 26Q429 26 459 145Q461 153 479 153H483Q499 153 499 144Q499 139 496 130Q455 -11 378 -11Q333 -11 305 15T277 90Q277 108 280 121T283 145Q283 167 269 183T234 206T200 217T182 220H180Q168 178 159 139T145 81T136 44T129 20T122 7T111 -2Q98 -11 83 -11Q66 -11 57 -1T48 16Q48 26 85 176T158 471L195 616Q196 629 188 632T149 637H144Q134 637 131 637T124 640T121 647Z"></path><path id="MJX-54-TEX-N-6C" d="M42 46H56Q95 46 103 60V68Q103 77 103 91T103 124T104 167T104 217T104 272T104 329Q104 366 104 407T104 482T104 542T103 586T103 603Q100 622 89 628T44 637H26V660Q26 683 28 683L38 684Q48 685 67 686T104 688Q121 689 141 690T171 693T182 694H185V379Q185 62 186 60Q190 52 198 49Q219 46 247 46H263V0H255L232 1Q209 2 183 2T145 3T107 3T57 1L34 0H26V46H42Z"></path><path id="MJX-54-TEX-N-67" d="M329 409Q373 453 429 453Q459 453 472 434T485 396Q485 382 476 371T449 360Q416 360 412 390Q410 404 415 411Q415 412 416 414V415Q388 412 363 393Q355 388 355 386Q355 385 359 381T368 369T379 351T388 325T392 292Q392 230 343 187T222 143Q172 143 123 171Q112 153 112 133Q112 98 138 81Q147 75 155 75T227 73Q311 72 335 67Q396 58 431 26Q470 -13 470 -72Q470 -139 392 -175Q332 -206 250 -206Q167 -206 107 -175Q29 -140 29 -75Q29 -39 50 -15T92 18L103 24Q67 55 67 108Q67 155 96 193Q52 237 52 292Q52 355 102 398T223 442Q274 442 318 416L329 409ZM299 343Q294 371 273 387T221 404Q192 404 171 388T145 343Q142 326 142 292Q142 248 149 227T179 192Q196 182 222 182Q244 182 260 189T283 207T294 227T299 242Q302 258 302 292T299 343ZM403 -75Q403 -50 389 -34T348 -11T299 -2T245 0H218Q151 0 138 -6Q118 -15 107 -34T95 -74Q95 -84 101 -97T122 -127T170 -155T250 -167Q319 -167 361 -139T403 -75Z"></path><path id="MJX-54-TEX-N-28" d="M94 250Q94 319 104 381T127 488T164 576T202 643T244 695T277 729T302 750H315H319Q333 750 333 741Q333 738 316 720T275 667T226 581T184 443T167 250T184 58T225 -81T274 -167T316 -220T333 -241Q333 -250 318 -250H315H302L274 -226Q180 -141 137 -14T94 250Z"></path><path id="MJX-54-TEX-N-29" d="M60 749L64 750Q69 750 74 750H86L114 726Q208 641 251 514T294 250Q294 182 284 119T261 12T224 -76T186 -143T145 -194T113 -227T90 -246Q87 -249 86 -250H74Q66 -250 63 -250T58 -247T55 -238Q56 -237 66 -225Q221 -64 221 250T66 725Q56 737 55 738Q55 746 60 749Z"></path></defs><g stroke="currentColor" fill="currentColor" stroke-width="0" transform="matrix(1 0 0 -1 0 0)"><g data-mml-node="math"><g data-mml-node="mtable"><g data-mml-node="mtr" transform="translate(0, 1551.7)"><g data-mml-node="mtd"><g data-mml-node="TeXAtom" data-mjx-texclass="ORD"><g data-mml-node="mi"><use xlink:href="#MJX-54-TEX-B-1D429"></use></g></g><g data-mml-node="mo" transform="translate(916.8, 0)"><use xlink:href="#MJX-54-TEX-N-3D"></use></g><g data-mml-node="mi" transform="translate(1972.6, 0)"><use xlink:href="#MJX-54-TEX-N-73"></use><use xlink:href="#MJX-54-TEX-N-6F" transform="translate(394, 0)"></use><use xlink:href="#MJX-54-TEX-N-66" transform="translate(894, 0)"></use><use xlink:href="#MJX-54-TEX-N-74" transform="translate(1200, 0)"></use><use xlink:href="#MJX-54-TEX-N-6D" transform="translate(1589, 0)"></use><use xlink:href="#MJX-54-TEX-N-61" transform="translate(2422, 0)"></use><use xlink:href="#MJX-54-TEX-N-78" transform="translate(2922, 0)"></use></g><g data-mml-node="mo" transform="translate(5422.6, 0)"><use xlink:href="#MJX-54-TEX-N-2061"></use></g><g data-mml-node="mrow" transform="translate(5422.6, 0)"><g data-mml-node="mo"><use xlink:href="#MJX-54-TEX-SO-28"></use></g><g data-mml-node="msub" transform="translate(458, 0)"><g data-mml-node="TeXAtom" data-mjx-texclass="ORD"><g data-mml-node="mi"><use xlink:href="#MJX-54-TEX-B-1D416"></use></g></g><g data-mml-node="TeXAtom" transform="translate(1189, -150) scale(0.707)" data-mjx-texclass="ORD"><g data-mml-node="mi"><use xlink:href="#MJX-54-TEX-I-1D45D"></use></g></g></g><g data-mml-node="mrow" transform="translate(2052.7, 0)"><g data-mml-node="mo"><use xlink:href="#MJX-54-TEX-SO-28"></use></g><g data-mml-node="msubsup" transform="translate(458, 0)"><g data-mml-node="TeXAtom" data-mjx-texclass="ORD"><g data-mml-node="mi"><use xlink:href="#MJX-54-TEX-B-1D42C"></use></g></g><g data-mml-node="TeXAtom" transform="translate(454, 363) scale(0.707)" data-mjx-texclass="ORD"><g data-mml-node="mo"><use xlink:href="#MJX-54-TEX-N-2B"></use></g></g><g data-mml-node="TeXAtom" transform="translate(454, -247) scale(0.707)" data-mjx-texclass="ORD"><g data-mml-node="mi"><use xlink:href="#MJX-54-TEX-I-1D45B"></use></g></g></g><g data-mml-node="mo" transform="translate(1734.4, 0)"><use xlink:href="#MJX-54-TEX-N-2295"></use></g><g data-mml-node="msubsup" transform="translate(2734.6, 0)"><g data-mml-node="TeXAtom" data-mjx-texclass="ORD"><g data-mml-node="mi"><use xlink:href="#MJX-54-TEX-B-1D421"></use></g></g><g data-mml-node="TeXAtom" transform="translate(639, 421.1) scale(0.707)" data-mjx-texclass="ORD"><g data-mml-node="mo"><use xlink:href="#MJX-54-TEX-N-2B"></use></g></g><g data-mml-node="TeXAtom" transform="translate(639, -287.9) scale(0.707)" data-mjx-texclass="ORD"><g data-mml-node="mi"><use xlink:href="#MJX-54-TEX-I-1D461"></use></g><g data-mml-node="mo" transform="translate(361, 0)"><use xlink:href="#MJX-54-TEX-N-2212"></use></g><g data-mml-node="mn" transform="translate(1139, 0)"><use xlink:href="#MJX-54-TEX-N-31"></use></g></g></g><g data-mml-node="mo" transform="translate(4582.5, 0)"><use xlink:href="#MJX-54-TEX-SO-29"></use></g></g><g data-mml-node="mo" transform="translate(7093.2, 0)"><use xlink:href="#MJX-54-TEX-SO-29"></use></g></g></g></g><g data-mml-node="mtr" transform="translate(0, 52.2)"><g data-mml-node="mtd" transform="translate(6486.9, 0)"></g></g><g data-mml-node="mtr" transform="translate(0, -1557.8)"><g data-mml-node="mtd" transform="translate(2241.7, 0)"><g data-mml-node="TeXAtom" data-mjx-texclass="ORD"><g data-mml-node="mi"><use xlink:href="#MJX-54-TEX-C-4C"></use></g></g><g data-mml-node="mo" transform="translate(967.8, 0)"><use xlink:href="#MJX-54-TEX-N-3D"></use></g><g data-mml-node="mo" transform="translate(2023.6, 0)"><use xlink:href="#MJX-54-TEX-N-2212"></use></g><g data-mml-node="munderover" transform="translate(2968.2, 0)"><g data-mml-node="mo"><use xlink:href="#MJX-54-TEX-SO-2211"></use></g><g data-mml-node="TeXAtom" transform="translate(1056, 477.1) scale(0.707)" data-mjx-texclass="ORD"><g data-mml-node="mi"><use xlink:href="#MJX-54-TEX-I-1D441"></use></g></g><g data-mml-node="TeXAtom" transform="translate(1056, -285.4) scale(0.707)" data-mjx-texclass="ORD"><g data-mml-node="mi"><use xlink:href="#MJX-54-TEX-I-1D458"></use></g><g data-mml-node="mo" transform="translate(521, 0)"><use xlink:href="#MJX-54-TEX-N-3D"></use></g><g data-mml-node="mn" transform="translate(1299, 0)"><use xlink:href="#MJX-54-TEX-N-31"></use></g></g></g><g data-mml-node="mi" transform="translate(5513, 0)"><use xlink:href="#MJX-54-TEX-N-6C"></use><use xlink:href="#MJX-54-TEX-N-6F" transform="translate(278, 0)"></use><use xlink:href="#MJX-54-TEX-N-67" transform="translate(778, 0)"></use></g><g data-mml-node="mo" transform="translate(6791, 0)"><use xlink:href="#MJX-54-TEX-N-2061"></use></g><g data-mml-node="mrow" transform="translate(6791, 0)"><g data-mml-node="mo"><use xlink:href="#MJX-54-TEX-N-28"></use></g><g data-mml-node="msub" transform="translate(389, 0)"><g data-mml-node="mi"><use xlink:href="#MJX-54-TEX-I-1D45D"></use></g><g data-mml-node="TeXAtom" transform="translate(503, -150) scale(0.707)" data-mjx-texclass="ORD"><g data-mml-node="mi"><use xlink:href="#MJX-54-TEX-I-1D458"></use></g></g></g><g data-mml-node="mo" transform="translate(1310.4, 0)"><use xlink:href="#MJX-54-TEX-N-29"></use></g></g></g></g></g></g></g></svg>