<?xml version="1.0" encoding="UTF-8" standalone="no" ?>
<svg xmlns="http://www.w3.org/2000/svg" width="40.697ex" height="2.289ex" viewBox="0 -750 17987.9 1011.6" xmlns:xlink="http://www.w3.org/1999/xlink" aria-hidden="true" style=""><defs><path id="MJX-4-TEX-C-56" d="M25 633Q25 647 47 665T100 683Q291 683 291 306Q291 264 288 213T282 132L279 102Q281 102 308 126T378 191T464 279T545 381T596 479Q600 490 600 502Q600 527 581 550T523 577Q505 577 505 601Q505 622 516 647T542 681Q546 683 558 683Q605 679 631 645T658 559Q658 423 487 215Q409 126 308 37T190 -52Q177 -52 177 -28Q177 -26 183 15T196 127T203 270Q203 356 192 421T165 523T126 583T83 613T41 620Q25 620 25 633Z"></path><path id="MJX-4-TEX-I-1D463" d="M173 380Q173 405 154 405Q130 405 104 376T61 287Q60 286 59 284T58 281T56 279T53 278T49 278T41 278H27Q21 284 21 287Q21 294 29 316T53 368T97 419T160 441Q202 441 225 417T249 361Q249 344 246 335Q246 329 231 291T200 202T182 113Q182 86 187 69Q200 26 250 26Q287 26 319 60T369 139T398 222T409 277Q409 300 401 317T383 343T365 361T357 383Q357 405 376 424T417 443Q436 443 451 425T467 367Q467 340 455 284T418 159T347 40T241 -11Q177 -11 139 22Q102 54 102 117Q102 148 110 181T151 298Q173 362 173 380Z"></path><path id="MJX-4-TEX-N-3D" d="M56 347Q56 360 70 367H707Q722 359 722 347Q722 336 708 328L390 327H72Q56 332 56 347ZM56 153Q56 168 72 173H708Q722 163 722 153Q722 140 707 133H70Q56 140 56 153Z"></path><path id="MJX-4-TEX-N-7B" d="M434 -231Q434 -244 428 -250H410Q281 -250 230 -184Q225 -177 222 -172T217 -161T213 -148T211 -133T210 -111T209 -84T209 -47T209 0Q209 21 209 53Q208 142 204 153Q203 154 203 155Q189 191 153 211T82 231Q71 231 68 234T65 250T68 266T82 269Q116 269 152 289T203 345Q208 356 208 377T209 529V579Q209 634 215 656T244 698Q270 724 324 740Q361 748 377 749Q379 749 390 749T408 750H428Q434 744 434 732Q434 719 431 716Q429 713 415 713Q362 710 332 689T296 647Q291 634 291 499V417Q291 370 288 353T271 314Q240 271 184 255L170 250L184 245Q202 239 220 230T262 196T290 137Q291 131 291 1Q291 -134 296 -147Q306 -174 339 -192T415 -213Q429 -213 431 -216Q434 -219 434 -231Z"></path><path id="MJX-4-TEX-I-1D462" d="M21 287Q21 295 30 318T55 370T99 420T158 442Q204 442 227 417T250 358Q250 340 216 246T182 105Q182 62 196 45T238 27T291 44T328 78L339 95Q341 99 377 247Q407 367 413 387T427 416Q444 431 463 431Q480 431 488 421T496 402L420 84Q419 79 419 68Q419 43 426 35T447 26Q469 29 482 57T512 145Q514 153 532 153Q551 153 551 144Q550 139 549 130T540 98T523 55T498 17T462 -8Q454 -10 438 -10Q372 -10 347 46Q345 45 336 36T318 21T296 6T267 -6T233 -11Q189 -11 155 7Q103 38 103 113Q103 170 138 262T173 379Q173 380 173 381Q173 390 173 393T169 400T158 404H154Q131 404 112 385T82 344T65 302T57 280Q55 278 41 278H27Q21 284 21 287Z"></path><path id="MJX-4-TEX-N-2223" d="M139 -249H137Q125 -249 119 -235V251L120 737Q130 750 139 750Q152 750 159 735V-235Q151 -249 141 -249H139Z"></path><path id="MJX-4-TEX-N-2208" d="M84 250Q84 372 166 450T360 539Q361 539 377 539T419 540T469 540H568Q583 532 583 520Q583 511 570 501L466 500Q355 499 329 494Q280 482 242 458T183 409T147 354T129 306T124 272V270H568Q583 262 583 250T568 230H124V228Q124 207 134 177T167 112T231 48T328 7Q355 1 466 0H570Q583 -10 583 -20Q583 -32 568 -40H471Q464 -40 446 -40T417 -41Q262 -41 172 45Q84 127 84 250Z"></path><path id="MJX-4-TEX-I-1D466" d="M21 287Q21 301 36 335T84 406T158 442Q199 442 224 419T250 355Q248 336 247 334Q247 331 231 288T198 191T182 105Q182 62 196 45T238 27Q261 27 281 38T312 61T339 94Q339 95 344 114T358 173T377 247Q415 397 419 404Q432 431 462 431Q475 431 483 424T494 412T496 403Q496 390 447 193T391 -23Q363 -106 294 -155T156 -205Q111 -205 77 -183T43 -117Q43 -95 50 -80T69 -58T89 -48T106 -45Q150 -45 150 -87Q150 -107 138 -122T115 -142T102 -147L99 -148Q101 -153 118 -160T152 -167H160Q177 -167 186 -165Q219 -156 247 -127T290 -65T313 -9T321 21L315 17Q309 13 296 6T270 -6Q250 -11 231 -11Q185 -11 150 11T104 82Q103 89 103 113Q103 170 138 262T173 379Q173 380 173 381Q173 390 173 393T169 400T158 404H154Q131 404 112 385T82 344T65 302T57 280Q55 278 41 278H27Q21 284 21 287Z"></path><path id="MJX-4-TEX-N-31" d="M213 578L200 573Q186 568 160 563T102 556H83V602H102Q149 604 189 617T245 641T273 663Q275 666 285 666Q294 666 302 660V361L303 61Q310 54 315 52T339 48T401 46H427V0H416Q395 3 257 3Q121 3 100 0H88V46H114Q136 46 152 46T177 47T193 50T201 52T207 57T213 61V578Z"></path><path id="MJX-4-TEX-N-7D" d="M65 731Q65 745 68 747T88 750Q171 750 216 725T279 670Q288 649 289 635T291 501Q292 362 293 357Q306 312 345 291T417 269Q428 269 431 266T434 250T431 234T417 231Q380 231 345 210T298 157Q293 143 292 121T291 -28V-79Q291 -134 285 -156T256 -198Q202 -250 89 -250Q71 -250 68 -247T65 -230Q65 -224 65 -223T66 -218T69 -214T77 -213Q91 -213 108 -210T146 -200T183 -177T207 -139Q208 -134 209 3L210 139Q223 196 280 230Q315 247 330 250Q305 257 280 270Q225 304 212 352L210 362L209 498Q208 635 207 640Q195 680 154 696T77 713Q68 713 67 716T65 731Z"></path><path id="MJX-4-TEX-N-A0" d=""></path><path id="MJX-4-TEX-N-61" d="M137 305T115 305T78 320T63 359Q63 394 97 421T218 448Q291 448 336 416T396 340Q401 326 401 309T402 194V124Q402 76 407 58T428 40Q443 40 448 56T453 109V145H493V106Q492 66 490 59Q481 29 455 12T400 -6T353 12T329 54V58L327 55Q325 52 322 49T314 40T302 29T287 17T269 6T247 -2T221 -8T190 -11Q130 -11 82 20T34 107Q34 128 41 147T68 188T116 225T194 253T304 268H318V290Q318 324 312 340Q290 411 215 411Q197 411 181 410T156 406T148 403Q170 388 170 359Q170 334 154 320ZM126 106Q126 75 150 51T209 26Q247 26 276 49T315 109Q317 116 318 175Q318 233 317 233Q309 233 296 232T251 223T193 203T147 166T126 106Z"></path><path id="MJX-4-TEX-N-6E" d="M41 46H55Q94 46 102 60V68Q102 77 102 91T102 122T103 161T103 203Q103 234 103 269T102 328V351Q99 370 88 376T43 385H25V408Q25 431 27 431L37 432Q47 433 65 434T102 436Q119 437 138 438T167 441T178 442H181V402Q181 364 182 364T187 369T199 384T218 402T247 421T285 437Q305 442 336 442Q450 438 463 329Q464 322 464 190V104Q464 66 466 59T477 49Q498 46 526 46H542V0H534L510 1Q487 2 460 2T422 3Q319 3 310 0H302V46H318Q379 46 379 62Q380 64 380 200Q379 335 378 343Q372 371 358 385T334 402T308 404Q263 404 229 370Q202 343 195 315T187 232V168V108Q187 78 188 68T191 55T200 49Q221 46 249 46H265V0H257L234 1Q210 2 183 2T145 3Q42 3 33 0H25V46H41Z"></path><path id="MJX-4-TEX-N-64" d="M376 495Q376 511 376 535T377 568Q377 613 367 624T316 637H298V660Q298 683 300 683L310 684Q320 685 339 686T376 688Q393 689 413 690T443 693T454 694H457V390Q457 84 458 81Q461 61 472 55T517 46H535V0Q533 0 459 -5T380 -11H373V44L365 37Q307 -11 235 -11Q158 -11 96 50T34 215Q34 315 97 378T244 442Q319 442 376 393V495ZM373 342Q328 405 260 405Q211 405 173 369Q146 341 139 305T131 211Q131 155 138 120T173 59Q203 26 251 26Q322 26 373 103V342Z"></path></defs><g stroke="currentColor" fill="currentColor" stroke-width="0" transform="matrix(1 0 0 -1 0 0)"><g data-mml-node="math"><g data-mml-node="msub"><g data-mml-node="TeXAtom" data-mjx-texclass="ORD"><g data-mml-node="mi"><use xlink:href="#MJX-4-TEX-C-56"></use></g></g><g data-mml-node="TeXAtom" transform="translate(613, -150) scale(0.707)" data-mjx-texclass="ORD"><g data-mml-node="mi"><use xlink:href="#MJX-4-TEX-I-1D463"></use></g></g></g><g data-mml-node="mo" transform="translate(1283.7, 0)"><use xlink:href="#MJX-4-TEX-N-3D"></use></g><g data-mml-node="mrow" transform="translate(2339.5, 0)"><g data-mml-node="mo"><use xlink:href="#MJX-4-TEX-N-7B"></use></g><g data-mml-node="msub" transform="translate(500, 0)"><g data-mml-node="mi"><use xlink:href="#MJX-4-TEX-I-1D463"></use></g><g data-mml-node="TeXAtom" transform="translate(485, -150) scale(0.707)" data-mjx-texclass="ORD"><g data-mml-node="mi"><use xlink:href="#MJX-4-TEX-I-1D462"></use></g></g></g><g data-mml-node="mo" transform="translate(1717.2, 0)"><use xlink:href="#MJX-4-TEX-N-2223"></use></g><g data-mml-node="mi" transform="translate(2273, 0)"><use xlink:href="#MJX-4-TEX-I-1D462"></use></g><g data-mml-node="mo" transform="translate(3122.8, 0)"><use xlink:href="#MJX-4-TEX-N-2208"></use></g><g data-mml-node="mrow" transform="translate(4067.6, 0)"><g data-mml-node="mo"><use xlink:href="#MJX-4-TEX-N-7B"></use></g><g data-mml-node="mi" transform="translate(500, 0)"><use xlink:href="#MJX-4-TEX-I-1D462"></use></g><g data-mml-node="mo" transform="translate(1349.8, 0)"><use xlink:href="#MJX-4-TEX-N-2223"></use></g><g data-mml-node="msub" transform="translate(1905.6, 0)"><g data-mml-node="mi"><use xlink:href="#MJX-4-TEX-I-1D466"></use></g><g data-mml-node="TeXAtom" transform="translate(490, -150) scale(0.707)" data-mjx-texclass="ORD"><g data-mml-node="mi"><use xlink:href="#MJX-4-TEX-I-1D462"></use></g><g data-mml-node="mi" transform="translate(572, 0)"><use xlink:href="#MJX-4-TEX-I-1D463"></use></g></g></g><g data-mml-node="mo" transform="translate(3470.7, 0)"><use xlink:href="#MJX-4-TEX-N-3D"></use></g><g data-mml-node="mn" transform="translate(4526.5, 0)"><use xlink:href="#MJX-4-TEX-N-31"></use></g><g data-mml-node="mo" transform="translate(5026.5, 0)"><use xlink:href="#MJX-4-TEX-N-7D"></use></g></g><g data-mml-node="mtext" transform="translate(9594.1, 0)"><use xlink:href="#MJX-4-TEX-N-A0"></use><use xlink:href="#MJX-4-TEX-N-61" transform="translate(250, 0)"></use><use xlink:href="#MJX-4-TEX-N-6E" transform="translate(750, 0)"></use><use xlink:href="#MJX-4-TEX-N-64" transform="translate(1306, 0)"></use><use xlink:href="#MJX-4-TEX-N-A0" transform="translate(1862, 0)"></use></g><g data-mml-node="msub" transform="translate(11706.1, 0)"><g data-mml-node="mi"><use xlink:href="#MJX-4-TEX-I-1D466"></use></g><g data-mml-node="TeXAtom" transform="translate(490, -150) scale(0.707)" data-mjx-texclass="ORD"><g data-mml-node="mi"><use xlink:href="#MJX-4-TEX-I-1D462"></use></g><g data-mml-node="msub" transform="translate(572, 0)"><g data-mml-node="mi"><use xlink:href="#MJX-4-TEX-I-1D463"></use></g><g data-mml-node="TeXAtom" transform="translate(485, -150) scale(0.707)" data-mjx-texclass="ORD"><g data-mml-node="mi"><use xlink:href="#MJX-4-TEX-I-1D462"></use></g></g></g></g></g><g data-mml-node="mo" transform="translate(13592.6, 0)"><use xlink:href="#MJX-4-TEX-N-3D"></use></g><g data-mml-node="mn" transform="translate(14648.4, 0)"><use xlink:href="#MJX-4-TEX-N-31"></use></g><g data-mml-node="mo" transform="translate(15148.4, 0)"><use xlink:href="#MJX-4-TEX-N-7D"></use></g></g></g></g></svg>